<?xml version="1.0" encoding="UTF-8" standalone="no"?>
<svg
   width="330"
   height="87.988007"
   viewBox="0 0 329.99999 87.988006"
   fill="none"
   version="1.1"
   id="svg273371"
   sodipodi:docname="mulch_center_iarc_logo.svg"
   inkscape:version="1.1.2 (0a00cf5339, 2022-02-04)"
   xmlns:inkscape="http://www.inkscape.org/namespaces/inkscape"
   xmlns:sodipodi="http://sodipodi.sourceforge.net/DTD/sodipodi-0.dtd"
   xmlns="http://www.w3.org/2000/svg"
   xmlns:svg="http://www.w3.org/2000/svg">
  <defs
     id="defs273375" />
  <sodipodi:namedview
     id="namedview273373"
     pagecolor="#ffffff"
     bordercolor="#111111"
     borderopacity="1"
     inkscape:pageshadow="0"
     inkscape:pageopacity="0"
     inkscape:pagecheckerboard="1"
     showgrid="false"
     inkscape:zoom="5.8881119"
     inkscape:cx="142.83017"
     inkscape:cy="34.13658"
     inkscape:window-width="1920"
     inkscape:window-height="1012"
     inkscape:window-x="0"
     inkscape:window-y="0"
     inkscape:window-maximized="1"
     inkscape:current-layer="svg273371" />
  <g
     id="g273490"
     transform="scale(1.1548998,1.2751837)">
    <path
       d="m 37.8207,34.781927 c 0.8898,1.08375 2.4429,1.72148 3.356,2.80523 -0.6517,-3.20821 -3.0789,-5.82955 -5.9471,-6.451627 1.401,1.072007 1.7014,2.562647 2.5911,3.646397 z m -34.4842597,8.13003 c 1.97454,-4.38973 4.92465,-3.45856 6.17338,-7.64098 -0.70631,1.28329 -3.92568,1.82321 -5.42025,5.11358 0.76485,-1.95231 0.38242,-4.94142 1.67017,-6.55335 -3.85934,2.90304 -2.21648,7.60575 -2.4233,9.08075 z m 3.57837,10.5245 c 0.35511,1.7098 -0.6868,4.1746 0.96776,6.5338 -1.71699,-1.9601 -5.3461,-2.4609 -6.83286,-5.4461 1.85358,7.2928 6.67677,5.7904 8.85424,7.375 -1.78724,-2.6253 -0.32389,-4.3663 -2.98914,-8.4627 z m -0.55412,4.5776 c -1.06922,-4.0768 0.82728,-5.4813 -0.61266,-9.3938 -0.15218,2.2027 -1.58822,3.2786 -0.61655,7.3046 -1.7131,-3.4117 -4.362734,-4.6832 -5.1314803,-7.0229 0.0507294,6.4008 5.0885503,7.3476 6.3606903,9.1121 z m 7.7343097,6.8351 c -1.4829,-2.0932 -0.4722,-3.2787 -4.6359097,-7.0816 0.8819097,1.3889 -0.02732,3.1339 2.7823097,5.8491 -2.7471897,-1.6549 -6.5401897,-0.9468 -8.3664497,-3.1573 3.13742,6.1308 8.6552497,3.6268 10.2200497,4.3898 z m 20.1591,-1.2325 c 2.8096,-2.7152 1.9004,-4.4602 2.7823,-5.8491 -4.1676,3.8029 -3.153,4.9884 -4.6359,7.0816 1.5648,-0.763 7.0826,1.741 10.2239,-4.3859 -1.8262,2.2066 -5.6192,1.4985 -8.3703,3.1534 z m 4.3588,-3.6464 c 1.6546,-2.3553 0.6127,-4.824 0.9678,-6.5338 -2.6653,4.0925 -1.198,5.8374 -2.9892,8.4627 2.1775,-1.5846 7.0007,-0.0822 8.8543,-7.375 -1.4868,2.9852 -5.1198,3.486 -6.8329,5.4461 z m -6.6534,5.1684 c -1.6311,-0.4421 -3.3052,-0.6651 -4.5539,-0.6964 -1.557,-0.0392 -2.9501,0.2621 -4.152,0.7199 -1.2058,-0.4578 -2.5989,-0.7591 -4.1559,-0.7199 -1.2487,0.0313 -2.9267,0.2504 -4.554,0.6964 -2.5052,0.6807 -4.6709697,1.2089 -6.5596697,0.2347 1.80675,1.6393 3.9217697,2.2223 6.9733697,1.8898 2.5404,-0.2778 4.589,-1.5768 6.985,-1.5572 l 0.0937,0.0039 c -2.5248,1.2989 -3.9491,3.13 -3.9491,3.13 l 1.1551,0.1604 c 0,0 1.2175,-2.4962 4.0115,-3.1417 2.794,0.6495 4.0115,3.1417 4.0115,3.1417 l 1.1551,-0.1604 c 0,0 -1.4243,-1.8311 -3.9491,-3.13 l 0.0937,-0.0039 c 2.3959,-0.0157 4.4446,1.2794 6.985,1.5572 3.0516,0.3364 5.1627,-0.2505 6.9734,-1.8898 -1.8926,0.9742 -4.0623,0.446 -6.5637,-0.2347 z M 5.9197403,44.207057 c -1.0341,2.0227 -2.63794,2.4883 -2.47014,6.6629 -0.8663,-3.7129 -2.938403,-5.0901 -2.911087,-7.465 -1.439936,6.1895 2.407697,6.9251 3.394967,9.5151 -0.14438,-3.7129 2.18137,-4.4641 1.98626,-8.713 z m 1.44383,-4.77714 c -0.35901,0.51253 -0.61265,0.73163 -1.57261,1.53764 -1.30726,1.0994 -2.35306,2.547 -2.79402,4.6519 0.10146,-2.2693 -1.27214,-5.52833 -0.35901,-7.9071 -3.535452,5.0979 0.19902,8.1496 0.33559,9.9924 0.91313,-3.5486 3.02036,-3.576 4.39005,-8.27484 z M 43.4985,45.619457 c -0.4409,-2.1088 -1.4867,-3.5525 -2.794,-4.6519 -0.9599,-0.80601 -1.2136,-1.02511 -1.5726,-1.53764 1.3697,4.69884 3.4769,4.72624 4.3901,8.27874 0.1326,-1.8428 3.871,-4.8984 0.3355,-9.99239 0.9171,2.37486 -0.4565,5.63389 -0.359,7.90319 z m 3.0009,3.2864 c -0.7688,2.3397 -3.4184,3.6112 -5.1315,7.0229 0.9717,-4.0259 -0.4683,-5.1019 -0.6205,-7.3046 -1.4399,3.9125 0.4566,5.3171 -0.6126,9.3938 1.276,-1.7684 6.31,-2.7152 6.3646,-9.1121 z m -5.9198,-4.6988 c -0.1951,4.2489 2.1307,5.0001 1.9824,8.7169 0.9873,-2.5939 4.8349,-3.3295 3.395,-9.5151 0.0273,2.371 -2.0448,3.7521 -2.9111,7.465 0.1717,-4.1785 -1.4322,-4.6441 -2.4663,-6.6668 z M 8.6747303,34.781927 c 0.88972,-1.08375 1.1941,-2.57439 2.5910697,-3.646397 -2.8681297,0.625987 -5.2953397,3.243417 -5.9470097,6.451627 0.90922,-1.08375 2.46623,-1.72539 3.35594,-2.80523 z M 36.9857,35.270977 c 1.2487,4.18242 4.1988,3.25125 6.1733,7.64098 -0.2068,-1.475 1.4361,-6.17772 -2.4233,-9.08467 1.2917,1.61193 0.9093,4.60104 1.6702,6.55336 -1.4946,-3.28646 -4.7139,-3.82638 -5.4202,-5.10967 z m -10.0172,2.37487 c -0.7414,-0.313 -1.5296,-0.536 -2.3491,-0.65338 -0.0039,0.17606 -0.0078,0.35603 -0.0117,0.53601 0.757,0.11346 1.4828,0.32082 2.1696,0.61034 0.0937,-0.14867 0.1561,-0.30909 0.1912,-0.49297 z m -0.597,-5.17618 0.1561,-0.14476 -0.3005,-0.12911 -0.7882,-0.01565 -0.2069,0.14476 -0.4643,-0.03913 -0.0078,0.11347 c 0.2965,0.01956 0.5853,0.04695 0.8116,0.08999 l 0.3864,-0.03521 z m -1.518,17.35569 c 0,-0.137 -0.1756,-0.27 -0.4409,-0.3991 h -0.0469 c -0.0039,0.1095 -0.0117,0.6573 -0.0156,0.9233 0.3239,-0.1487 0.5034,-0.3091 0.5034,-0.5242 z m -9.1352,-10.2272 c 0.0195,-0.10955 0.039,-0.19953 0.0664,-0.29734 -0.0976,0.02347 -0.2108,0.03521 -0.3239,0.03521 z m 7.547,23.6742 c 8.8698,0 16.089,-7.3671 16.089,-16.4205 0,-8.49004 -6.3489,-15.497237 -14.4579,-16.334501 l -0.0195,0.09389 c -0.0312,0.16041 -0.0624,0.305173 -0.0858,0.430372 3.633,0.363858 6.8992,2.003174 9.3693,4.475844 l -1.7755,1.81147 0.0663,-0.31691 -0.2341,-0.10563 -0.32,-0.01957 0.0663,-0.20736 -0.2146,-0.74336 -0.4409,-0.49298 -1.3892,-0.74728 -0.1171,0.12912 -0.2537,0.07434 c 0.4761,0.71598 0.7337,1.54541 0.7337,2.37876 0,0.10955 -0.0039,0.21519 -0.0078,0.32083 l 0.6868,0.8803 -0.3239,0.07825 0.2146,0.32865 -0.6049,0.61816 -0.2419,-0.4734 c -0.1171,0.33256 -0.2692,0.63772 -0.4605,0.92333 0.0469,0.04304 0.0937,0.08217 0.1366,0.12912 l -1.8692,1.90535 c -0.1131,-0.1095 -0.2302,-0.2152 -0.3512,-0.3169 -0.1795,0.0861 -0.3629,0.1643 -0.5463,0.2348 0.0546,0.043 0.1054,0.0821 0.16,0.1251 l -0.0936,0.0979 -0.2186,0.1252 -0.0819,0.223 -0.1366,-0.1409 -0.3941,0.133 0.1092,0.1761 0.2732,-0.0743 0.1756,0.0156 0.0117,-0.0978 0.1366,-0.0704 0.0429,-0.0822 0.2458,-0.0704 0.1913,-0.0078 c 0.039,0.0352 0.0741,0.0665 0.1131,0.1017 l -0.7414,0.7551 -0.0546,-0.0822 -0.7727,0.1331 -0.1717,0.176 -0.1717,0.0196 0.4839,-0.4695 -0.1717,-0.09 -0.4488,0.6143 0.1327,-0.0157 -0.0078,0.2269 0.1639,0.0665 0.0312,0.2426 -0.2692,-0.0548 -0.281,0.0548 -0.679,-0.356 c 0,0 -0.039,1.8623 -0.0546,2.8013 1.6038,0.5517 3.3091,1.3459 3.3091,3.439 0,0.9195 -0.3902,1.6589 -1.1551,2.2067 h 0.0078 l -0.0351,0.0234 -0.0039,-0.0039 -0.0507,0.0352 c -0.6478,0.4382 -1.4829,0.6691 -2.2087,0.9038 l -0.0234,1.4633 c 1.1512,0.5829 2.5482,1.4358 2.4194,3.8655 -0.0156,0.5986 -0.2459,0.7629 -0.441,0.8177 -0.6751,0.1682 -1.3697,0.2817 -2.0799,0.3364 -0.0039,0.1878 -0.0078,0.3678 -0.0078,0.536 3.0984,-0.2151 5.9002,-1.5532 8.0192,-3.6151 l 1.8692,1.9054 c -2.798,2.7465 -6.5988,4.4367 -10.782,4.4367 -4.1598,0 -7.9411,-1.6745 -10.7351,-4.3936 l 1.8692,-1.9093 c 2.0994,2.0227 4.8583,3.3373 7.9059,3.5681 -0.0039,-0.1643 -0.0039,-0.3443 -0.0078,-0.536 -2.9032,-0.2308 -5.5295,-1.4867 -7.5274,-3.4077 l 0.4995,-0.5086 0.6829,0.0782 0.3629,-0.3991 0.956,0.0352 0.1405,-0.3364 -0.0351,-0.1409 c 1.3853,1.072 3.0555,1.7763 4.87,1.968 -0.0039,-0.2074 -0.0078,-0.3913 -0.0117,-0.536 -2.0058,-0.2269 -3.8203,-1.1151 -5.2329,-2.4414 l 1.8692,-1.9093 c 0.4526,0.4148 0.9638,0.763 1.5179,1.0368 0.043,-0.1799 0.1054,-0.3482 0.1873,-0.5008 -0.4838,-0.2464 -0.9326,-0.5516 -1.3345,-0.9155 l 1.8731,-1.9132 c 0.2965,0.2426 0.636,0.4382 1.0028,0.5673 -0.0039,-0.1917 -0.0078,-0.3873 -0.0117,-0.5751 -0.2224,-0.0978 -0.4292,-0.223 -0.6204,-0.3717 l 0.5307,-0.5399 c -0.1873,-0.0587 -0.3746,-0.1174 -0.558,-0.1839 l -0.3512,0.36 c -0.1796,-0.2035 -0.3317,-0.4304 -0.4488,-0.6769 -0.3239,-0.1447 -0.6361,-0.3091 -0.9248,-0.5047 -1.1512,-0.7747 -1.7366,-1.8623 -1.7366,-3.2434 0,-1.0525 0.2888,-1.8506 0.7571,-2.4649 l -1.8653,-1.9014 c 1.3424,-1.31067 3.0711,-2.21054 4.991,-2.50788 -0.0039,-0.18389 -0.0078,-0.36386 -0.0117,-0.53601 -2.0604,0.30126 -3.914,1.26372 -5.35,2.66829 L 16.21,39.339937 c -0.0702,0.12912 -0.1561,0.28952 -0.2497,0.49688 l 0.199,0.20344 c -1.6039,1.745 -2.6028,4.0768 -2.6419,6.6434 h -2.6496 c 0.0429,-3.31 1.3346,-6.31866 3.4184,-8.55267 l 0.839,0.85682 c 0.039,0 0.078,1e-5 0.117,-0.0039 0.1483,-0.01174 0.3161,-0.05869 0.4761,-0.14085 l -1.0692,-1.09158 c 0.5658,-0.55557 1.1824,-1.06027 1.8419,-1.49847 0.0507,-0.17997 0.1014,-0.34038 0.1287,-0.39516 0.0313,-0.06651 0.1991,-0.29342 0.4059,-0.55556 -1.0029,0.56731 -1.9277,1.26763 -2.7433,2.0736 l -1.8692,-1.90537 c 2.4506,-2.43354 5.6817,-4.053295 9.2679,-4.424978 -0.0117,-0.06651 -0.0234,-0.117369 -0.0234,-0.117369 -0.0234,-0.125198 -0.0508,-0.266054 -0.0781,-0.410814 -8.0855,0.860739 -14.4071397,7.856201 -14.4071397,16.330601 0.0039,9.0612 7.2231397,16.4244 16.0929397,16.4244 z m 3.473,-11.3421 v -0.0118 z m 7.7889,-16.03328 c 2.6302,2.81696 4.2613,6.61208 4.3042,10.79058 h -2.6418 c -0.0273,-2.0697 -0.519,-4.0259 -1.3814,-5.7592 l 0.0234,-0.0469 0.1834,0.0978 0.0429,-0.1409 -0.4721,-0.84504 -0.5581,-0.79031 -0.6555,-0.55949 c -0.2264,-0.28952 -0.4605,-0.5673 -0.7063,-0.83335 z m -3.3676,3.45861 0.636,0.02739 0.1522,0.1878 -0.0741,0.27386 0.8819,0.55948 0.1717,-0.02347 1.1278,1.31851 0.4604,-0.1643 c 0.7141,1.5689 1.1239,3.3138 1.1473,5.1527 h -2.6457 c -0.0117,-0.7043 -0.0976,-1.389 -0.2459,-2.0541 l 0.121,-0.1682 0.1639,-0.8451 -0.1249,-0.9077 -0.32,-1.0446 -0.7375,-1.0994 0.1795,0.0978 0.0897,-0.0939 -0.5931,-0.41081 -0.039,0.13302 0.5931,0.86469 0.3356,0.7081 0.2381,0.7004 0.078,0.4734 0.1249,0.7942 -0.2224,0.0156 c 0,0 -0.2537,-0.4851 -0.3356,-0.6886 l 0.117,-0.1799 -0.2263,-0.3287 v -0.3286 l -0.16,-0.2074 -0.199,0.0274 c -0.0703,-0.1369 -0.1483,-0.27 -0.2263,-0.403 l 0.1404,0.0744 0.0391,-0.0392 -0.0742,-0.1682 0.1717,-0.0978 -0.078,-0.0978 -0.2537,0.0978 0.0937,-0.4108 -0.1522,-0.09 -0.1366,0.3286 c -0.2888,-0.4421 -0.6087,-0.8607 -0.96,-1.24803 z m -0.5268,6.32647 0.4721,-0.2622 0.4839,-0.0782 0.1054,-0.2426 0.2692,-0.1643 0.1054,-0.2308 0.0859,-0.3991 c 0.039,0.1408 0.0741,0.2817 0.1053,0.4264 l -0.2575,0.7825 -0.0117,0.2622 0.3746,-0.5087 c 0.078,0.4617 0.1248,0.9351 0.1327,1.4203 h -2.318 l -0.0546,-0.2035 0.2692,-0.2191 0.0547,-0.133 0.117,-0.0861 0.3122,-0.0313 0.0312,-0.1408 z m -3.1765,-1.8584 0.2381,-0.0548 -0.0117,-0.0587 -0.2342,-0.1604 0.082,-0.5086 0.2809,-0.2896 c 0.1795,0.2035 0.3434,0.4226 0.4917,0.6495 l -0.1014,0.313 -0.2576,-0.1878 -0.1951,0.0548 0.0976,0.1878 h 0.0975 l -0.1053,0.2738 -0.0742,-0.1095 z m 1.0146,8.9634 -0.5697,-0.1683 -0.1756,0.0666 -0.3239,-0.2505 -0.3044,-0.1134 c 0.1483,-0.1096 0.2966,-0.2269 0.4371,-0.3482 l 0.4722,0.3365 0.359,0.1917 0.1795,0.1799 z m -0.2927,-10.4111 1.8692,-1.90924 c 0.4371,0.48514 0.8273,1.01724 1.1551,1.58454 l -0.2341,0.0665 0.0117,0.4265 0.7024,0.4499 c 0.1717,0.3873 0.3161,0.7903 0.437,1.205 l -0.1209,0.1839 -0.2537,0.1644 -0.0624,0.3951 -0.1717,0.0978 -0.1444,0.1761 -0.1483,-0.0548 -0.2575,-0.0117 0.1483,-0.2074 0.1092,-0.5399 0.1717,-0.1096 -0.5034,-0.4929 -0.3746,0.133 -0.0858,0.3639 -0.2381,0.2621 -0.2458,-0.2074 -0.0859,-0.223 0.1405,-0.09 0.078,0.1448 0.1171,-0.043 -0.0507,-0.2426 -0.1639,-0.0117 -0.0117,0.0978 -0.1093,0.0234 -0.5814,-0.6925 -0.1951,-0.1565 0.0741,-0.0821 0.1756,-0.0626 -0.1639,-0.0665 -0.2302,0.0469 0.1171,0.1487 -0.2966,-0.0039 c -0.1717,-0.2622 -0.3629,-0.5204 -0.5776,-0.763 z m 0.9522,10.1568 -0.2536,-0.2583 0.1951,-0.2582 0.2458,-0.5047 -0.0936,-0.1447 0.1639,-0.3756 -0.0196,-0.3404 -0.0975,-0.3521 -0.2303,-0.0822 -0.0858,0.1995 -0.1366,-0.0391 c 0.199,-0.3247 0.4098,-0.6299 0.5541,-0.9859 l 0.2381,-0.1057 0.1327,-0.1839 0.0663,0.0783 0.16,-0.1995 -0.1288,-0.1644 0.1171,-0.0313 0.2146,0.0861 0.4097,0.0117 0.2459,-0.133 0.6439,-0.176 -0.121,-0.2191 -0.0429,-0.2661 0.3473,0.1565 0.1287,-0.0782 -0.0663,-0.2739 -0.4253,0.1643 -0.4683,-0.0978 -0.3551,-0.7434 h 2.0213 c -0.0897,2.3749 -1.0458,4.5267 -2.552,6.1387 l -0.2771,-0.2817 0.121,-0.3795 -0.2146,-0.8334 z m 0.359,5.2622 0.2498,-0.5438 -0.0976,-0.2426 0.3668,-0.3286 v -0.1957 l -0.3122,-0.1995 0.2576,-0.5282 0.3863,-0.5164 -0.3863,-0.4265 H 29.665 l -0.1795,-0.2973 c 0.1561,-0.133 0.3083,-0.2661 0.4566,-0.4069 l 1.8692,1.9093 c -0.7024,0.6807 -1.4829,1.2793 -2.3219,1.7762 z m 2.3297,-2.5196 0.2068,-0.2348 -0.1951,-1.0446 -0.1366,-0.0548 0.0819,-0.176 -0.4409,-0.1409 -0.0859,0.3717 -0.0429,0.4734 -0.0936,0.0861 -0.8078,-0.8216 c 1.6038,-1.7058 2.6145,-3.9907 2.7043,-6.5142 h 2.6457 c -0.0898,3.2669 -1.4009,6.2247 -3.4808,8.4235 z m 0.7297,0.7434 c 2.1735,-2.2927 3.5432,-5.3875 3.6369,-8.7991 h 2.6457 c -0.0936,4.155 -1.7599,7.9227 -4.4095,10.7044 z m -15.9134,-2.6136 c -0.1913,-0.1995 -0.3747,-0.4108 -0.5464,-0.6299 l 0.082,-0.6807 -0.281,-0.6573 -0.0663,-1.0251 -0.3122,-0.6221 0.0663,-0.3873 -0.3785,-0.7394 -0.3278,-0.1683 0.1327,-0.3912 -0.1366,-0.313 0.1366,-0.3561 h 0.3629 l 0.1288,-0.2151 h 0.6165 l 0.0976,0.1878 -0.1171,0.6416 -0.0741,0.1095 0.2341,0.5165 -0.1522,0.0861 -0.1053,-0.137 -0.0429,0.0509 0.1053,0.3052 0.1795,0.356 0.0859,-0.0078 0.0507,-0.3209 -0.0898,-0.1173 -0.0078,-0.2152 -0.0273,-0.446 0.1288,-0.7903 -0.1249,-0.2152 h 0.4449 c 0.0858,1.6549 0.7648,3.1495 1.8184,4.2763 z m -1.7483,-5.2779 -0.2497,0.3991 h -0.4293 l -0.0312,-0.0274 c -0.0741,-0.4186 -0.1209,-0.8451 -0.1366,-1.2833 h 0.7961 l -0.1912,0.6495 z m 0.8702,-1.8505 0.0508,-0.5361 0.3122,-0.1838 0.5619,0.1017 0.0858,0.1017 c -0.0468,0.3013 -0.078,0.6143 -0.0858,0.9273 H 16.05 Z m 2.6809,2.0149 0.1327,-0.0665 0.3473,0.266 -0.1522,0.1252 0.3863,0.2621 -0.0234,-0.2856 0.2068,-0.3482 0.2185,0.2348 0.2225,0.3247 -0.402,0.09 0.1834,0.3678 0.281,-0.1487 -0.0351,-0.1174 0.2068,-0.1447 0.1249,-0.5869 c 0.1522,0.3482 0.359,0.669 0.6087,0.9468 l -1.8691,1.9054 c -0.8937,-0.9547 -1.4868,-2.1988 -1.6351,-3.5799 l 0.3824,0.4147 0.359,-0.0078 z m -1.9121,-7.87189 1.8692,1.90539 c -0.3903,0.4382 -0.7258,0.9272 -0.9912,1.4593 l -0.1327,-0.0078 -0.2614,0.0822 -0.0898,-0.0079 -0.2809,0.2661 0.3551,-0.0587 0.316,-0.0822 c -0.0195,0.0431 -0.039,0.0822 -0.0546,0.1252 l -0.277,0.1761 h -0.1327 l -0.4137,0.3208 -0.3941,-0.0352 -0.5775,1.0916 0.117,0.2191 -0.3121,0.3521 -0.0469,0.4578 h -1.1824 c 0.0391,-2.414 0.9756,-4.6167 2.4897,-6.26389 z m -2.4155,14.39389 0.5931,0.3521 0.121,0.0861 -0.4292,0.4382 c -0.203,-0.2113 -0.3942,-0.4304 -0.5815,-0.6573 z m -0.5932,-7.594 c 0.0078,0.2621 0.0313,0.5203 0.0586,0.7785 l -0.3239,0.0744 -0.0663,0.3364 -0.6751,0.8725 0.0156,1.2051 -0.6907,0.2347 -0.3786,0.0039 c -0.3512,-1.1111 -0.5541,-2.2849 -0.5892,-3.5055 z m -2.6106,3.4899 -0.1561,-0.0313 -0.1482,-0.1683 -0.7414797,-0.0665 0.2302797,0.3208 -0.6868397,-0.133 0.1795,-0.1682 -0.1678,-0.1683 -0.49558,0.2191 -0.17951,0.3365 0.07024,0.7668 0.56973,1.3929 0.27707,0.4382 0.15608,0.0587 -0.43315,-0.8373 -0.09365,-0.4265 0.09755,-0.1056 -0.05853,-0.2347 0.25755,0.0352 0.39803,0.6142 0.1015097,0.0431 -0.0118,-0.45 0.16,0.0939 0.0352,0.2465 0.4214,0.1135 0.1756,-0.1291 0.0624,0.043 -0.0078,0.3286 0.1834,0.2309 0.2225,0.0508 0.4917,0.8451 0.2965,0.0861 0.0937,-0.3952 c 0.5151,0.8725 1.1277,1.6746 1.8223,2.4023 l -1.8691,1.9054 c -2.6769997,-2.7857 -4.3627797,-6.573 -4.4564297,-10.7515 H 10.3488 c 0.0312,1.2129 0.2263,2.3866 0.558,3.4939 z m 1.1395,-14.85561 1.8692,1.90536 c -2.1775,2.33182 -3.5277,5.47355 -3.5706,8.92825 H 7.7030703 c 0.03902,-4.202 1.68578,-8.01665 4.3432297,-10.83361 z m 19.1406,-0.98595 -0.16,-0.26212 -0.3434,-0.17607 -0.2693,0.21128 0.3434,0.18779 0.3864,0.28561 z m -1.6038,7.61366 0.0117,0.2073 0.4565,-0.1408 0.1405,-0.2856 -0.3161,-0.4226 0.1678,-0.2582 0.4293,0.3091 0.078,-0.0626 -0.0858,-0.0626 -0.0976,-0.1878 0.1756,-0.1056 -0.1717,-0.2309 -0.398,0.2074 -0.1405,0.2465 -0.0819,0.223 0.1756,0.3012 -0.0664,0.1409 z m -19.1172,12.1012 0.0312,-0.1213 -0.238,-0.5282 -0.2810097,-0.1056 z m 10.8092,-10.1411 c 0,0.4539 0.2693,0.7708 0.761,1.0485 0,0 0,-0.0782 -0.0039,-0.1995 l -0.3083,-0.3169 0.1639,-0.3013 0.1327,-0.0391 c -0.0117,-0.5282 -0.0195,-1.1189 -0.0234,-1.2011 l -0.0235,0.0039 c -0.4487,0.2504 -0.6985,0.5634 -0.6985,1.0055 z"
       fill="#1e7fb8"
       id="path273305" />
    <path
       d="m 24.229153,56.135747 c 0.82728,0.42646 1.59603,1.01723 1.91601,2.14402 0.14048,-1.85842 -0.88191,-2.664377 -1.892597,-3.208207 z"
       fill="#1e7fb8"
       id="path273307" />
    <path
       d="m 29.743053,37.281527 c 0,-1.69018 -1.2019,-3.560331 -4.1403,-4.221535 -0.21853,-0.04695 -0.55022,-0.08216 -0.89752,-0.105632 -0.0039,0.254309 -0.01951,0.837258 -0.01951,0.837258 -0.0039,0.183889 -0.01951,0.856829 -0.02342,1.005499 0.26926,0.02348 0.47218,0.05869 0.56583,0.08216 1.70919,0.41863 2.31795,1.41632 2.31795,2.40617 0,1.60019 -1.34238,2.20662 -2.99304,2.66438 -0.1795,0.05086 -0.36291,0.09781 -0.54632,0.14476 -0.49949,0.1252 -1.01849,0.25039 -1.52578,0.39124 -0.18341,0.05086 -0.36291,0.10172 -0.54242,0.1565 -1.83016,0.5673 -3.402769,1.46717 -3.402769,3.77553 0,2.2849 1.795039,3.1378 3.543249,3.6894 -0.0117,-0.6573 -0.02341,-1.3185 -0.03902,-1.9797 -0.77265,-0.3677 -1.31896,-0.8568 -1.31896,-1.6784 0,-0.8021 0.49559,-1.2833 1.25653,-1.63543 0.1678,-0.07824 0.3473,-0.14866 0.54241,-0.21518 0.43706,-0.15258 0.92484,-0.27778 1.43994,-0.40689 0.1795,-0.04304 0.36291,-0.08999 0.54631,-0.13694 2.47404,-0.61034 5.23684,-1.40065 5.23684,-4.77319 z"
       fill="#1e7fb8"
       id="path273309" />
    <path
       d="m 20.884923,53.393187 c 0.0039,0.92334 0.667286,1.42805 1.33457,1.80755 -0.0039,-0.15649 -0.02731,-1.58453 -0.03121,-1.60801 0.01561,-0.28561 0.28486,-0.45384 0.50339,-0.55948 0.31998,-0.15649 0.64387,-0.26605 1.06141,-0.41081 0.19512,-0.07043 0.36682,-0.13694 0.55412,-0.19562 1.33848,-0.41081 2.88378,-0.93507 2.88378,-2.59787 0,-1.66279 -1.32677,-2.343561 -2.77841,-2.856092 -0.01171,0.532093 -0.02732,1.302842 -0.03513,1.834942 0.61266,0.24648 1.0185,0.54383 1.0185,1.01724 0,0.59469 -0.62046,0.93507 -1.06532,1.11113 -0.18341,0.07434 -0.46437,0.16824 -0.54242,0.19171 -0.3551,0.11346 -0.73753,0.24257 -1.09653,0.37951 -0.18731,0.07042 -0.37072,0.14868 -0.54242,0.23866 -0.620458,0.32474 -1.272135,0.80597 -1.26433,1.64714 z"
       fill="#1e7fb8"
       id="path273311" />
    <path
       d="m 21.790213,33.216554 c -0.88971,0.258221 -1.41261,0.602525 -1.61163,0.669037 -0.57753,0.195623 -1.3892,0.230835 -2.22819,1.161996 -0.14829,0.16433 -0.5151,0.63381 -0.77265,1.01723 -0.25365,0.37168 -0.26536,0.9703 -0.44876,1.29112 -0.26926,0.46558 -0.20682,0.73162 -0.20682,0.73162 l 0.0078,0.01566 c -0.0078,0.05868 -0.06243,0.30516 -0.30827,0.58295 -0.280968,0.31691 -0.651684,0.49296 -1.09264,0.42254 0.382422,0.19562 0.913131,-0.07824 0.913131,-0.07824 0,0 -0.10146,0.29342 -0.202919,0.77465 0.429248,-0.99376 0.823378,-1.3537 0.948248,-1.45543 0.18341,0.04304 0.56583,0.02739 1.27604,-0.39124 0.80387,-0.4695 2.00967,-1.23634 2.34917,-1.72148 0.36681,-0.52427 0.8741,-0.86856 1.42042,-1.09157 -0.01561,-0.73162 -0.03122,-1.381101 -0.04293,-1.928843 z m -3.38716,3.094753 -0.41364,0.0939 0.49559,-0.82553 0.58144,0.01956 z"
       fill="#1e7fb8"
       id="path273313" />
    <path
       d="m 23.444864,53.279676 c -0.07804,0.02739 -0.277061,0.117375 -0.405836,0.160412 -0.132677,0.05086 -0.304376,0.121284 -0.304376,0.168233 0,0.01174 0.128775,7.155876 0.128775,7.312376 0,1.47108 0.733625,1.4789 0.733625,0 0,-0.10564 0.148291,-7.742736 0.148291,-7.742736 0,0 -0.175607,0.05477 -0.300479,0.101715 z"
       fill="#1e7fb8"
       id="path273315" />
    <path
       d="m 22.68774,50.920417 c 0.230234,-0.08216 0.456565,-0.15259 0.667287,-0.2191 0.159993,-0.05086 0.308276,-0.0978 0.444856,-0.14084 0.0078,-0.44993 0.13268,-6.66682 0.15609,-7.797514 -0.546314,0.136936 -1.022392,0.26995 -1.416521,0.418623 0.01561,0.845091 0.132679,7.061971 0.148288,7.738831 z"
       fill="#1e7fb8"
       id="path273317" />
    <path
       d="m 23.296603,27.113257 c -2.060396,0 -1.186289,3.12214 -1.022394,4.13937 0.0078,0.04695 0.167798,7.05023 0.199016,8.65823 0.312181,-0.0821 0.624368,-0.1643 0.924838,-0.2386 0.21462,-0.0548 0.42535,-0.1057 0.62436,-0.1604 0.03122,-1.5455 0.18341,-8.22793 0.18731,-8.27488 0.12487,-1.08766 1.2058,-4.12372 -0.91313,-4.12372 z"
       fill="#1e7fb8"
       id="path273319" />
    <path
       d="m 58.167173,37.058767 h -0.03122 l -1.74821,9.73419 h -2.39599 l -2.2399,-11.874301 h 1.90431 l 1.557,9.151231 h 0.03121 l 1.66627,-9.151231 h 2.47794 l 1.65066,9.151231 h 0.03122 l 1.61939,-9.151231 h 1.8419 l -2.2867,11.874301 h -2.42722 z"
       fill="#1e7fb8"
       id="path273321" />
    <path
       d="m 67.915043,37.896262 c 1.66627,0 3.59008,0.935071 3.59008,4.507135 0,3.6738 -1.92381,4.52671 -3.59008,4.52671 -1.66627,0 -3.605687,-0.849 -3.605687,-4.52671 0.0039,-3.572064 1.939417,-4.507135 3.605687,-4.507135 z m 0,7.535375 c 1.26824,0 1.55701,-1.56498 1.55701,-3.02824 0,-1.46325 -0.28487,-3.01259 -1.55701,-3.01259 -1.27214,0 -1.57261,1.54934 -1.57261,3.01259 0,1.46326 0.30437,3.02824 1.57261,3.02824 z"
       fill="#1e7fb8"
       id="path273323" />
    <path
       d="m 72.726489,39.476887 c 0,-0.54383 -0.01561,-1.052446 -0.06244,-1.447603 h 1.779442 c 0.0156,0.528181 0.06633,1.072013 0.06633,1.600193 h 0.03122 c 0.23804,-0.68077 0.85849,-1.733215 2.0799,-1.733215 0.12878,0 0.22244,0.0352 0.3356,0.05085 v 1.971883 c -0.1756,-0.05087 -0.3512,-0.08608 -0.55802,-0.08608 -0.80777,0 -1.69749,0.52819 -1.69749,2.15968 v 4.79666 h -1.970644 v -7.31237 z"
       fill="#1e7fb8"
       id="path273325" />
    <path
       d="m 80.160293,34.034452 h -1.970634 v 12.758505 h 1.970634 z"
       fill="#1e7fb8"
       id="path273327" />
    <path
       d="m 88.374673,34.034465 v 11.259992 c 0,0.6299 0.01561,1.1738 0.06244,1.4985 h -1.84187 c -0.03122,-0.2543 -0.06244,-0.7668 -0.06244,-1.3615 h -0.04683 c -0.31608,0.7473 -0.90532,1.4945 -2.17356,1.4945 -2.033079,0 -2.87206,-2.0775 -2.87206,-4.5071 0,-2.85609 1.06531,-4.52671 2.82524,-4.52671 1.17458,0 1.82626,0.71207 2.11112,1.39675 h 0.03123 V 34.03056 h 1.96673 z m -3.52374,11.346092 c 1.15897,0 1.55701,-1.342 1.55701,-2.99301 0,-1.70191 -0.44486,-2.94216 -1.52579,-2.94216 -1.09654,0 -1.47896,1.13852 -1.47896,2.8913 0,2.02277 0.30437,3.04387 1.44774,3.04387 z"
       fill="#1e7fb8"
       id="path273329" />
    <path
       d="m 94.860159,34.918656 h 2.033074 v 4.827961 h 3.285697 v -4.827961 h 2.03309 v 11.874301 h -2.03309 v -5.24269 h -3.285697 v 5.24269 h -2.033074 z"
       fill="#1e7fb8"
       id="path273331" />
    <path
       d="m 109.75155,46.366227 c -0.41364,0.1878 -1.27213,0.55948 -2.4428,0.55948 -2.63794,0 -3.7774,-2.02274 -3.7774,-4.38977 0,-2.62134 1.28775,-4.644079 3.36376,-4.644079 1.76382,0 3.27008,1.107219 3.27008,4.679289 v 0.4069 h -4.72954 c 0,1.49847 0.55413,2.39833 2.07991,2.39833 1.2058,0 1.77943,-0.39125 2.14234,-0.68077 z m -1.49065,-4.71059 c 0,-1.54933 -0.47608,-2.33182 -1.36579,-2.33182 -1.0302,0 -1.45946,1.17373 -1.45946,2.33182 z"
       fill="#1e7fb8"
       id="path273333" />
    <path
       d="m 111.92864,38.541814 c 0.55411,-0.273872 1.33457,-0.645552 2.58719,-0.645552 2.54038,0 3.12571,1.326325 3.12571,3.521205 v 3.82638 c 0,0.6299 0.0624,1.20894 0.11317,1.54933 h -1.77943 c -0.0976,-0.34039 -0.10927,-0.76685 -0.10927,-1.18939 h -0.0312 c -0.49168,0.71598 -1.11215,1.32632 -2.28673,1.32632 -1.27214,0 -2.44671,-0.93507 -2.44671,-2.56656 0,-2.38269 1.81064,-2.97739 4.30419,-2.97739 h 0.39803 v -0.32082 c 0,-0.86856 -0.39804,-1.6667 -1.52579,-1.6667 -0.98337,0 -1.85747,0.50862 -2.23989,0.849 z m 3.87103,3.963313 h -0.17559 c -1.68188,0 -2.68476,0.3756 -2.68476,1.65106 0,0.79814 0.49168,1.34588 1.25653,1.34588 1.17458,0 1.60382,-0.93508 1.60382,-2.50006 z"
       fill="#1e7fb8"
       id="path273335" />
    <path
       d="m 121.552,34.034452 h -1.97065 v 12.758505 h 1.97065 z"
       fill="#1e7fb8"
       id="path273337" />
    <path
       d="m 124.0098,36.225409 1.97065,-0.645552 v 2.4492 h 1.63504 v 1.54933 h -1.63504 v 4.54235 c 0,0.93507 0.31609,1.20896 0.88972,1.20896 0.3512,0 0.60484,-0.10173 0.74532,-0.18781 v 1.49847 c -0.30047,0.1526 -0.72971,0.2895 -1.31895,0.2895 -1.45945,0 -2.28674,-0.716 -2.28674,-2.5509 v -4.80057 h -1.29944 v -1.54933 h 1.29944 z"
       fill="#1e7fb8"
       id="path273339" />
    <path
       d="m 128.63025,34.034452 h 1.96674 v 5.121405 h 0.0468 c 0.3473,-0.54383 0.80776,-1.25981 2.03308,-1.25981 1.85747,0 2.4116,1.47891 2.4116,3.24733 v 5.64958 h -1.97065 v -5.25833 c 0,-1.34197 -0.31607,-1.90536 -1.12775,-1.90536 -1.0341,0 -1.39701,0.93508 -1.39701,2.05795 v 5.10184 h -1.96673 V 34.034452 Z"
       fill="#1e7fb8"
       id="path273341" />
    <path
       d="m 56.087313,49.950461 c 2.30234,0 4.41346,1.838846 4.41346,6.107336 0,4.26846 -2.11112,6.10736 -4.41346,6.10736 -2.30234,0 -4.413459,-1.8389 -4.413459,-6.10736 0,-4.26849 2.111119,-6.107336 4.413459,-6.107336 z m 0,10.547996 c 1.28384,0 2.31795,-1.17377 2.31795,-4.44066 0,-3.2669 -1.0302,-4.44064 -2.31795,-4.44064 -1.28775,0 -2.31795,1.17374 -2.31795,4.44064 0,3.26689 1.0302,4.44066 2.31795,4.44066 z"
       fill="#1e7fb8"
       id="path273343" />
    <path
       d="m 61.827492,54.680487 c 0,-0.54383 -0.01561,-1.052448 -0.06244,-1.443693 h 1.779429 c 0.01561,0.528181 0.06244,1.072013 0.06244,1.600193 h 0.03122 c 0.23804,-0.68077 0.8585,-1.737131 2.07991,-1.737131 0.12877,0 0.22242,0.03521 0.33169,0.05086 v 1.975787 c -0.17561,-0.05087 -0.34731,-0.08608 -0.55413,-0.08608 -0.80776,0 -1.69748,0.52819 -1.69748,2.15968 v 4.79666 H 61.83139 v -7.31628 z"
       fill="#1e7fb8"
       id="path273345" />
    <path
       d="m 67.271128,63.358357 c 0.460467,0.2738 1.381405,0.7472 2.415505,0.7472 1.85748,0 2.15795,-1.37714 2.15795,-2.75823 v -0.83336 h -0.03122 c -0.31608,0.68077 -0.87411,1.47891 -2.15795,1.47891 -1.14336,0 -2.856461,-0.8177 -2.856461,-4.35456 0,-2.41398 0.811673,-4.542364 2.954021,-4.542364 1.19019,0 1.74821,0.731634 2.16185,1.498474 h 0.06244 c 0,-0.46167 0.04682,-0.899867 0.06243,-1.361537 h 1.77943 c -0.03121,0.457757 -0.06243,0.919437 -0.06243,1.377187 v 6.46337 c 0,2.73871 -0.77655,4.69491 -3.77739,4.69491 -1.30336,0 -2.333561,-0.356 -2.809638,-0.5438 z m 3.063275,-2.9109 c 1.23702,0 1.72871,-0.95073 1.72871,-2.94216 0,-1.83886 -0.65169,-2.8248 -1.58823,-2.80524 -1.0302,0.01565 -1.42822,1.0368 -1.42822,2.82479 0,2.05404 0.62045,2.92261 1.28774,2.92261 z"
       fill="#1e7fb8"
       id="path273347" />
    <path
       d="m 75.879533,53.745408 c 0.55802,-0.273871 1.33458,-0.645552 2.5872,-0.645552 2.54038,0 3.12961,1.326321 3.12961,3.521211 v 3.82637 c 0,0.62991 0.06244,1.20895 0.10927,1.54933 h -1.77943 c -0.09366,-0.34038 -0.11317,-0.76683 -0.11317,-1.18938 h -0.03122 c -0.49168,0.71598 -1.11214,1.32632 -2.28672,1.32632 -1.26823,0 -2.442818,-0.93508 -2.442818,-2.57048 0,-2.38269 1.810648,-2.97738 4.304198,-2.97738 h 0.39803 v -0.32082 c 0,-0.86856 -0.39804,-1.6667 -1.52579,-1.6667 -0.98337,0 -1.85748,0.50862 -2.239897,0.85292 z m 3.87105,3.963319 h -0.17561 c -1.68187,0 -2.68476,0.37559 -2.68476,1.65105 0,0.79814 0.49169,1.34197 1.25263,1.34197 1.17458,0 1.60384,-0.93507 1.60384,-2.50005 v -0.49297 z"
       fill="#1e7fb8"
       id="path273349" />
    <path
       d="m 83.578694,54.680477 c 0,-0.54383 -0.01561,-1.05245 -0.06244,-1.443695 h 1.841867 c 0.01561,0.442107 0.06244,0.899865 0.06244,1.345885 h 0.04682 -0.01561 c 0.28487,-0.528182 0.84289,-1.478907 2.17746,-1.478907 1.85748,0 2.41161,1.478907 2.41161,3.251247 v 5.64958 h -1.97065 v -5.25442 c 0,-1.34588 -0.31608,-1.90537 -1.12775,-1.90537 -1.0341,0 -1.39702,0.93508 -1.39702,2.05795 v 5.10184 h -1.966729 z"
       fill="#1e7fb8"
       id="path273351" />
    <path
       d="m 91.816452,49.508059 h 2.033081 v 2.077508 h -2.033081 z m 0.03123,3.728568 h 1.970636 v 8.75993 h -1.970636 z"
       fill="#1e7fb8"
       id="path273353" />
    <path
       d="m 95.648455,60.177247 3.492518,-5.34441 h -3.383256 v -1.596278 h 5.350003 v 1.803638 l -3.426187,5.35614 h 3.539347 v 1.60019 h -5.572425 z"
       fill="#1e7fb8"
       id="path273355" />
    <path
       d="m 103.08253,53.745408 c 0.55412,-0.273871 1.33458,-0.645552 2.5872,-0.645552 2.54038,0 3.12572,1.326321 3.12572,3.521211 v 3.82637 c 0,0.62991 0.0624,1.20895 0.11317,1.54933 h -1.77945 c -0.0975,-0.34038 -0.11315,-0.76683 -0.11315,-1.18938 h -0.0312 c -0.49168,0.71598 -1.11214,1.32632 -2.28672,1.32632 -1.27214,0 -2.44672,-0.93508 -2.44672,-2.57048 0,-2.38269 1.81065,-2.97738 4.3003,-2.97738 h 0.39802 v -0.32082 c 0,-0.86856 -0.39803,-1.6667 -1.52578,-1.6667 -0.98337,0 -1.85748,0.50862 -2.23989,0.85292 z m 3.87496,3.963319 h -0.17561 c -1.68188,0 -2.68476,0.37559 -2.68476,1.65105 0,0.79814 0.49168,1.34197 1.25262,1.34197 1.17458,0 1.60384,-0.93507 1.60384,-2.50005 v -0.49297 z"
       fill="#1e7fb8"
       id="path273357" />
    <path
       d="m 111.06261,51.432907 1.96674,-0.645552 v 2.449202 h 1.63505 v 1.54932 h -1.63505 v 4.54237 c 0,0.93507 0.31609,1.20503 0.88972,1.20503 0.3512,0 0.60485,-0.10173 0.74533,-0.1878 v 1.49848 c -0.30047,0.1526 -0.72972,0.2895 -1.31896,0.2895 -1.45945,0 -2.28674,-0.716 -2.28674,-2.55091 v -4.79667 h -1.30335 v -1.54932 h 1.30335 v -1.80365 z"
       fill="#1e7fb8"
       id="path273359" />
    <path
       d="m 116.01835,49.508059 h 2.03308 v 2.077508 h -2.03308 z m 0.25365,3.728568 h 1.97064 v 8.75993 H 116.272 Z"
       fill="#1e7fb8"
       id="path273361" />
    <path
       d="m 123.35104,53.099856 c 1.66627,0 3.58618,0.935071 3.58618,4.507141 0,3.67379 -1.91991,4.52671 -3.58618,4.52671 -1.66627,0 -3.60569,-0.84901 -3.60569,-4.52671 0.004,-3.57207 1.93942,-4.507141 3.60569,-4.507141 z m 0,7.535381 c 1.26824,0 1.55701,-1.56498 1.55701,-3.02824 0,-1.46326 -0.28487,-3.01258 -1.55701,-3.01258 -1.27214,0 -1.57261,1.54932 -1.57261,3.01258 0.004,1.46326 0.30437,3.02824 1.57261,3.02824 z"
       fill="#1e7fb8"
       id="path273363" />
    <path
       d="m 128.65369,54.680477 c 0,-0.54383 -0.0156,-1.05245 -0.0663,-1.443695 h 1.84186 c 0.0156,0.442107 0.0663,0.899865 0.0663,1.345885 h 0.0468 -0.0156 c 0.28486,-0.528182 0.83898,-1.478907 2.17355,-1.478907 1.85748,0 2.4155,1.478907 2.4155,3.251247 v 5.64958 h -1.96673 v -5.25442 c 0,-1.34588 -0.31999,-1.90537 -1.12776,-1.90537 -1.0302,0 -1.397,0.93508 -1.397,2.05795 v 5.10184 h -1.96675 v -7.32411 z"
       fill="#1e7fb8"
       id="path273365" />
    <path
       d="M 283.53498,19.91436 H 0.4799813 v 0.78249 H 283.53498 Z"
       fill="#1e7fb8"
       id="path273367" />
    <path
       d="m 280.92408,13.541001 h 2.611 V 8.9360414 c 0,-1.2246 0.581,-2.13229 1.42,-2.13229 0.304,0 0.667,0.05478 0.784,0.10564 v -2.78958 c -0.16,-0.03521 -0.246,-0.05477 -0.433,-0.05477 -1.249,0 -1.713,1.02897 -1.928,1.7606 h -0.027 c 0,-0.51644 -0.016,-1.17373 -0.058,-1.54542 h -2.451 c 0.043,0.42646 0.086,1.36936 0.086,2.68394 v 6.5768396 z m -5.553,-5.4187496 c 0,-1.27937 0.433,-2.09707 1.175,-2.09707 0.784,0 1.057,0.58686 1.057,1.83102 v 0.26605 z m 4.612,1.67062 v -0.90769 c 0,-2.52353 -1.116,-4.81623 -3.48,-4.81623 -2.279,0 -3.509,2.25749 -3.509,4.79667 0,2.3826796 0.886,4.9061796 3.946,4.8866796 1.057,-0.0196 2.017,-0.2856 2.642,-0.5321 l -0.059,-2.2223 c -0.64,0.3365 -1.495,0.7277 -2.205,0.7277 -0.971,0 -1.814,-0.446 -1.885,-1.9366496 h 4.55 z m -7.601,-5.2779 c -0.305,-0.14085 -0.929,-0.44602 -2.029,-0.44602 -2.755,0 -3.758,2.32791 -3.758,4.85144 0,2.5235096 1.003,4.8358096 3.758,4.8358096 0.608,0 1.713,-0.2504 2.103,-0.4812 l -0.074,-2.3084 c -0.16,0.1056 -0.812,0.4069 -1.452,0.4069 -1.276,0 -1.666,-1.0681 -1.666,-2.4531096 0,-1.74104 0.753,-2.46876 1.713,-2.46876 0.566,0 1.003,0.2504 1.276,0.39125 z m -13.603,9.0260296 h 2.61 V 8.4587214 c 0,-0.95855 0.289,-1.79582 0.945,-1.79582 0.491,0 0.71,0.42646 0.71,1.31459 v 5.5635096 h 2.61 V 7.0541514 c 0,-2.0423 -1.003,-2.9852 -2.29,-2.9852 -1.479,0 -1.987,1.25981 -2.131,1.76061 h -0.027 c 0,-0.51645 -0.016,-1.17374 -0.059,-1.54543 h -2.45 c 0.043,0.42646 0.085,1.18939 0.085,1.88581 v 7.3710596 z m -3.45,-4.1745896 c 0,0.8724896 -0.133,2.3630896 -1.335,2.3630896 -0.538,0 -0.897,-0.3208 -0.897,-1.1385 0,-1.0837396 0.769,-1.5297596 1.928,-1.5297596 h 0.304 z m 2.322,-1.86624 c 0,-1.90145 -0.523,-3.43122 -3.177,-3.43122 -1.26,0 -2.204,0.32082 -2.829,0.60252 l 0.086,2.29269 c 0.55,-0.42645 1.362,-0.87247 2.178,-0.87247 1.03,0 1.42,0.67685 1.42,1.26372 v 0.28561 h -0.667 c -2.627,0 -3.887,1.10331 -3.887,3.1651796 0,1.7762 0.956,2.95 2.291,2.95 0.913,0 1.51,-0.4617 2.263,-1.4946 0,0.4265 0.058,0.8529 0.086,1.2794 h 2.322 c -0.043,-0.5517 -0.086,-1.2989 -0.086,-2.0423 z m -7.586,2.8952296 c -0.262,0.2152 -0.972,0.6925 -1.944,0.6925 -1.713,0 -2.669,-1.6354096 -2.669,-3.7676996 0,-2.4179 0.812,-3.8029 2.552,-3.8029 0.855,0 1.655,0.48122 1.975,0.71206 l 0.144,-2.73872 c -0.246,-0.1252 -1.131,-0.56730197 -2.45,-0.56730197 -3.321,0 -5.034,2.66438197 -5.034,6.32643197 0,4.3545296 2.103,6.5064296 5.045,6.5064296 0.769,0 1.639,-0.1604 2.494,-0.4812 z m -18.754,3.1456 h 2.61 V 8.4587214 c 0,-0.95855 0.289,-1.79582 0.944,-1.79582 0.492,0 0.711,0.42646 0.711,1.31459 v 5.5635096 h 2.61 V 7.0541514 c 0,-2.0423 -1.003,-2.9852 -2.29,-2.9852 -1.479,0 -1.987,1.25981 -2.131,1.76061 h -0.027 c 0,-0.51645 -0.016,-1.17374 -0.059,-1.54543 h -2.45 c 0.042,0.42646 0.085,1.18939 0.085,1.88581 v 7.3710596 z m -8.453,-4.6206096 c 0,2.5235096 1.003,4.8358096 3.758,4.8358096 2.755,0 3.758,-2.3123 3.758,-4.8358096 0,-2.52353 -1.003,-4.85144 -3.758,-4.85144 -2.759,0 -3.758,2.32791 -3.758,4.85144 z m 2.728,0 c 0,-1.3498 0.144,-2.68394 1.03,-2.68394 0.886,0 1.03,1.33414 1.03,2.68394 0,1.3498096 -0.144,2.6644096 -1.03,2.6644096 -0.886,0.0039 -1.03,-1.3107 -1.03,-2.6644096 z m -13.982,4.6206096 h 2.611 V 8.4587214 c 0,-0.95855 0.288,-1.79582 0.944,-1.79582 0.492,0 0.71,0.42646 0.71,1.31459 v 5.5635096 h 2.611 V 7.0541514 c 0,-2.0423 -1.003,-2.9852 -2.291,-2.9852 -0.886,0 -1.553,0.44602 -1.986,1.38501 h -0.043 c 0.027,-0.33647 0.059,-0.76293 0.059,-1.13853 V 0.21127543 h -2.611 V 13.541001 Z m -0.796,-9.0260296 c -0.304,-0.14085 -0.929,-0.44602 -2.029,-0.44602 -2.755,0 -3.758,2.32791 -3.758,4.85144 0,2.5235096 0.999,4.8358096 3.758,4.8358096 0.609,0 1.713,-0.2504 2.103,-0.4812 l -0.07,-2.3084 c -0.16,0.1056 -0.812,0.4069 -1.452,0.4069 -1.276,0 -1.666,-1.0681 -1.666,-2.4531096 0,-1.74104 0.753,-2.46876 1.713,-2.46876 0.566,0 1.003,0.2504 1.276,0.39125 z m -11.184,9.0260296 h 2.611 V 8.9360414 c 0,-1.2246 0.581,-2.13229 1.42,-2.13229 0.305,0 0.667,0.05478 0.785,0.10564 v -2.78958 c -0.16,-0.03521 -0.246,-0.05477 -0.434,-0.05477 -1.248,0 -1.713,1.02897 -1.927,1.7606 h -0.028 c 0,-0.51644 -0.015,-1.17373 -0.058,-1.54542 h -2.451 c 0.043,0.42646 0.086,1.36936 0.086,2.68394 v 6.5768396 z m -3.449,-4.1745896 c 0,0.8724896 -0.133,2.3630896 -1.335,2.3630896 -0.539,0 -0.898,-0.3208 -0.898,-1.1385 0,-1.0837396 0.769,-1.5297596 1.928,-1.5297596 h 0.305 z m 2.317,-1.86624 c 0,-1.90145 -0.522,-3.43122 -3.176,-3.43122 -1.26,0 -2.205,0.32082 -2.829,0.60252 l 0.086,2.29269 c 0.55,-0.42645 1.362,-0.87247 2.177,-0.87247 1.03,0 1.421,0.67685 1.421,1.26372 v 0.28561 h -0.668 c -2.626,0 -3.886,1.10331 -3.886,3.1651796 0,1.7762 0.956,2.95 2.29,2.95 0.913,0 1.51,-0.4617 2.264,-1.4946 0,0.4265 0.058,0.8529 0.085,1.2794 h 2.322 c -0.043,-0.5517 -0.086,-1.2989 -0.086,-2.0423 z m -12.167,0.62208 c 0,-1.27937 0.433,-2.09707 1.175,-2.09707 0.784,0 1.057,0.58686 1.057,1.83102 v 0.26605 z m 4.613,1.67062 v -0.90769 c 0,-2.52353 -1.116,-4.81623 -3.481,-4.81623 -2.279,0 -3.512,2.25749 -3.512,4.79667 0,2.3826796 0.886,4.9061796 3.945,4.8866796 1.058,-0.0196 2.018,-0.2856 2.638,-0.5321 l -0.059,-2.2223 c -0.64,0.3365 -1.494,0.7277 -2.204,0.7277 -0.972,0 -1.815,-0.446 -1.885,-1.9366496 h 4.558 z m -13.155,3.5368296 c 0.422,0.1956 1.479,0.4265 2.306,0.4265 2.233,0 3.235,-1.119 3.235,-3.04 0,-1.6158396 -0.565,-2.1674896 -1.51,-2.5939496 l -0.87,-0.39124 c -0.624,-0.28561 -0.87,-0.49689 -0.87,-0.81771 0,-0.49688 0.421,-0.67685 0.929,-0.67685 0.667,0 1.377,0.30126 1.857,0.5673 l 0.086,-2.30834 c -0.55,-0.23084 -1.319,-0.42646 -2.103,-0.42646 -2.291,0 -3.15,1.40457 -3.15,3.03997 0,1.17374 0.348,2.07752 1.554,2.61352 l 0.796,0.3560596 c 0.64,0.2856 0.842,0.4616 0.842,0.7825 0,0.4264 -0.362,0.6573 -1.073,0.6573 -0.913,0 -1.564,-0.4069 -1.97,-0.6573 z m -5.323,-5.2074496 c 0,-1.27937 0.438,-2.09707 1.175,-2.09707 0.784,0 1.058,0.58686 1.058,1.83102 v 0.26605 z m 4.613,1.67062 v -0.90769 c 0,-2.52353 -1.116,-4.81623 -3.481,-4.81623 -2.279,0 -3.508,2.25749 -3.508,4.79667 0,2.3826796 0.886,4.9061796 3.945,4.8866796 1.058,-0.0196 2.018,-0.2856 2.642,-0.5321 l -0.059,-2.2223 c -0.639,0.3365 -1.494,0.7277 -2.204,0.7277 -0.972,0 -1.815,-0.446 -1.885,-1.9366496 h 4.55 z m -10.384,3.7481296 h 2.814 l -0.914,-3.8733296 c -0.405,-1.72539 -0.784,-2.06186 -1.361,-2.2927 v -0.05477 c 0.885,-0.26605 1.943,-1.01333 1.943,-2.84436 0,-2.29269 -1.159,-3.34123 -3.204,-3.34123 h -4.047 V 13.541001 h 2.728 V 8.6895614 h 0.145 c 0.437,0 0.885,0.14085 1.147,1.3341396 z m -2.162,-7.2302096 v -2.78958 h 0.753 c 0.8,0 1.159,0.60252 1.159,1.45934 0,0.79814 -0.538,1.33415 -1.116,1.33415 h -0.796 z m -11.816,7.2302096 h 2.611 V 8.9360414 c 0,-1.2246 0.581,-2.13229 1.42,-2.13229 0.305,0 0.667,0.05478 0.785,0.10564 v -2.78958 c -0.16,-0.03521 -0.246,-0.05477 -0.438,-0.05477 -1.248,0 -1.713,1.02897 -1.927,1.7606 h -0.028 c 0,-0.51644 -0.015,-1.17373 -0.058,-1.54542 h -2.451 c 0.043,0.42646 0.086,1.36936 0.086,2.68394 z m -8.456,-4.6206096 c 0,2.5235096 1.003,4.8358096 3.758,4.8358096 2.755,0 3.758,-2.3123 3.758,-4.8358096 0,-2.52353 -0.999,-4.85144 -3.758,-4.85144 -2.759,0 -3.758,2.32791 -3.758,4.85144 z m 2.728,0 c 0,-1.3498 0.144,-2.68394 1.03,-2.68394 0.886,0 1.03,1.33414 1.03,2.68394 0,1.3498096 -0.144,2.6644096 -1.03,2.6644096 -0.886,0 -1.03,-1.3107 -1.03,-2.6644096 z m -7.11,4.6206096 h 2.61 V 6.4516314 h 1.421 v -2.1675 h -1.421 v -0.76292 c 0,-0.81771 0.277,-1.20895 0.871,-1.20895 0.304,0 0.507,0.10563 0.667,0.17606 l 0.058,-2.27313497 C 143.79108,0.14476143 143.28308,0 142.38208,0 c -1.522,0 -2.509,0.81770143 -2.509,2.9695514 v 1.31458 h -1.335 v 2.1675 h 1.335 z m -12.573,-9.2568696 2.77,9.2607696 c 0,0.8725 -0.437,1.4946 -1.233,1.4946 -0.261,0 -0.449,-0.0705 -0.695,-0.1604 l -0.074,2.3083 c 0.277,0.1056 0.726,0.3013 1.452,0.3013 1.815,0 2.408,-1.3146 2.845,-2.8796 l 2.829,-10.3249696 h -2.537 l -1.248,5.8999696 h -0.028 l -1.35,-5.8999696 z m -0.157,0.23084 c -0.304,-0.14085 -0.928,-0.44602 -2.029,-0.44602 -2.755,0 -3.758,2.32791 -3.758,4.85144 0,2.5235096 1.003,4.8358096 3.758,4.8358096 0.609,0 1.713,-0.2504 2.104,-0.4812 l -0.075,-2.3084 c -0.16,0.1056 -0.811,0.4069 -1.451,0.4069 -1.276,0 -1.666,-1.0681 -1.666,-2.4531096 0,-1.74104 0.753,-2.46876 1.713,-2.46876 0.565,0 1.003,0.2504 1.276,0.39125 z m -13.607,9.0260296 h 2.611 V 8.4587214 c 0,-0.95855 0.289,-1.79582 0.944,-1.79582 0.492,0 0.71,0.42646 0.71,1.31459 v 5.5635096 h 2.611 V 7.0541514 c 0,-2.0423 -0.999,-2.9852 -2.291,-2.9852 -1.479,0 -1.986,1.25981 -2.13,1.76061 h -0.027 c 0,-0.51645 -0.016,-1.17374 -0.059,-1.54543 h -2.451 c 0.043,0.42646 0.086,1.18939 0.086,1.88581 v 7.3710596 z m -5.553,-5.4187496 c 0,-1.27937 0.437,-2.09707 1.175,-2.09707 0.784,0 1.057,0.58686 1.057,1.83102 v 0.26605 z m 4.613,1.67062 v -0.90769 c 0,-2.52353 -1.116,-4.81623 -3.481,-4.81623 -2.279,0 -3.512,2.25749 -3.512,4.79667 0,2.3826796 0.886,4.9061796 3.945,4.8866796 1.058,-0.0196 2.018,-0.2856 2.638,-0.5321 l -0.058,-2.2223 c -0.64,0.3365 -1.495,0.7277 -2.205,0.7277 -0.972,0 -1.815,-0.446 -1.885,-1.9366496 h 4.558 z m -10.544,-0.9429 c 0,1.4945296 -0.144,2.5235296 -1.015,2.5235296 -0.8425,0 -1.0142,-1.0681 -1.0142,-2.6487296 0,-1.3498 0.2029,-2.34747 0.9562,-2.34747 0.741,0.00391 1.073,0.90769 1.073,2.47267 z m -4.335505,8.0166296 c 0.3902,0.2113 1.7131,0.6221 2.840505,0.6221 2.958,0 4.106,-1.8467 4.106,-5.1019 V 6.4516314 c 0,-0.90768 0.042,-1.61584 0.085,-2.1675 h -2.45 c -0.059,0.46167 -0.102,1.0681 -0.102,1.51021 h -0.027 c -0.332,-0.88813 -0.929,-1.72539 -2.0604,-1.72539 -1.783305,0 -2.813505,2.15185 -2.813505,4.53062 0,2.8952296 0.796,4.9414296 2.856405,4.9414296 0.9135,0 1.6665,-0.6377 2.0175,-1.831 h 0.027 v 0.6925 c 0,1.741 -0.538,2.7739 -2.0601,2.7739 -1.116005,0 -1.857505,-0.5164 -2.333505,-0.8529 z m -4.4954,-8.3374496 h -2.0019 l 1.0888,-4.87101 h 0.0273 z m 1.0458,5.0118496 h 2.8135 l -3.2193,-12.4063896 h -3.0009 l -3.3637,12.4063896 h 2.6106 l 0.6517,-2.6292 h 2.9735 z m -13.3887,0 h 2.6107 V 0.21127543 h -2.6107 z m -3.5666,-4.1745896 c 0,0.8724896 -0.1288,2.3630896 -1.3346,2.3630896 -0.5385,0 -0.8975,-0.3208 -0.8975,-1.1385 0,-1.0837396 0.7687,-1.5297596 1.9277,-1.5297596 h 0.3044 z m 2.3218,-1.86624 c 0,-1.90145 -0.5229,-3.43122 -3.1764,-3.43122 -1.2605,0 -2.2048,0.32082 -2.8292,0.60252 l 0.0859,2.29269 c 0.5502,-0.42645 1.3619,-0.87247 2.1735,-0.87247 1.0303,0 1.4205,0.67685 1.4205,1.26372 v 0.28561 h -0.6673 c -2.6262,0 -3.8867,1.10331 -3.8867,3.1651796 0,1.7762 0.9561,2.95 2.2907,2.95 0.9131,0 1.5101,-0.4617 2.2633,-1.4946 0,0.4265 0.0585,0.8529 0.0858,1.2794 h 2.3219 c -0.043,-0.5517 -0.0859,-1.2989 -0.0859,-2.0423 V 7.5001714 Z m -14.6218,6.0408296 h 2.6107 V 8.4587214 c 0,-0.95855 0.2887,-1.79582 0.9443,-1.79582 0.4917,0 0.7102,0.42646 0.7102,1.31459 v 5.5635096 h 2.6106 V 7.0541514 c 0,-2.0423 -1.0029,-2.9852 -2.2906,-2.9852 -1.479,0 -1.9863,1.25981 -2.1306,1.76061 h -0.0274 c 0,-0.51645 -0.0156,-1.17374 -0.0585,-1.54543 h -2.4506 c 0.0429,0.42646 0.0858,1.18939 0.0858,1.88581 v 7.3710596 z m -8.4523,-4.6206096 c 0,2.5235096 1.0029,4.8358096 3.7579,4.8358096 2.755,0 3.7579,-2.3123 3.7579,-4.8358096 0,-2.52353 -1.0029,-4.85144 -3.7579,-4.85144 -2.7589,0 -3.7579,2.32791 -3.7579,4.85144 z m 2.7277,0 c 0,-1.3498 0.1444,-2.68394 1.0302,-2.68394 0.8858,0 1.0302,1.33414 1.0302,2.68394 0,1.3498096 -0.1444,2.6644096 -1.0302,2.6644096 -0.8858,0.0039 -1.0302,-1.3107 -1.0302,-2.6644096 z m -6.3997,-6.04083 h 2.6106 V 0.21518643 h -2.6106 z m 0,10.6614396 h 2.6106 V 4.2802214 h -2.6106 z m -6.2358,-7.0893696 h 1.2916 v 4.5853696 c 0,1.7254 0.9873,2.7192 2.4233,2.7192 0.7532,0 1.3931,-0.1252 1.7248,-0.2152 l -0.0741,-2.1675 c -0.1171,0.09 -0.3473,0.1408 -0.6088,0.1408 -0.4643,0 -0.8545,-0.3364 -0.8545,-1.1189 V 6.4516314 h 1.4633 v -2.1675 h -1.4633 v -2.94998 l -2.6107,0.99376 v 1.95622 h -1.2916 z m -2.915,2.91478 c 0,0.8724896 -0.1288,2.3630896 -1.3346,2.3630896 -0.5385,0 -0.9014,-0.3208 -0.9014,-1.1385 0,-1.0837396 0.7687,-1.5297596 1.9277,-1.5297596 h 0.3044 v 0.30517 z m 2.3218,-1.86624 c 0,-1.90145 -0.5229,-3.43122 -3.1764,-3.43122 -1.2604,0 -2.2048,0.32082 -2.8291,0.60252 l 0.0858,2.29269 c 0.5502,-0.42645 1.3619,-0.87247 2.1775,-0.87247 1.0302,0 1.4204,0.67685 1.4204,1.26372 v 0.28561 h -0.6673 c -2.6262,0 -3.8866,1.10331 -3.8866,3.1651796 0,1.7762 0.956,2.95 2.2906,2.95 0.9131,0 1.5102,-0.4617 2.2633,-1.4946 0,0.4265 0.0585,0.8529 0.0859,1.2794 h 2.3218 c -0.0429,-0.5517 -0.0859,-1.2989 -0.0859,-2.0423 z m -14.6178,6.0408296 h 2.6106 V 8.4587214 c 0,-0.95855 0.2887,-1.79582 0.9443,-1.79582 0.4917,0 0.7102,0.42646 0.7102,1.31459 v 5.5635096 h 2.6107 V 7.0541514 c 0,-2.0423 -1.0029,-2.9852 -2.2907,-2.9852 -1.4789,0 -1.9862,1.25981 -2.1306,1.76061 h -0.0273 c 0,-0.51645 -0.0156,-1.17374 -0.0586,-1.54543 h -2.4506 c 0.0429,0.42646 0.0859,1.18939 0.0859,1.88581 v 7.3710596 z m -5.5842,0 h 2.6106 V 8.9360414 c 0,-1.2246 0.5815,-2.13229 1.4205,-2.13229 0.3043,0 0.6672,0.05478 0.7843,0.10564 v -2.78958 c -0.16,-0.03521 -0.2458,-0.05477 -0.437,-0.05477 -1.2488,0 -1.7131,1.02897 -1.9278,1.7606 h -0.0273 c 0,-0.51644 -0.0156,-1.17373 -0.0585,-1.54542 h -2.4506 c 0.0429,0.42646 0.0858,1.36936 0.0858,2.68394 z m -5.5529,-5.4187496 c 0,-1.27937 0.4371,-2.09707 1.1746,-2.09707 0.7843,0 1.0575,0.58686 1.0575,1.83102 v 0.26605 z m 4.6125,1.67062 v -0.90769 c 0,-2.52353 -1.1161,-4.81623 -3.4808,-4.81623 -2.279,0 -3.5121,2.25749 -3.5121,4.79667 0,2.3826796 0.8858,4.9061796 3.9452,4.8866796 1.0575,-0.0196 2.0175,-0.2856 2.6379,-0.5321 l -0.0585,-2.2223 c -0.64,0.3365 -1.4946,0.7277 -2.2048,0.7277 -0.9716,0 -1.8145,-0.446 -1.8848,-1.9366496 h 4.5579 z m -12.9243,-3.34124 h 1.2916 v 4.5853696 c 0,1.7254 0.9873,2.7192 2.4233,2.7192 0.7532,0 1.3931,-0.1252 1.7248,-0.2152 l -0.0741,-2.1675 c -0.1171,0.09 -0.3473,0.1408 -0.6088,0.1408 -0.4643,0 -0.8546,-0.3364 -0.8546,-1.1189 V 6.4516314 h 1.4634 v -2.1675 h -1.4634 v -2.94998 l -2.6106,0.99376 v 1.95622 h -1.2916 z M 4.5227253,13.541001 h 2.61061 V 8.4587214 c 0,-0.95855 0.28877,-1.79582 0.94435,-1.79582 0.49169,0 0.71021,0.42646 0.71021,1.31459 V 13.541001 H 11.398475 V 7.0541514 c 0,-2.0423 -1.00285,-2.9852 -2.2905897,-2.9852 -1.47896,0 -1.98625,1.25981 -2.13064,1.76061 h -0.03122 c 0,-0.51645 -0.01561,-1.17374 -0.05853,-1.54543 h -2.45062 c 0.04292,0.42646 0.08585,1.18939 0.08585,1.88581 z m -4.04664982,0 H 3.2037553 V 1.1346114 H 0.47607548 Z"
       fill="#1e7fb8"
       id="path273369" />
  </g>
</svg>
