<?xml version="1.0" encoding="UTF-8" standalone="no"?>
<!-- Generator: Adobe Illustrator 21.0.0, SVG Export Plug-In . SVG Version: 6.00 Build 0)  -->

<svg
   version="1.1"
   id="Layer_1"
   x="0px"
   y="0px"
   viewBox="0 0 329.10174 87.999999"
   xml:space="preserve"
   sodipodi:docname="ntp_logo.svg"
   width="329.10175"
   height="88"
   inkscape:version="1.1.2 (0a00cf5339, 2022-02-04)"
   xmlns:inkscape="http://www.inkscape.org/namespaces/inkscape"
   xmlns:sodipodi="http://sodipodi.sourceforge.net/DTD/sodipodi-0.dtd"
   xmlns="http://www.w3.org/2000/svg"
   xmlns:svg="http://www.w3.org/2000/svg"><defs
   id="defs274876" /><sodipodi:namedview
   id="namedview274874"
   pagecolor="#ffffff"
   bordercolor="#111111"
   borderopacity="1"
   inkscape:pageshadow="0"
   inkscape:pageopacity="0"
   inkscape:pagecheckerboard="1"
   showgrid="false"
   inkscape:zoom="2.1479592"
   inkscape:cx="254.66033"
   inkscape:cy="120.11401"
   inkscape:window-width="1920"
   inkscape:window-height="1012"
   inkscape:window-x="0"
   inkscape:window-y="0"
   inkscape:window-maximized="1"
   inkscape:current-layer="Layer_1" />
<style
   type="text/css"
   id="style274685">
	.st0{fill:none;enable-background:new    ;}
	.st1{fill:#FFFFFF;}
	.st2{fill-rule:evenodd;clip-rule:evenodd;fill:#1B4297;}
	.st3{fill-rule:evenodd;clip-rule:evenodd;fill:#DCE2EC;}
	.st4{fill-rule:evenodd;clip-rule:evenodd;fill:#FFDD00;}
	.st5{fill-rule:evenodd;clip-rule:evenodd;fill:#FFFFFF;}
</style>
<path
   class="st0"
   d=""
   id="path274687" />


<g
   id="g290238"><g
     id="g274741"
     transform="matrix(1.1609499,0,0,1.1609499,0,-0.23219)">
	<path
   class="st1"
   d="m 75.5,38.3 c 0,20.6 -17,37.4 -37.7,37.4 C 17.1,75.7 0.1,58.9 0.1,38.3 0.2,17.7 17.1,1 37.8,1 58.5,1 75.5,17.7 75.5,38.3 Z"
   id="path274689" />
	<g
   id="g274701">
		<path
   class="st2"
   d="M 9.6,62.8 H 31.3 V 60.3 H 7.6 c 0.6,0.9 1.3,1.7 2,2.5 z M 44.3,71 h 11.6 c 1.4,-0.7 2.7,-1.6 3.9,-2.5 H 44.3 Z M 19.8,71 H 31.4 V 68.5 H 15.8 c 1.3,0.9 2.6,1.7 4,2.5 z m -6,-4.1 H 31.4 V 64.4 H 11.1 c 0.8,0.9 1.7,1.7 2.7,2.5 z m 15.9,-8.2 c -0.3,-0.1 -0.5,-0.2 -0.8,-0.3 v 0 C 27.6,57.8 26.3,57.1 25.1,56.3 H 4.9 c 0.4,0.7 0.8,1.4 1.3,2.1 v 0 0 c 0.1,0.1 0.1,0.2 0.2,0.3 m 37.9,8.2 h 17.6 c 0.9,-0.8 1.8,-1.6 2.7,-2.5 H 44.3 Z m 0,8.2 c 3,-0.4 7.5,-2 8.3,-2.4 h -8.3 z m 0,-12.3 H 66 c 0.7,-0.8 1.4,-1.6 2,-2.5 H 44.3 Z m 0,-61.7 v 13.2 c 0,1.5 0.9,2.8 2.2,3.4 8,3.4 13.5,11.2 13.5,20.4 0,0.6 0,1.2 -0.1,1.7 h -3.5 c -1.1,0 -2,0.8 -2.3,1.8 0.3,-1.2 0.4,-2.3 0.4,-3.6 0,-8.1 -5.7,-14.8 -13.3,-16.4 -1.1,-0.2 -1.9,-1.2 -1.9,-2.3 V 0.5 h -3.2 v 18.9 c 0,1.1 -0.8,2.1 -1.9,2.3 -7.6,1.6 -13.3,8.3 -13.3,16.4 0,1.2 0.1,2.4 0.4,3.6 -0.2,-1 -1.2,-1.8 -2.3,-1.8 h -3.5 c 0,-0.6 -0.1,-1.2 -0.1,-1.7 0,-9.2 5.5,-17 13.5,-20.4 1.3,-0.6 2.2,-1.9 2.2,-3.4 0,0 0,-13.2 0,-13.2 -17.4,3 -30.8,18.3 -30.8,36.9 0,1.4 0.1,2.9 0.2,4.3 h 19.4 c 1,0 1.9,0.6 2.2,1.5 2.4,6.4 8.5,10.9 15.7,10.9 7.2,0 13.4,-4.6 15.7,-11 0.3,-0.9 1.2,-1.5 2.2,-1.5 H 75.1 C 75.3,40.9 75.3,39.5 75.3,38 75.4,19.5 61.9,4.2 44.3,1.1 Z m -6.5,50.7 c -3.4,0 -6.1,-2.7 -6.1,-6.1 0,-3.4 2.7,-6.1 6.1,-6.1 3.4,0 6.1,2.7 6.1,6.1 0,3.3 -2.7,6.1 -6.1,6.1 z M 18,48 H 1.6 c 0.2,0.8 0.5,1.7 0.8,2.5 H 19.5 C 18.9,49.7 18.4,48.9 18,48 Z m 2.6,4.1 H 3 c 0.3,0.8 0.7,1.7 1.1,2.5 H 23 C 22.2,53.8 21.4,53 20.6,52.1 Z M 16.4,43.9 H 0.7 c 0.1,0.8 0.3,1.7 0.5,2.5 h 16.1 c -0.4,-0.8 -0.7,-1.6 -0.9,-2.5 z m 30,14.6 v 0 c -0.2,0.1 -0.3,0.1 -0.5,0.2 h 23.2 c 0.1,-0.1 0.1,-0.2 0.2,-0.3 v 0 c 0.4,-0.7 0.9,-1.4 1.3,-2.1 h -20 c -1.2,0.8 -2.8,1.6 -4.2,2.2 z m 6.2,-3.9 h 18.9 c 0.4,-0.8 0.8,-1.6 1.1,-2.5 H 55 c -0.8,0.9 -1.6,1.7 -2.4,2.5 z m 5.8,-8.2 h 16.1 c 0.2,-0.8 0.3,-1.7 0.5,-2.5 H 59.2 c -0.2,0.9 -0.5,1.7 -0.8,2.5 z m -2.2,4.1 h 17.1 c 0.3,-0.8 0.5,-1.6 0.8,-2.5 H 57.6 c -0.4,0.9 -0.9,1.7 -1.4,2.5 z"
   id="path274691" />
		<g
   id="g274699">
			<g
   id="g274697">
				<g
   id="g274695">
					<path
   class="st2"
   d="m 23.1,72.6 h 8.3 v 2.5 c -3.1,-0.4 -7.6,-2 -8.3,-2.5 z"
   id="path274693" />
				</g>
			</g>
		</g>
	</g>
	<path
   class="st3"
   d="m 51.6,20.7 c 0,0 -0.1,-0.1 -0.1,-0.1 -0.1,-0.1 -0.1,-0.1 -0.2,-0.2 -1.4,-1.1 -3,-2 -4.7,-2.7 -0.1,-0.1 -0.3,-0.1 -0.4,-0.2 -0.1,0 -0.2,-0.1 -0.2,-0.1 v -0.1 c -1,-0.7 -1.6,-1.8 -1.6,-3 V 1.1 c 0,0 0,0 0,0 V 0.8 C 42.3,0.4 40.1,0.2 37.9,0.2 c -2.2,0 -4.4,0.2 -6.5,0.6 v 0.3 c 0,0 0,0 0,0 0,0 0,13.2 0,13.2 0,0.1 0,0.2 0,0.3 v 0 0 c -0.1,1.4 -1,2.6 -2.2,3.1 -1.5,0.6 -2.9,1.4 -4.2,2.3 -0.1,0 -0.1,0.1 -0.2,0.1 -0.1,0.1 -0.2,0.2 -0.3,0.2 -5.2,4 -8.6,10.3 -8.6,17.4 0,0.7 0,1.4 0.1,2 h 3.2 c 1.1,0 2,0.8 2.3,1.8 -0.2,-1.2 -0.4,-2.3 -0.4,-3.6 0,-8.1 5.7,-14.8 13.3,-16.4 1.1,-0.2 1.9,-1.2 1.9,-2.3 V 0.5 h 3.2 v 18.9 c 0,1.1 0.8,2.1 1.9,2.3 7.6,1.6 13.3,8.3 13.3,16.4 0,1.2 -0.1,2.4 -0.4,3.6 0.2,-1 1.2,-1.8 2.3,-1.8 h 3.2 c 0.1,-0.7 0.1,-1.3 0.1,-2 -0.1,-7 -3.3,-13.2 -8.3,-17.2 z m 1.9,23.2 C 51.1,50.3 45,54.9 37.8,54.9 30.6,54.9 24.4,50.3 22.1,44 21.8,43.1 20.9,42.5 19.9,42.5 H 16.3 C 17.9,50.7 24,57 31.6,59.3 v 16.2 c 2,0.3 4.1,0.5 6.3,0.5 2.1,0 4.2,-0.2 6.2,-0.5 V 59.1 c 7.8,-2.3 13.7,-8.8 15.3,-16.8 h -3.6 c -1.1,0 -1.9,0.7 -2.3,1.6 z m -9.6,1.8 c 0,-3.4 -2.7,-6.1 -6.1,-6.1 -3.4,0 -6.1,2.7 -6.1,6.1 0,3.4 2.7,6.1 6.1,6.1 3.4,0 6.1,-2.8 6.1,-6.1 z"
   id="path274703" />
	<path
   class="st4"
   d="m 39.4,0.3 h -3.5 v 19.1 c 0,1 -0.7,1.8 -1.7,2 -7.8,1.7 -13.5,8.7 -13.5,16.6 0,0.7 0.1,1.5 0.2,2.2 -0.5,-0.5 -1.1,-0.7 -1.8,-0.7 0,0 -2.8,0 -3.2,0 0,-0.5 -0.1,-1 -0.1,-1.5 v 0 c 0,-8.8 5.2,-16.7 13.3,-20.2 1.4,-0.6 2.4,-2.1 2.4,-3.6 0,0 0,0 0,0 0,-0.1 0,-0.3 0,-0.6 V 12.1 7.6 0.7 L 31.2,0.8 C 22.6,2.3 14.7,6.9 9,13.6 3.2,20.4 0,29.1 0,38.1 0,39.5 0.1,41 0.2,42.4 v 0.2 h 19.6 c 0.9,0 1.7,0.6 2,1.4 2.5,6.6 8.9,11.1 16,11.1 7.1,0 13.5,-4.5 16,-11.1 0.3,-0.8 1.1,-1.4 2,-1.4 h 19.6 v -0.2 c 0.2,-1.4 0.2,-2.9 0.2,-4.3 0,-9 -3.2,-17.6 -9,-24.5 C 60.9,6.9 53,2.3 44.4,0.8 H 44 v 13.5 c 0,1.6 0.9,3 2.4,3.6 8.1,3.5 13.3,11.4 13.3,20.2 0,0.5 0,1 -0.1,1.5 -0.4,0 -3.2,0 -3.2,0 -0.7,0 -1.3,0.3 -1.8,0.7 0.1,-0.7 0.2,-1.5 0.2,-2.2 0,-8 -5.7,-15 -13.5,-16.6 -1,-0.2 -1.7,-1.1 -1.7,-2 V 0.3 Z m -0.2,0.5 c 0,0.5 0,18.6 0,18.6 0,1.2 0.9,2.3 2.1,2.5 7.6,1.6 13,8.4 13,16.1 0,1.2 -0.1,2.4 -0.4,3.5 0,0 0,0.2 0.2,0.3 0.2,0 0.3,-0.2 0.3,-0.2 0.2,-0.9 1.1,-1.6 2,-1.6 h 3.7 v -0.2 c 0,-0.6 0.1,-1.2 0.1,-1.8 0,-9 -5.3,-17.1 -13.6,-20.6 -1.3,-0.5 -2.1,-1.8 -2.1,-3.2 0,0 0,-12.3 0,-12.9 8.5,1.6 16.2,6.1 21.7,12.7 5.7,6.7 8.8,15.3 8.8,24.1 0,1.3 -0.1,2.7 -0.2,4 -0.5,0 -19.1,0 -19.1,0 -1.1,0 -2.1,0.7 -2.4,1.7 -2.4,6.5 -8.6,10.8 -15.5,10.8 -6.9,0 -13.1,-4.3 -15.5,-10.8 -0.4,-1 -1.4,-1.7 -2.5,-1.7 0,0 -18.7,0 -19.1,0 C 0.6,40.8 0.5,39.4 0.5,38.1 0.5,29.3 3.6,20.7 9.3,14 14.9,7.4 22.6,2.9 31,1.4 c 0,4.5 0,12.7 0,12.8 0,1.4 -0.8,2.6 -2.1,3.2 C 20.7,21 15.4,29.1 15.4,38.1 v 0 c 0,0.6 0,1.2 0.1,1.8 v 0.2 h 3.7 c 1,0 1.8,0.7 2,1.6 0,0 0.1,0.2 0.3,0.1 0.2,-0.1 0.2,-0.3 0.2,-0.3 -0.3,-1.1 -0.4,-2.3 -0.4,-3.5 0,-7.7 5.5,-14.5 13.1,-16.1 1.2,-0.2 2.1,-1.3 2.1,-2.5 0,0 0,-18.1 0,-18.6 0.4,0 2.3,0 2.7,0 z"
   id="path274705" />
	<path
   class="st4"
   d="m 31.4,45.7 c 0,3.5 2.9,6.4 6.4,6.4 3.5,0 6.4,-2.9 6.4,-6.4 0,-3.5 -2.9,-6.4 -6.4,-6.4 -3.5,0 -6.4,2.8 -6.4,6.4 z m 0.6,0 c 0,-3.2 2.6,-5.9 5.9,-5.9 3.2,0 5.9,2.6 5.9,5.9 0,3.2 -2.6,5.9 -5.9,5.9 C 34.6,51.5 32,48.9 32,45.7 Z"
   id="path274707" />
	<path
   class="st4"
   d="M 26.3,56.7 C 25.9,56.5 25.5,56.2 25.2,56 H 25.1 25 4.5 l 0.2,0.4 c 0.4,0.7 0.8,1.5 1.3,2.2 0,0 0.2,0.3 0.2,0.3 L 6.3,59 H 6.4 31 C 29.4,58.4 27.8,57.7 26.3,56.7 Z M 6.4,58.2 C 6,57.6 5.7,57 5.4,56.5 c 0.9,0 19.4,0 19.6,0 1.1,0.8 2.2,1.4 3.4,2 -2.2,0 -21.6,0 -21.8,0 C 6.5,58.4 6.4,58.2 6.4,58.2 Z"
   id="path274709" />
	<path
   class="st4"
   d="M 70.7,56 H 50.5 c -1.8,1.3 -3.8,2.3 -5.9,3 h 24.7 l 0.3,-0.5 c 0.5,-0.7 0.9,-1.4 1.3,-2.2 l 0.2,-0.4 h -0.4 z m -1.5,2.2 c 0,0 -0.1,0.1 -0.1,0.2 -0.3,0 -19.7,0 -21.9,0 1.3,-0.6 2.5,-1.3 3.5,-2 0.1,0 18.7,0 19.6,0 -0.4,0.7 -0.8,1.3 -1.1,1.8 z"
   id="path274711" />
	<path
   class="st4"
   d="M 31.5,68.2 H 31.3 15 l 0.7,0.5 c 1.3,0.9 2.6,1.8 4,2.5 h 0.1 11.9 v -3 z M 31,70.7 c -0.5,0 -11.1,0 -11.2,0 -1.1,-0.6 -2.1,-1.3 -3.2,-2 1.5,0 13.9,0 14.4,0 0,0.4 0,1.7 0,2 z"
   id="path274713" />
	<path
   class="st4"
   d="m 31.5,75.4 v -3 h -0.2 -9.2 l 0.8,0.5 c 0.9,0.5 5.4,2.1 8.4,2.5 h 0.2 v 0 c 0.1,0 0.1,0 0,0 z M 31,74.8 c -2.2,-0.3 -5.1,-1.3 -6.8,-1.9 1.7,0 6.3,0 6.8,0 0,0.3 0,1.5 0,1.9 z"
   id="path274715" />
	<path
   class="st4"
   d="m 44,72.3 v 3 h 0.3 c 3,-0.4 7.5,-2 8.4,-2.5 l 0.8,-0.5 h -0.9 z m 0.6,2.5 c 0,-0.4 0,-1.5 0,-1.9 0.4,0 5,0 6.8,0 -1.7,0.6 -4.6,1.5 -6.8,1.9 z"
   id="path274717" />
	<path
   class="st4"
   d="M 59.8,68.2 H 44 v 3 H 55.9 56 c 1.4,-0.8 2.7,-1.6 4,-2.5 l 0.7,-0.5 z m -4,2.5 c -0.1,0 -10.7,0 -11.2,0 0,-0.4 0,-1.6 0,-2 0.5,0 12.9,0 14.4,0 -1.1,0.8 -2.1,1.4 -3.2,2 z"
   id="path274719" />
	<path
   class="st4"
   d="M 31.5,64.2 H 31.3 10.4 l 0.4,0.4 c 0.9,0.9 1.8,1.7 2.7,2.5 l 0.1,0.1 H 31.5 Z M 31,66.6 c -0.5,0 -17,0 -17.2,0 -0.7,-0.6 -1.5,-1.3 -2.2,-2 1.2,0 18.9,0 19.3,0 0.1,0.4 0.1,1.7 0.1,2 z"
   id="path274721" />
	<path
   class="st4"
   d="M 64.6,64.2 H 44 v 3 h 18 l 0.1,-0.1 C 63,66.3 64,65.5 64.8,64.6 l 0.4,-0.4 z m -2.8,2.4 c -0.2,0 -16.7,0 -17.2,0 0,-0.4 0,-1.6 0,-2 0.5,0 18.2,0 19.4,0 -0.8,0.8 -1.5,1.4 -2.2,2 z"
   id="path274723" />
	<path
   class="st4"
   d="M 68.1,60.1 H 44 v 3 H 66.1 L 66.2,63 c 0.7,-0.8 1.4,-1.6 2,-2.5 l 0.3,-0.4 z m -2.2,2.4 c -0.2,0 -20.9,0 -21.4,0 0,-0.4 0,-1.6 0,-2 0.5,0 22,0 23,0 -0.5,0.8 -1,1.4 -1.6,2 z"
   id="path274725" />
	<path
   class="st4"
   d="M 31.5,60.1 H 31.3 7 l 0.3,0.4 c 0.6,0.9 1.3,1.7 2,2.5 l 0.1,0.1 H 31.5 Z M 31,62.5 c -0.5,0 -21.1,0 -21.4,0 C 9,61.9 8.5,61.2 8,60.5 c 1,0 22.5,0 23,0 0,0.4 0,1.7 0,2 z"
   id="path274727" />
	<path
   class="st4"
   d="M 16.6,43.7 H 0.4 V 44 c 0.1,0.8 0.3,1.7 0.5,2.5 v 0.2 h 16.7 c -0.4,-1 -0.7,-2 -1,-3 z M 1,44.2 c 0.6,0 14.8,0 15.2,0 0.2,0.7 0.4,1.3 0.7,2 -0.7,0 -15.1,0 -15.5,0 C 1.3,45.5 1.1,44.9 1,44.2 Z"
   id="path274729" />
	<path
   class="st4"
   d="M 18.2,47.8 H 1.3 l 0.1,0.3 c 0.2,0.8 0.5,1.7 0.8,2.5 l 0.1,0.2 H 20 c -0.7,-1 -1.3,-2 -1.8,-3 z M 2,48.3 c 0.7,0 15.6,0 15.9,0 0.3,0.7 0.7,1.3 1.1,2 -0.9,0 -16,0 -16.4,0 C 2.3,49.6 2.1,49 2,48.3 Z"
   id="path274731" />
	<path
   class="st4"
   d="M 20.8,51.9 H 2.6 l 0.1,0.4 C 3,53.1 3.4,54 3.8,54.8 l 0.1,0.1 h 19.8 c -1,-0.9 -2,-1.9 -2.9,-3 z M 3.4,52.4 h 17.1 c 0.6,0.7 1.2,1.3 1.9,2 H 4.3 C 4,53.7 3.7,53 3.4,52.4 Z"
   id="path274733" />
	<path
   class="st4"
   d="M 74.9,43.7 H 59 c -0.3,1 -0.6,2 -1,3 H 74.7 V 46.5 C 74.9,45.7 75,44.8 75.2,44 v -0.3 z m -0.7,2.5 c -0.4,0 -14.8,0 -15.5,0 0.2,-0.6 0.5,-1.3 0.7,-2 0.4,0 14.6,0 15.2,0 -0.1,0.7 -0.2,1.3 -0.4,2 z"
   id="path274735" />
	<path
   class="st4"
   d="M 74,47.8 H 57.5 c -0.5,1 -1.1,2.1 -1.8,3 h 17.8 l 0.1,-0.2 c 0.3,-0.8 0.6,-1.7 0.8,-2.5 l 0.1,-0.3 z m -1,2.5 c -0.4,0 -15.5,0 -16.4,0 0.4,-0.6 0.8,-1.3 1.1,-2 0.3,0 15.2,0 15.9,0 -0.1,0.7 -0.3,1.3 -0.6,2 z"
   id="path274737" />
	<path
   class="st4"
   d="M 72.6,51.9 H 54.9 C 54,53 53,54 51.9,54.9 h 19.8 l 0.1,-0.1 c 0.4,-0.8 0.8,-1.7 1.1,-2.5 L 73,51.9 Z m -1.2,2.5 c -0.3,0 -16.9,0 -18.1,0 0.7,-0.6 1.3,-1.3 1.9,-2 0.2,0 16.4,0 17.1,0 -0.3,0.6 -0.6,1.3 -0.9,2 z"
   id="path274739" />
</g><g
     id="g275118"
     transform="matrix(0.76833066,0,0,1.2513206,28.146636,-10.611462)"
     style="fill:#1b4297;fill-opacity:1"><g
       id="g274819"
       style="fill:#1b4297;fill-opacity:1">
	<path
   class="st1"
   d="m 89.4,56 v 5.7 c 0,2.1 1,3.1 2.2,3.1 1.4,0 2.3,-0.9 2.3,-3.1 V 56 h 1.3 v 5.6 c 0,3 -1.6,4.2 -3.6,4.2 -2,0 -3.5,-1.1 -3.5,-4.1 V 56 Z"
   id="path274743"
   style="fill:#1b4297;fill-opacity:1" />
	<path
   class="st1"
   d="m 97.9,65.8 c -0.5,0 -0.8,-0.4 -0.8,-0.9 0,-0.5 0.4,-0.9 0.9,-0.9 0.5,0 0.8,0.4 0.8,0.9 -0.1,0.5 -0.4,0.9 -0.9,0.9 z"
   id="path274745"
   style="fill:#1b4297;fill-opacity:1" />
	<path
   class="st1"
   d="m 100.2,64.1 c 0.6,0.4 1.4,0.6 2.2,0.6 1.3,0 2,-0.7 2,-1.6 0,-0.9 -0.5,-1.4 -1.8,-1.9 -1.6,-0.6 -2.5,-1.4 -2.5,-2.7 0,-1.5 1.2,-2.6 3.1,-2.6 1,0 1.7,0.2 2.1,0.5 l -0.3,1 c -0.3,-0.2 -0.9,-0.5 -1.8,-0.5 -1.3,0 -1.8,0.8 -1.8,1.4 0,0.9 0.6,1.3 1.9,1.9 1.6,0.6 2.4,1.4 2.4,2.8 0,1.5 -1.1,2.8 -3.4,2.8 -0.9,0 -1.9,-0.3 -2.5,-0.6 z"
   id="path274747"
   style="fill:#1b4297;fill-opacity:1" />
	<path
   class="st1"
   d="m 107.9,65.8 c -0.5,0 -0.8,-0.4 -0.8,-0.9 0,-0.5 0.4,-0.9 0.9,-0.9 0.5,0 0.8,0.4 0.8,0.9 0,0.5 -0.4,0.9 -0.9,0.9 z"
   id="path274749"
   style="fill:#1b4297;fill-opacity:1" />
	<path
   class="st1"
   d="m 113,56.1 c 0.8,-0.1 1.7,-0.2 2.7,-0.2 1.8,0 3.1,0.4 3.9,1.2 0.9,0.8 1.4,1.9 1.4,3.5 0,1.6 -0.5,2.9 -1.4,3.8 -0.9,0.9 -2.4,1.4 -4.3,1.4 -0.9,0 -1.6,0 -2.3,-0.1 z m 1.3,8.6 c 0.3,0.1 0.8,0.1 1.3,0.1 2.7,0 4.1,-1.5 4.1,-4.1 0,-2.3 -1.3,-3.7 -3.9,-3.7 -0.6,0 -1.1,0.1 -1.5,0.1 z"
   id="path274751"
   style="fill:#1b4297;fill-opacity:1" />
	<path
   class="st1"
   d="m 123.3,62.4 c 0,1.7 1.1,2.4 2.4,2.4 0.9,0 1.5,-0.2 1.9,-0.3 l 0.2,0.9 c -0.4,0.2 -1.2,0.4 -2.3,0.4 -2.1,0 -3.4,-1.4 -3.4,-3.5 0,-2.1 1.2,-3.8 3.3,-3.8 2.3,0 2.8,2 2.8,3.3 0,0.3 0,0.5 0,0.6 z m 3.7,-0.9 c 0,-0.8 -0.3,-2 -1.7,-2 -1.3,0 -1.8,1.2 -1.9,2 z"
   id="path274753"
   style="fill:#1b4297;fill-opacity:1" />
	<path
   class="st1"
   d="m 129.8,61 c 0,-0.9 0,-1.6 -0.1,-2.3 h 1.1 l 0.1,1.2 v 0 c 0.5,-0.9 1.3,-1.3 2.4,-1.3 1.7,0 2.9,1.4 2.9,3.5 0,2.5 -1.5,3.7 -3.1,3.7 -0.9,0 -1.7,-0.4 -2.1,-1.1 v 0 3.8 h -1.3 V 61 Z m 1.3,1.8 c 0,0.2 0,0.4 0.1,0.5 0.2,0.9 1,1.5 1.9,1.5 1.3,0 2.1,-1.1 2.1,-2.7 0,-1.4 -0.7,-2.6 -2,-2.6 -0.9,0 -1.7,0.6 -1.9,1.5 0,0.2 -0.1,0.4 -0.1,0.5 v 1.3 z"
   id="path274755"
   style="fill:#1b4297;fill-opacity:1" />
	<path
   class="st1"
   d="m 142.8,64 c 0,0.6 0,1.2 0.1,1.7 h -1.1 l -0.1,-0.9 v 0 c -0.4,0.5 -1.1,1 -2.1,1 -1.4,0 -2.1,-1 -2.1,-2 0,-1.7 1.5,-2.6 4.2,-2.6 v -0.1 c 0,-0.6 -0.2,-1.6 -1.6,-1.6 -0.7,0 -1.3,0.2 -1.8,0.5 L 138,59.2 c 0.6,-0.4 1.4,-0.6 2.3,-0.6 2.1,0 2.6,1.4 2.6,2.8 V 64 Z m -1.2,-1.9 c -1.4,0 -2.9,0.2 -2.9,1.6 0,0.8 0.5,1.2 1.2,1.2 0.9,0 1.5,-0.6 1.7,-1.2 0,-0.1 0.1,-0.3 0.1,-0.4 v -1.2 z"
   id="path274757"
   style="fill:#1b4297;fill-opacity:1" />
	<path
   class="st1"
   d="m 144.9,60.9 c 0,-0.8 0,-1.5 -0.1,-2.2 h 1.1 l 0.1,1.4 v 0 c 0.3,-0.9 1.1,-1.5 1.9,-1.5 0.1,0 0.2,0 0.3,0 v 1.2 c -0.1,0 -0.3,0 -0.4,0 -0.9,0 -1.5,0.7 -1.7,1.6 0,0.2 0,0.4 0,0.6 v 3.7 h -1.3 z"
   id="path274759"
   style="fill:#1b4297;fill-opacity:1" />
	<path
   class="st1"
   d="m 151.4,57.1 v 1.7 h 1.8 v 1 h -1.8 v 3.7 c 0,0.9 0.2,1.3 0.9,1.3 0.3,0 0.5,0 0.7,-0.1 l 0.1,1 c -0.2,0.1 -0.6,0.2 -1.1,0.2 -0.6,0 -1.1,-0.2 -1.4,-0.5 -0.3,-0.4 -0.5,-1 -0.5,-1.8 V 59.8 H 149 v -1 h 1.1 v -1.3 z"
   id="path274761"
   style="fill:#1b4297;fill-opacity:1" />
	<path
   class="st1"
   d="m 154.6,60.6 c 0,-0.7 0,-1.3 -0.1,-1.9 h 1.1 l 0.1,1.1 v 0 c 0.4,-0.7 1,-1.3 2.2,-1.3 0.9,0 1.6,0.6 1.9,1.4 v 0 c 0.2,-0.4 0.5,-0.7 0.8,-0.9 0.4,-0.3 0.9,-0.5 1.5,-0.5 0.9,0 2.3,0.6 2.3,3 v 4.1 h -1.2 v -3.9 c 0,-1.3 -0.5,-2.1 -1.5,-2.1 -0.7,0 -1.3,0.5 -1.5,1.1 -0.1,0.2 -0.1,0.4 -0.1,0.6 v 4.3 h -1.2 v -4.2 c 0,-1.1 -0.5,-1.9 -1.4,-1.9 -0.8,0 -1.4,0.6 -1.6,1.3 -0.1,0.2 -0.1,0.4 -0.1,0.6 v 4.2 h -1.2 z"
   id="path274763"
   style="fill:#1b4297;fill-opacity:1" />
	<path
   class="st1"
   d="m 167.3,62.4 c 0,1.7 1.1,2.4 2.4,2.4 0.9,0 1.5,-0.2 1.9,-0.3 l 0.2,0.9 c -0.4,0.2 -1.2,0.4 -2.3,0.4 -2.1,0 -3.4,-1.4 -3.4,-3.5 0,-2.1 1.2,-3.8 3.3,-3.8 2.3,0 2.8,2 2.8,3.3 0,0.3 0,0.5 0,0.6 z m 3.6,-0.9 c 0,-0.8 -0.3,-2 -1.7,-2 -1.3,0 -1.8,1.2 -1.9,2 z"
   id="path274765"
   style="fill:#1b4297;fill-opacity:1" />
	<path
   class="st1"
   d="m 173.7,60.6 c 0,-0.7 0,-1.3 -0.1,-1.9 h 1.1 l 0.1,1.1 v 0 c 0.3,-0.6 1.1,-1.3 2.3,-1.3 1,0 2.4,0.6 2.4,2.9 v 4.1 h -1.3 v -4 c 0,-1.1 -0.4,-2.1 -1.6,-2.1 -0.8,0 -1.5,0.6 -1.7,1.3 -0.1,0.2 -0.1,0.4 -0.1,0.6 v 4.2 h -1.3 v -4.9 z"
   id="path274767"
   style="fill:#1b4297;fill-opacity:1" />
	<path
   class="st1"
   d="m 183.1,57.1 v 1.7 h 1.8 v 1 h -1.8 v 3.7 c 0,0.9 0.2,1.3 0.9,1.3 0.3,0 0.5,0 0.7,-0.1 l 0.1,1 c -0.2,0.1 -0.6,0.2 -1.1,0.2 -0.6,0 -1.1,-0.2 -1.4,-0.5 -0.3,-0.4 -0.5,-1 -0.5,-1.8 v -3.8 h -1.1 v -1 h 1.1 v -1.3 z"
   id="path274769"
   style="fill:#1b4297;fill-opacity:1" />
	<path
   class="st1"
   d="m 192.2,65.8 c -1.9,0 -3.3,-1.4 -3.3,-3.6 0,-2.3 1.5,-3.7 3.4,-3.7 2,0 3.3,1.4 3.3,3.5 0.1,2.7 -1.7,3.8 -3.4,3.8 z m 0,-0.9 c 1.2,0 2.1,-1.1 2.1,-2.7 0,-1.2 -0.6,-2.6 -2.1,-2.6 -1.5,0 -2.1,1.4 -2.1,2.7 0.1,1.4 0.9,2.6 2.1,2.6 z"
   id="path274771"
   style="fill:#1b4297;fill-opacity:1" />
	<path
   class="st1"
   d="m 197.4,65.6 v -6 h -1 v -1 h 1 v -0.3 c 0,-1 0.2,-1.9 0.8,-2.4 0.5,-0.5 1.1,-0.6 1.7,-0.6 0.5,0 0.8,0.1 1.1,0.2 l -0.2,1 c -0.2,-0.1 -0.4,-0.2 -0.8,-0.2 -1.1,0 -1.3,0.9 -1.3,2 v 0.4 h 1.7 v 1 h -1.7 v 6 h -1.3 z"
   id="path274773"
   style="fill:#1b4297;fill-opacity:1" />
	<path
   class="st1"
   d="m 205.8,56 v 4 h 4.7 v -4 h 1.3 v 9.6 h -1.3 v -4.5 h -4.7 v 4.5 h -1.3 V 56 Z"
   id="path274775"
   style="fill:#1b4297;fill-opacity:1" />
	<path
   class="st1"
   d="m 214.5,62.4 c 0,1.7 1.1,2.4 2.4,2.4 0.9,0 1.5,-0.2 1.9,-0.3 l 0.2,0.9 c -0.4,0.2 -1.2,0.4 -2.3,0.4 -2.1,0 -3.4,-1.4 -3.4,-3.5 0,-2.1 1.2,-3.8 3.3,-3.8 2.3,0 2.8,2 2.8,3.3 0,0.3 0,0.5 0,0.6 z m 3.7,-0.9 c 0,-0.8 -0.3,-2 -1.7,-2 -1.3,0 -1.8,1.2 -1.9,2 z"
   id="path274777"
   style="fill:#1b4297;fill-opacity:1" />
	<path
   class="st1"
   d="m 225.9,64 c 0,0.6 0,1.2 0.1,1.7 h -1.1 l -0.1,-0.9 v 0 c -0.4,0.5 -1.1,1 -2.1,1 -1.4,0 -2.1,-1 -2.1,-2 0,-1.7 1.5,-2.6 4.2,-2.6 v -0.1 c 0,-0.6 -0.2,-1.6 -1.6,-1.6 -0.7,0 -1.3,0.2 -1.8,0.5 l -0.3,-0.8 c 0.6,-0.4 1.4,-0.6 2.3,-0.6 2.1,0 2.6,1.4 2.6,2.8 V 64 Z m -1.3,-1.9 c -1.4,0 -2.9,0.2 -2.9,1.6 0,0.8 0.5,1.2 1.2,1.2 0.9,0 1.5,-0.6 1.7,-1.2 0,-0.1 0.1,-0.3 0.1,-0.4 v -1.2 z"
   id="path274779"
   style="fill:#1b4297;fill-opacity:1" />
	<path
   class="st1"
   d="m 227.9,55.5 h 1.3 v 10.2 h -1.3 z"
   id="path274781"
   style="fill:#1b4297;fill-opacity:1" />
	<path
   class="st1"
   d="m 232.8,57.1 v 1.7 h 1.8 v 1 h -1.8 v 3.7 c 0,0.9 0.2,1.3 0.9,1.3 0.3,0 0.5,0 0.7,-0.1 l 0.1,1 c -0.2,0.1 -0.6,0.2 -1.1,0.2 -0.6,0 -1.1,-0.2 -1.4,-0.5 -0.3,-0.4 -0.5,-1 -0.5,-1.8 v -3.8 h -1.1 v -1 h 1.1 v -1.3 z"
   id="path274783"
   style="fill:#1b4297;fill-opacity:1" />
	<path
   class="st1"
   d="m 236,55.5 h 1.3 v 4.3 0 c 0.2,-0.4 0.5,-0.7 0.9,-0.9 0.4,-0.2 0.8,-0.4 1.3,-0.4 0.9,0 2.4,0.6 2.4,3 v 4.1 h -1.3 v -4 c 0,-1.1 -0.4,-2.1 -1.6,-2.1 -0.8,0 -1.4,0.6 -1.7,1.3 -0.1,0.2 -0.1,0.4 -0.1,0.6 v 4.2 H 236 Z"
   id="path274785"
   style="fill:#1b4297;fill-opacity:1" />
	<path
   class="st1"
   d="m 251.8,64 c 0,0.6 0,1.2 0.1,1.7 h -1.1 l -0.1,-0.9 v 0 c -0.4,0.5 -1.1,1 -2.1,1 -1.4,0 -2.1,-1 -2.1,-2 0,-1.7 1.5,-2.6 4.2,-2.6 v -0.1 c 0,-0.6 -0.2,-1.6 -1.6,-1.6 -0.7,0 -1.3,0.2 -1.8,0.5 L 247,59.2 c 0.6,-0.4 1.4,-0.6 2.3,-0.6 2.1,0 2.6,1.4 2.6,2.8 V 64 Z m -1.2,-1.9 c -1.4,0 -2.9,0.2 -2.9,1.6 0,0.8 0.5,1.2 1.2,1.2 0.9,0 1.5,-0.6 1.7,-1.2 0,-0.1 0.1,-0.3 0.1,-0.4 v -1.2 z"
   id="path274787"
   style="fill:#1b4297;fill-opacity:1" />
	<path
   class="st1"
   d="m 253.9,60.6 c 0,-0.7 0,-1.3 -0.1,-1.9 h 1.1 l 0.1,1.1 v 0 c 0.3,-0.6 1.1,-1.3 2.3,-1.3 1,0 2.4,0.6 2.4,2.9 v 4.1 h -1.3 v -4 c 0,-1.1 -0.4,-2.1 -1.6,-2.1 -0.8,0 -1.5,0.6 -1.7,1.3 -0.1,0.2 -0.1,0.4 -0.1,0.6 v 4.2 h -1.3 v -4.9 z"
   id="path274789"
   style="fill:#1b4297;fill-opacity:1" />
	<path
   class="st1"
   d="m 267.8,55.5 v 8.4 c 0,0.6 0,1.3 0.1,1.8 h -1.1 l -0.1,-1.2 v 0 c -0.4,0.8 -1.2,1.4 -2.3,1.4 -1.7,0 -3,-1.4 -3,-3.5 0,-2.3 1.4,-3.7 3.1,-3.7 1.1,0 1.8,0.5 2.1,1 v 0 -4.1 h 1.2 z m -1.3,6 c 0,-0.2 0,-0.4 -0.1,-0.5 -0.2,-0.8 -0.9,-1.4 -1.8,-1.4 -1.3,0 -2.1,1.1 -2.1,2.7 0,1.4 0.7,2.6 2,2.6 0.8,0 1.6,-0.6 1.8,-1.5 0,-0.2 0.1,-0.3 0.1,-0.5 v -1.4 z"
   id="path274791"
   style="fill:#1b4297;fill-opacity:1" />
	<path
   class="st1"
   d="m 274.2,56 v 4 h 4.7 v -4 h 1.3 v 9.6 h -1.3 v -4.5 h -4.7 v 4.5 h -1.3 V 56 Z"
   id="path274793"
   style="fill:#1b4297;fill-opacity:1" />
	<path
   class="st1"
   d="m 288,63.8 c 0,0.7 0,1.3 0.1,1.9 H 287 l -0.1,-1.1 v 0 c -0.3,0.6 -1.1,1.3 -2.3,1.3 -1.1,0 -2.4,-0.6 -2.4,-3 v -4.1 h 1.3 v 3.8 c 0,1.3 0.4,2.2 1.5,2.2 0.8,0 1.4,-0.6 1.7,-1.2 0.1,-0.2 0.1,-0.4 0.1,-0.6 v -4.2 h 1.3 v 5 z"
   id="path274795"
   style="fill:#1b4297;fill-opacity:1" />
	<path
   class="st1"
   d="m 290.1,60.6 c 0,-0.7 0,-1.3 -0.1,-1.9 h 1.1 l 0.1,1.1 v 0 c 0.4,-0.7 1,-1.3 2.2,-1.3 0.9,0 1.6,0.6 1.9,1.4 v 0 c 0.2,-0.4 0.5,-0.7 0.8,-0.9 0.4,-0.3 0.9,-0.5 1.5,-0.5 0.9,0 2.3,0.6 2.3,3 v 4.1 h -1.2 v -3.9 c 0,-1.3 -0.5,-2.1 -1.5,-2.1 -0.7,0 -1.3,0.5 -1.5,1.1 -0.1,0.2 -0.1,0.4 -0.1,0.6 v 4.3 h -1.2 v -4.2 c 0,-1.1 -0.5,-1.9 -1.4,-1.9 -0.8,0 -1.4,0.6 -1.6,1.3 -0.1,0.2 -0.1,0.4 -0.1,0.6 v 4.2 h -1.2 z"
   id="path274797"
   style="fill:#1b4297;fill-opacity:1" />
	<path
   class="st1"
   d="m 307,64 c 0,0.6 0,1.2 0.1,1.7 H 306 l -0.1,-0.9 v 0 c -0.4,0.5 -1.1,1 -2.1,1 -1.4,0 -2.1,-1 -2.1,-2 0,-1.7 1.5,-2.6 4.2,-2.6 v -0.1 c 0,-0.6 -0.2,-1.6 -1.6,-1.6 -0.7,0 -1.3,0.2 -1.8,0.5 l -0.3,-0.8 c 0.6,-0.4 1.4,-0.6 2.3,-0.6 2.1,0 2.6,1.4 2.6,2.8 V 64 Z m -1.3,-1.9 c -1.4,0 -2.9,0.2 -2.9,1.6 0,0.8 0.5,1.2 1.2,1.2 0.9,0 1.5,-0.6 1.7,-1.2 0,-0.1 0.1,-0.3 0.1,-0.4 v -1.2 z"
   id="path274799"
   style="fill:#1b4297;fill-opacity:1" />
	<path
   class="st1"
   d="m 309,60.6 c 0,-0.7 0,-1.3 -0.1,-1.9 h 1.1 l 0.1,1.1 v 0 c 0.3,-0.6 1.1,-1.3 2.3,-1.3 1,0 2.4,0.6 2.4,2.9 v 4.1 h -1.3 v -4 c 0,-1.1 -0.4,-2.1 -1.6,-2.1 -0.8,0 -1.5,0.6 -1.7,1.3 -0.1,0.2 -0.1,0.4 -0.1,0.6 v 4.2 H 309 Z"
   id="path274801"
   style="fill:#1b4297;fill-opacity:1" />
	<path
   class="st1"
   d="m 319.8,64.1 c 0.6,0.4 1.4,0.6 2.2,0.6 1.3,0 2,-0.7 2,-1.6 0,-0.9 -0.5,-1.4 -1.8,-1.9 -1.6,-0.6 -2.5,-1.4 -2.5,-2.7 0,-1.5 1.2,-2.6 3.1,-2.6 1,0 1.7,0.2 2.1,0.5 l -0.3,1 c -0.3,-0.2 -0.9,-0.5 -1.8,-0.5 -1.3,0 -1.8,0.8 -1.8,1.4 0,0.9 0.6,1.3 1.9,1.9 1.6,0.6 2.4,1.4 2.4,2.8 0,1.5 -1.1,2.8 -3.4,2.8 -0.9,0 -1.9,-0.3 -2.5,-0.6 z"
   id="path274803"
   style="fill:#1b4297;fill-opacity:1" />
	<path
   class="st1"
   d="m 327.8,62.4 c 0,1.7 1.1,2.4 2.4,2.4 0.9,0 1.5,-0.2 1.9,-0.3 l 0.2,0.9 c -0.4,0.2 -1.2,0.4 -2.3,0.4 -2.1,0 -3.4,-1.4 -3.4,-3.5 0,-2.1 1.2,-3.8 3.3,-3.8 2.3,0 2.8,2 2.8,3.3 0,0.3 0,0.5 0,0.6 z m 3.7,-0.9 c 0,-0.8 -0.3,-2 -1.7,-2 -1.3,0 -1.8,1.2 -1.9,2 z"
   id="path274805"
   style="fill:#1b4297;fill-opacity:1" />
	<path
   class="st1"
   d="m 334.3,60.9 c 0,-0.8 0,-1.5 -0.1,-2.2 h 1.1 l 0.1,1.4 v 0 c 0.3,-0.9 1.1,-1.5 1.9,-1.5 0.1,0 0.2,0 0.3,0 v 1.2 c -0.1,0 -0.3,0 -0.4,0 -0.9,0 -1.5,0.7 -1.7,1.6 0,0.2 0,0.4 0,0.6 v 3.7 h -1.3 z"
   id="path274807"
   style="fill:#1b4297;fill-opacity:1" />
	<path
   class="st1"
   d="m 339.8,58.7 1.4,3.9 c 0.2,0.6 0.4,1.2 0.6,1.8 v 0 c 0.2,-0.6 0.4,-1.1 0.6,-1.8 l 1.3,-3.9 h 1.3 l -2.7,6.9 h -1.2 l -2.6,-6.9 z"
   id="path274809"
   style="fill:#1b4297;fill-opacity:1" />
	<path
   class="st1"
   d="m 346.8,57.4 c -0.5,0 -0.8,-0.4 -0.8,-0.8 0,-0.4 0.3,-0.8 0.8,-0.8 0.5,0 0.8,0.4 0.8,0.8 0,0.5 -0.3,0.8 -0.8,0.8 z m -0.6,8.2 v -6.9 h 1.3 v 6.9 z"
   id="path274811"
   style="fill:#1b4297;fill-opacity:1" />
	<path
   class="st1"
   d="m 354.5,65.4 c -0.3,0.2 -1.1,0.4 -2,0.4 -2.1,0 -3.4,-1.4 -3.4,-3.5 0,-2.1 1.5,-3.7 3.7,-3.7 0.7,0 1.4,0.2 1.7,0.4 l -0.3,1 c -0.3,-0.2 -0.8,-0.3 -1.5,-0.3 -1.6,0 -2.4,1.2 -2.4,2.6 0,1.6 1,2.6 2.4,2.6 0.7,0 1.2,-0.2 1.5,-0.3 z"
   id="path274813"
   style="fill:#1b4297;fill-opacity:1" />
	<path
   class="st1"
   d="m 356.6,62.4 c 0,1.7 1.1,2.4 2.4,2.4 0.9,0 1.5,-0.2 1.9,-0.3 l 0.2,0.9 c -0.4,0.2 -1.2,0.4 -2.3,0.4 -2.1,0 -3.4,-1.4 -3.4,-3.5 0,-2.1 1.2,-3.8 3.3,-3.8 2.3,0 2.8,2 2.8,3.3 0,0.3 0,0.5 0,0.6 z m 3.7,-0.9 c 0,-0.8 -0.3,-2 -1.7,-2 -1.3,0 -1.8,1.2 -1.9,2 z"
   id="path274815"
   style="fill:#1b4297;fill-opacity:1" />
	<path
   class="st1"
   d="m 362.9,64.4 c 0.4,0.2 1,0.5 1.7,0.5 0.9,0 1.3,-0.4 1.3,-1 0,-0.6 -0.4,-0.9 -1.3,-1.3 -1.3,-0.5 -1.8,-1.1 -1.8,-2 0,-1.1 0.9,-2 2.4,-2 0.7,0 1.3,0.2 1.7,0.4 l -0.3,0.9 c -0.3,-0.2 -0.8,-0.4 -1.4,-0.4 -0.7,0 -1.1,0.4 -1.1,0.9 0,0.6 0.4,0.8 1.3,1.2 1.2,0.4 1.8,1 1.8,2.1 0,1.2 -1,2.1 -2.6,2.1 -0.8,0 -1.5,-0.2 -1.9,-0.5 z"
   id="path274817"
   style="fill:#1b4297;fill-opacity:1" />
</g><g
       id="g274871"
       style="fill:#1b4297;fill-opacity:1">
	<polygon
   class="st1"
   points="90,45 90,29.4 105.7,45.9 105.7,24.8 103.5,24.8 103.5,40.4 87.7,23.9 87.7,45 "
   id="polygon274821"
   style="fill:#1b4297;fill-opacity:1" />
	<path
   class="st5"
   d="m 113.8,34 c 2.7,0 4.2,2 4.2,4.6 0,2.6 -1.4,4.8 -4.2,4.8 -2.7,0 -4.1,-2.3 -4.1,-4.8 0,-2.4 1.6,-4.6 4.1,-4.6 z m 6.3,-1.6 H 118 v 1.8 h -0.1 c -1,-1.3 -2.6,-2.1 -4.3,-2.1 -3.8,0 -6.1,3.1 -6.1,6.7 0,3.5 2.3,6.6 6,6.6 1.8,0 3.2,-0.7 4.3,-2.1 h 0.1 V 45 H 120 V 32.4 Z"
   id="path274823"
   style="fill:#1b4297;fill-opacity:1" />
	<polygon
   class="st1"
   points="123.1,27.9 123.1,32.4 121.8,32.4 121.8,34.4 123.1,34.4 123.1,45 125.2,45 125.2,34.4 127.5,34.4 127.5,32.4 125.2,32.4 125.2,27.9 "
   id="polygon274825"
   style="fill:#1b4297;fill-opacity:1" />
	<path
   class="st5"
   d="m 131.5,32.4 h -2.1 V 45 h 2.1 z m -1.1,-6.3 c -0.8,0 -1.5,0.7 -1.5,1.5 0,0.9 0.7,1.5 1.5,1.5 0.8,0 1.5,-0.7 1.5,-1.5 0,-0.8 -0.7,-1.5 -1.5,-1.5 z"
   id="path274827"
   style="fill:#1b4297;fill-opacity:1" />
	<path
   class="st5"
   d="m 140.1,45.3 c 3.7,0 6.6,-2.9 6.6,-6.6 0,-3.7 -2.9,-6.7 -6.6,-6.7 -3.7,0 -6.6,3 -6.6,6.7 0,3.7 2.9,6.6 6.6,6.6 z m 0,-11.3 c 2.7,0 4.5,2.1 4.5,4.7 0,2.6 -1.8,4.7 -4.5,4.7 -2.7,0 -4.5,-2.1 -4.5,-4.7 0,-2.6 1.9,-4.7 4.5,-4.7 z"
   id="path274829"
   style="fill:#1b4297;fill-opacity:1" />
	<path
   class="st1"
   d="m 151,32.4 h -2.1 V 45 h 2.1 v -6 c 0,-2.3 0.2,-5 3.1,-5 2.5,0 2.7,1.8 2.7,3.9 V 45 h 2.1 v -7.5 c 0,-2.9 -0.8,-5.5 -4.3,-5.5 -1.6,0 -2.7,0.7 -3.6,1.9 v 0 z"
   id="path274831"
   style="fill:#1b4297;fill-opacity:1" />
	<path
   class="st5"
   d="m 166.9,34 c 2.7,0 4.2,2 4.2,4.6 0,2.6 -1.5,4.8 -4.2,4.8 -2.7,0 -4.1,-2.3 -4.1,-4.8 0,-2.4 1.6,-4.6 4.1,-4.6 z m 6.2,-1.6 H 171 v 1.8 h -0.1 c -1,-1.3 -2.6,-2.1 -4.3,-2.1 -3.8,0 -6.1,3.1 -6.1,6.7 0,3.5 2.3,6.6 6,6.6 1.8,0 3.2,-0.7 4.3,-2.1 h 0.1 V 45 H 173 V 32.4 Z"
   id="path274833"
   style="fill:#1b4297;fill-opacity:1" />
	<polygon
   class="st1"
   points="175.7,22.9 175.7,45 177.9,45 177.9,22.9 "
   id="polygon274835"
   style="fill:#1b4297;fill-opacity:1" />
	<polygon
   class="st1"
   points="196,26.9 196,24.8 183.9,24.8 183.9,26.9 188.8,26.9 188.8,45 191.1,45 191.1,26.9 "
   id="polygon274837"
   style="fill:#1b4297;fill-opacity:1" />
	<path
   class="st5"
   d="m 200.4,45.3 c 3.7,0 6.6,-2.9 6.6,-6.6 0,-3.7 -2.9,-6.7 -6.6,-6.7 -3.7,0 -6.6,3 -6.6,6.7 -0.1,3.7 2.9,6.6 6.6,6.6 z m 0,-11.3 c 2.7,0 4.5,2.1 4.5,4.7 0,2.6 -1.8,4.7 -4.5,4.7 -2.7,0 -4.5,-2.1 -4.5,-4.7 0,-2.6 1.8,-4.7 4.5,-4.7 z"
   id="path274839"
   style="fill:#1b4297;fill-opacity:1" />
	<polygon
   class="st1"
   points="219.8,45 214.6,38.3 219.2,32.4 216.5,32.4 213.2,36.7 209.9,32.4 207.3,32.4 211.9,38.3 206.5,45 209.2,45 213.2,39.9 217.2,45 "
   id="polygon274841"
   style="fill:#1b4297;fill-opacity:1" />
	<path
   class="st5"
   d="m 223.6,32.4 h -2.1 V 45 h 2.1 z m -1,-6.3 c -0.8,0 -1.5,0.7 -1.5,1.5 0,0.9 0.7,1.5 1.5,1.5 0.8,0 1.5,-0.7 1.5,-1.5 0,-0.8 -0.7,-1.5 -1.5,-1.5 z"
   id="path274843"
   style="fill:#1b4297;fill-opacity:1" />
	<path
   class="st1"
   d="M 236.1,33.3 C 235,32.5 233.6,32 232.2,32 c -3.7,0 -6.7,2.9 -6.7,6.6 0,3.8 2.9,6.7 6.7,6.7 1.5,0 2.8,-0.5 4,-1.3 v -2.9 h -0.1 c -1,1.4 -2.3,2.2 -4.1,2.2 -2.6,0 -4.3,-2.2 -4.3,-4.7 0,-2.5 1.9,-4.7 4.5,-4.7 1.7,0 2.9,0.9 3.9,2.1 h 0.1 v -2.7 z"
   id="path274845"
   style="fill:#1b4297;fill-opacity:1" />
	<path
   class="st5"
   d="m 243.9,45.3 c 3.7,0 6.6,-2.9 6.6,-6.6 0,-3.7 -2.9,-6.7 -6.6,-6.7 -3.7,0 -6.6,3 -6.6,6.7 0,3.7 2.9,6.6 6.6,6.6 z m 0,-11.3 c 2.7,0 4.5,2.1 4.5,4.7 0,2.6 -1.8,4.7 -4.5,4.7 -2.7,0 -4.5,-2.1 -4.5,-4.7 0,-2.6 1.9,-4.7 4.5,-4.7 z"
   id="path274847"
   style="fill:#1b4297;fill-opacity:1" />
	<polygon
   class="st1"
   points="252.1,22.9 252.1,45 254.2,45 254.2,22.9 "
   id="polygon274849"
   style="fill:#1b4297;fill-opacity:1" />
	<path
   class="st5"
   d="m 262.4,45.3 c 3.7,0 6.6,-2.9 6.6,-6.6 0,-3.7 -2.9,-6.7 -6.6,-6.7 -3.7,0 -6.6,3 -6.6,6.7 -0.1,3.7 2.9,6.6 6.6,6.6 z m 0,-11.3 c 2.7,0 4.5,2.1 4.5,4.7 0,2.6 -1.8,4.7 -4.5,4.7 -2.7,0 -4.5,-2.1 -4.5,-4.7 0,-2.6 1.8,-4.7 4.5,-4.7 z"
   id="path274851"
   style="fill:#1b4297;fill-opacity:1" />
	<path
   class="st5"
   d="m 277,34 c 2.6,0 4.2,2 4.2,4.6 0,2.6 -1.4,4.8 -4.2,4.8 -2.7,0 -4.1,-2.3 -4.1,-4.8 0,-2.4 1.6,-4.6 4.1,-4.6 z m 6.3,-1.6 h -2.1 v 1.8 h -0.1 c -1,-1.4 -2.5,-2.1 -4.3,-2.1 -3.7,0 -6.1,3.2 -6.1,6.7 0,3.5 2.3,6.6 6,6.6 1.7,0 3.4,-0.8 4.4,-2.1 h 0.1 v 1.5 c 0,2.8 -0.7,5.3 -4,5.3 -2.3,0 -4,-1.5 -4,-3.8 h -2.1 c 0.1,3.6 2.7,5.8 6.2,5.8 1.9,0 3.7,-0.7 4.9,-2.2 1.3,-1.7 1.3,-3.4 1.3,-5.4 V 32.4 Z"
   id="path274853"
   style="fill:#1b4297;fill-opacity:1" />
	<polygon
   class="st1"
   points="286.6,52.1 289.1,52.1 298.4,32.4 295.9,32.4 291.8,41.4 287.4,32.4 284.9,32.4 290.7,43.8 "
   id="polygon274855"
   style="fill:#1b4297;fill-opacity:1" />
	<path
   class="st5"
   d="m 307.1,36.1 h 1.6 c 1.7,0 3.4,-0.2 4.8,-1.3 1.3,-1 1.9,-2.7 1.9,-4.3 0,-1.8 -0.8,-3.6 -2.3,-4.6 -1.5,-1 -3.3,-1.1 -5,-1.1 h -3.3 V 45 h 2.3 z m 0,-9.2 h 0.8 c 2.6,0 5.3,0.2 5.3,3.5 0,2.9 -2.1,3.6 -4.6,3.6 h -1.5 z"
   id="path274857"
   style="fill:#1b4297;fill-opacity:1" />
	<path
   class="st1"
   d="M 319.1,32.4 H 317 V 45 h 2.1 v -6.3 c 0,-1.6 0.1,-4.7 2.5,-4.7 0.6,0 0.9,0.3 1.3,0.6 l 1,-2 C 323.3,32.3 322.7,32 322,32 c -1.4,0 -2,0.7 -2.8,1.7 h -0.1 z"
   id="path274859"
   style="fill:#1b4297;fill-opacity:1" />
	<path
   class="st5"
   d="m 330.2,45.3 c 3.7,0 6.6,-2.9 6.6,-6.6 0,-3.7 -2.9,-6.7 -6.6,-6.7 -3.7,0 -6.6,3 -6.6,6.7 -0.1,3.7 2.9,6.6 6.6,6.6 z m 0,-11.3 c 2.7,0 4.5,2.1 4.5,4.7 0,2.6 -1.8,4.7 -4.5,4.7 -2.7,0 -4.5,-2.1 -4.5,-4.7 0,-2.6 1.8,-4.7 4.5,-4.7 z"
   id="path274861"
   style="fill:#1b4297;fill-opacity:1" />
	<path
   class="st5"
   d="m 344.6,34 c 2.6,0 4.2,2 4.2,4.6 0,2.6 -1.4,4.8 -4.2,4.8 -2.7,0 -4.1,-2.3 -4.1,-4.8 0,-2.4 1.6,-4.6 4.1,-4.6 z m 6.2,-1.6 h -2.1 v 1.8 0 c -1,-1.4 -2.6,-2.1 -4.3,-2.1 -3.7,0 -6.1,3.2 -6.1,6.7 0,3.5 2.3,6.6 6,6.6 1.7,0 3.4,-0.8 4.4,-2.1 v 0 1.5 c 0,2.8 -0.7,5.3 -4,5.3 -2.3,0 -4,-1.5 -4,-3.8 h -2.1 c 0.1,3.6 2.7,5.8 6.2,5.8 1.9,0 3.7,-0.7 4.9,-2.2 1.3,-1.7 1.3,-3.4 1.3,-5.4 V 32.4 Z"
   id="path274863"
   style="fill:#1b4297;fill-opacity:1" />
	<path
   class="st1"
   d="m 355.5,32.4 h -2.1 V 45 h 2.1 v -6.3 c 0,-1.6 0.1,-4.7 2.5,-4.7 0.6,0 0.9,0.3 1.3,0.6 l 1,-2 c -0.6,-0.3 -1.2,-0.6 -1.9,-0.6 -1.4,0 -2,0.7 -2.8,1.7 h -0.1 z"
   id="path274865"
   style="fill:#1b4297;fill-opacity:1" />
	<path
   class="st5"
   d="m 366.3,34 c 2.7,0 4.2,2 4.2,4.6 0,2.6 -1.4,4.8 -4.2,4.8 -2.7,0 -4.1,-2.3 -4.1,-4.8 0,-2.4 1.6,-4.6 4.1,-4.6 z m 6.3,-1.6 h -2.1 v 1.8 h -0.1 c -1,-1.3 -2.6,-2.1 -4.3,-2.1 -3.8,0 -6.1,3.1 -6.1,6.7 0,3.5 2.3,6.6 6,6.6 1.8,0 3.2,-0.7 4.3,-2.1 h 0.1 V 45 h 2.1 V 32.4 Z"
   id="path274867"
   style="fill:#1b4297;fill-opacity:1" />
	<path
   class="st1"
   d="m 377.4,32.4 h -2.1 V 45 h 2.1 v -6.5 c 0,-1.9 0.3,-4.5 2.8,-4.5 2.1,0 2.3,2.3 2.3,3.8 V 45 h 2.1 v -6.7 c 0,-1.9 0.3,-4.3 2.7,-4.3 2.2,0 2.3,2 2.3,3.6 V 45 h 2.1 v -7.7 c 0,-2.7 -0.8,-5.3 -4,-5.3 -1.5,0 -3,0.7 -3.8,2.1 -0.7,-1.3 -2,-2.1 -3.5,-2.1 -1.3,0 -2.4,0.7 -3,1.7 h -0.1 v -1.3 z"
   id="path274869"
   style="fill:#1b4297;fill-opacity:1" />
</g></g></g>
</svg>
