<?xml version="1.0" encoding="UTF-8" standalone="no"?>
<svg
   width="330"
   height="88"
   viewBox="0 0 330 88"
   version="1.1"
   id="svg273004"
   sodipodi:docname="EU_EU-emblem.svg"
   inkscape:version="1.1.2 (0a00cf5339, 2022-02-04)"
   xmlns:inkscape="http://www.inkscape.org/namespaces/inkscape"
   xmlns:sodipodi="http://sodipodi.sourceforge.net/DTD/sodipodi-0.dtd"
   xmlns="http://www.w3.org/2000/svg"
   xmlns:svg="http://www.w3.org/2000/svg">
  <defs
     id="defs273008" />
  <sodipodi:namedview
     id="namedview273006"
     pagecolor="#ffffff"
     bordercolor="#111111"
     borderopacity="1"
     inkscape:pageshadow="0"
     inkscape:pageopacity="0"
     inkscape:pagecheckerboard="1"
     showgrid="false"
     inkscape:zoom="4.8953488"
     inkscape:cx="182.8266"
     inkscape:cy="48.821853"
     inkscape:window-width="1920"
     inkscape:window-height="1012"
     inkscape:window-x="0"
     inkscape:window-y="0"
     inkscape:window-maximized="1"
     inkscape:current-layer="svg273004" />
  <!-- Generator: Sketch 64 (93537) - https://sketch.com -->
  <title
     id="title272976">EU/EU-emblem/standard-version/positive/EN</title>
  <desc
     id="desc272978">Created with Sketch.</desc>
  <g
     id="EU/EU-emblem/standard-version/positive/EN"
     stroke="none"
     stroke-width="1"
     fill="none"
     fill-rule="evenodd"
     transform="scale(1.9194974,1.8333333)">
    <g
       id="EU-emblem_standard">
      <g
         id="EU/EU-emblem/flag/flag-positive">
        <g
           id="EU_flag">
          <rect
             id="🌈-flag"
             fill="#003399"
             fill-rule="nonzero"
             x="0"
             y="0"
             width="72"
             height="48" />
          <path
             d="M 35.06,8.91 33.54,7.8 h 1.88 L 36,6 36.58,7.8 h 1.88 L 36.94,8.91 37.52,10.72 36,9.6 34.48,10.72 Z M 36.94,40.2 37.52,42 36,40.89 34.48,42 35.06,40.2 33.54,39.09 h 1.88 l 0.58,-1.81 0.58,1.81 h 1.88 z m -16.48,-15 -1.52,1.12 0.58,-1.8 L 18,23.44 h 1.88 l 0.58,-1.8 0.58,1.8 h 1.89 l -1.53,1.12 0.58,1.8 -1.52,-1.12 z m 8.71,-14.2 0.58,1.8 -1.52,-1.1 -1.52,1.11 0.58,-1.8 -1.52,-1.11 h 1.88 l 0.58,-1.8 0.58,1.8 h 1.88 z m -7.17,4.62 0.58,-1.8 0.59,1.8 H 25 l -1.52,1.12 0.58,1.8 -1.53,-1.12 -1.53,1.12 0.58,-1.8 -1.52,-1.12 z M 20.08,31.26 H 22 l 0.58,-1.8 0.59,1.8 H 25 l -1.52,1.12 0.58,1.8 -1.53,-1.11 -1.53,1.11 0.58,-1.8 -1.52,-1.12 z M 27.29,38.1 25.77,37 h 1.88 l 0.58,-1.8 0.58,1.8 h 1.88 l -1.52,1.1 0.58,1.8 -1.52,-1.11 -1.52,1.11 z m 25.19,-13.54 0.58,1.8 -1.52,-1.12 -1.54,1.12 0.58,-1.8 -1.53,-1.12 H 51 l 0.58,-1.8 0.58,1.8 H 54 Z M 42.83,11 41.31,9.9 h 1.88 l 0.58,-1.8 0.58,1.8 h 1.88 l -1.52,1.1 0.58,1.8 -1.52,-1.1 -1.52,1.11 0.58,-1.8 z m 6,4.61 0.59,-1.8 0.58,1.8 h 1.88 l -1.48,1.13 0.58,1.8 -1.52,-1.12 -1.53,1.12 0.58,-1.8 L 47,15.62 Z M 50,31.26 h 1.88 l -1.48,1.12 0.58,1.8 -1.52,-1.11 -1.53,1.11 0.58,-1.8 L 47,31.26 h 1.88 l 0.59,-1.8 0.58,1.8 z m -3.77,5.74 -1.52,1.1 0.58,1.8 -1.52,-1.11 -1.52,1.11 0.58,-1.8 -1.52,-1.1 h 1.88 l 0.58,-1.8 0.58,1.8 z"
             id="🌈-stars"
             fill="#ffcc00"
             fill-rule="nonzero" />
        </g>
      </g>
      <g
         id="🌈-Union"
         transform="translate(83,27)"
         fill="#515560"
         fill-rule="nonzero">
        <path
           d="m 1,0.69 h 2.89 v 7.75 c -0.022168,0.8016144 0.014598,1.603774 0.11,2.4 0.1117831,0.561504 0.4247033,1.062887 0.88,1.41 0.5621295,0.379587 1.2326483,0.565647 1.91,0.53 0.6581031,0.0423 1.311807,-0.13343 1.86,-0.5 C 9.0577683,11.964695 9.3325136,11.507975 9.42,11 9.5179848,10.193906 9.5580875,9.3818264 9.54,8.57 V 0.69 h 2.9 v 7.52 c 0.03793,1.2182401 -0.04245,2.437286 -0.24,3.64 -0.133307,0.661918 -0.428806,1.280405 -0.86,1.8 -0.46306,0.517958 -1.042195,0.918897 -1.69,1.17 C 8.768135,15.133436 7.8354524,15.279274 6.9,15.25 5.8424457,15.300675 4.7853517,15.140921 3.79,14.78 3.1420932,14.506005 2.5669009,14.084882 2.11,13.55 1.7289738,13.099406 1.4523631,12.570089 1.3,12 1.0699493,10.790792 0.9693818,9.5605159 1,8.33 Z"
           id="🌈-U" />
        <path
           d="M 24.3,15 H 21.55 V 9.7 C 21.585577,8.9723844 21.528452,8.2431985 21.38,7.53 21.273104,7.2211402 21.074185,6.9524249 20.81,6.76 20.513144,6.5675497 20.163377,6.4731127 19.81,6.49 19.353377,6.48526 18.906401,6.6214479 18.53,6.88 c -0.357871,0.2414888 -0.627993,0.5922961 -0.77,1 -0.176412,0.7803264 -0.247046,1.580839 -0.21,2.38 V 15 H 14.84 V 4.63 h 2.55 v 1.53 c 0.785208,-1.1087821 2.061354,-1.7655123 3.42,-1.76 0.570344,-0.00754 1.135904,0.1048941 1.66,0.33 0.444371,0.1752717 0.836725,0.4609331 1.14,0.83 0.251972,0.343928 0.432212,0.7350133 0.53,1.15 0.124963,0.6083654 0.178658,1.2292133 0.16,1.85 z"
           id="🌈-n" />
        <path
           d="M 26.58,3.23 V 0.69 h 2.74 v 2.54 z m 0,11.78 V 4.63 h 2.74 V 15 Z"
           id="🌈-i" />
        <path
           d="m 31,9.67 c 0.0049,-0.9226869 0.238547,-1.8297568 0.68,-2.64 0.411107,-0.8472216 1.07496,-1.5460146 1.9,-2 0.850405,-0.4482232 1.798739,-0.6784346 2.76,-0.67 1.443721,-0.050553 2.842967,0.5040704 3.86,1.53 1.00477,1.0287229 1.546493,2.4227554 1.5,3.86 0.04783,1.451228 -0.497369,2.859361 -1.51,3.9 -1.00506,1.027556 -2.393173,1.589325 -3.83,1.55 -0.9444,0.0037 -1.876337,-0.215574 -2.72,-0.64 -0.8528,-0.398189 -1.554256,-1.061065 -2,-1.89 -0.457641,-0.93186 -0.677512,-1.962507 -0.64,-3 z m 2.81,0.15 c -0.05737,0.851553 0.206685,1.69366 0.74,2.36 0.453858,0.519588 1.110102,0.817709 1.8,0.817709 0.689898,0 1.346142,-0.298121 1.8,-0.817709 0.531924,-0.674379 0.792323,-1.523352 0.73,-2.38 0.05804,-0.8438651 -0.202442,-1.6788203 -0.73,-2.34 -0.453858,-0.5195884 -1.110102,-0.8177087 -1.8,-0.8177087 -0.689898,0 -1.346142,0.2981203 -1.8,0.8177087 -0.533315,0.6663399 -0.797366,1.5084467 -0.74,2.36 z"
           id="🌈-o" />
        <path
           d="M 52.79,15 H 50 V 9.7 C 50.035577,8.9723844 49.978452,8.2431985 49.83,7.53 49.723104,7.2211402 49.524185,6.9524249 49.26,6.76 48.963144,6.5675497 48.613377,6.4731127 48.26,6.49 47.803377,6.4852599 47.356401,6.6214479 46.98,6.88 46.622129,7.1214888 46.352007,7.4722961 46.21,7.88 46.033588,8.6603264 45.962954,9.460839 46,10.26 V 15 H 43.25 V 4.63 h 2.55 v 1.53 c 0.785208,-1.1087821 2.061354,-1.7655123 3.42,-1.76 0.570344,-0.00754 1.135904,0.1048941 1.66,0.33 0.444371,0.1752717 0.836725,0.4609331 1.14,0.83 0.251073,0.345754 0.434309,0.7359795 0.54,1.15 0.115825,0.6095536 0.166112,1.2297488 0.15,1.85 z"
           id="path272988" />
      </g>
      <g
         id="🌈-European"
         transform="translate(84,6)"
         fill="#515560"
         fill-rule="nonzero">
        <polygon
           id="🌈-E"
           points="2.92,8 2.92,11.89 10.92,11.89 10.92,14.31 0,14.33 0,0 10.65,0 10.65,2.43 2.92,2.43 2.92,5.61 10.11,5.61 10.11,8 " />
        <path
           d="m 19.9,14.33 v -1.56 c -0.378775,0.554865 -0.891203,1.005389 -1.49,1.31 -0.61658,0.323288 -1.303855,0.488233 -2,0.48 -0.655917,0.01196 -1.303706,-0.146543 -1.88,-0.46 -0.53395,-0.282473 -0.956812,-0.73705 -1.2,-1.29 C 13.069166,12.076119 12.956987,11.297667 13,10.52 V 4 h 2.75 v 4.77 c -0.04037,0.8961052 0.0099,1.793996 0.15,2.68 0.08785,0.315669 0.282165,0.591244 0.55,0.78 0.295084,0.198265 0.644625,0.299632 1,0.29 0.447281,0.0045 0.88462,-0.131974 1.25,-0.39 0.353842,-0.223724 0.62438,-0.557506 0.77,-0.95 0.17967,-0.921809 0.246827,-1.8620128 0.2,-2.8 V 4 h 2.75 v 10.33 z"
           id="🌈-u" />
        <path
           d="M 27.61,14.33 H 24.87 V 4 h 2.55 v 1.48 c 0.293594,-0.5367033 0.695404,-1.0066167 1.18,-1.38 0.352762,-0.2226588 0.76291,-0.3373612 1.18,-0.33 0.639957,0.0016 1.266781,0.1816797 1.81,0.52 L 30.74,6.68 C 30.362947,6.4076732 29.914626,6.2512822 29.45,6.23 c -0.360295,-0.012081 -0.713654,0.1009935 -1,0.32 -0.320009,0.3119105 -0.539412,0.712407 -0.63,1.15 -0.199207,1.1452731 -0.276305,2.308454 -0.23,3.47 z"
           id="🌈-r" />
        <path
           d="m 31.84,9 c 0.0014,-0.9218859 0.231636,-1.8290053 0.67,-2.64 0.418048,-0.8456809 1.08445,-1.5434833 1.91,-2 0.847784,-0.4551135 1.797909,-0.6857599 2.76,-0.67 1.434207,-0.030274 2.81698,0.5344187 3.82,1.56 1.00477,1.0287229 1.546492,2.4227554 1.5,3.86 0.0466,1.446155 -0.494547,2.849519 -1.5,3.89 -1.001287,1.027035 -2.386174,1.588965 -3.82,1.55 -0.9444,0.0037 -1.876337,-0.215574 -2.72,-0.64 -0.849602,-0.402878 -1.549755,-1.064522 -2,-1.89 C 32.006409,11.080217 31.793363,10.042479 31.84,9 Z m 2.81,0.15 c -0.06116,0.850369 0.199383,1.692682 0.73,2.36 0.455708,0.520023 1.113557,0.818237 1.805,0.818237 0.691443,0 1.349292,-0.298214 1.805,-0.818237 0.531924,-0.674379 0.792323,-1.5233522 0.73,-2.38 C 39.77804,8.2861349 39.517558,7.4511797 38.99,6.79 38.534292,6.2699772 37.876443,5.9717633 37.185,5.9717633 c -0.691443,0 -1.349292,0.2982139 -1.805,0.8182367 -0.528213,0.6647114 -0.788616,1.5029971 -0.73,2.35 z"
           id="path272994" />
        <path
           d="m 44.27,4 h 2.56 v 1.53 c 0.336644,-0.5296253 0.800822,-0.9662965 1.35,-1.27 0.570699,-0.3306434 1.220513,-0.5000098 1.88,-0.49 1.184791,-0.012358 2.312238,0.5091326 3.07,1.42 0.896808,1.1101613 1.346221,2.5154691 1.26,3.94 0.07198,1.442741 -0.378957,2.863019 -1.27,4 -0.772275,0.92129 -1.917954,1.446393 -3.12,1.43 -0.53925,0.0084 -1.07314,-0.10799 -1.56,-0.34 C 47.897316,13.914201 47.410414,13.518593 47,13.05 v 5.22 H 44.26 Z M 47,9 c -0.07179,0.9181747 0.175458,1.832996 0.7,2.59 0.402836,0.525367 1.027972,0.832386 1.69,0.83 0.619062,0.0064 1.206194,-0.274231 1.59,-0.76 0.48449,-0.746526 0.706185,-1.633305 0.63,-2.52 C 51.679711,8.2824377 51.450006,7.4272251 50.96,6.72 50.575984,6.2144824 49.974776,5.9213007 49.34,5.93 48.695193,5.9193031 48.080576,6.2026893 47.67,6.7 47.182293,7.3636024 46.944969,8.1782958 47,9 Z"
           id="🌈-p" />
        <path
           d="m 62.37,11 2.73,0.45 c -0.286903,0.924884 -0.870251,1.729624 -1.66,2.29 -0.844863,0.55301 -1.840999,0.829132 -2.85,0.79 -1.545235,0.114899 -3.045846,-0.549122 -4,-1.77 -0.705673,-1.052836 -1.05608,-2.303788 -1,-3.57 -0.0765,-1.4566948 0.406426,-2.8875793 1.35,-4 0.870771,-0.9586896 2.115267,-1.4915233 3.41,-1.46 1.383465,-0.068727 2.724244,0.4896244 3.65,1.52 0.990218,1.3482815 1.446192,3.0154356 1.28,4.68 h -6.87 c -0.02485,0.693511 0.210568,1.371242 0.66,1.9 0.403882,0.444021 0.979889,0.691923 1.58,0.68 0.392411,0.0096 0.776546,-0.113726 1.09,-0.35 0.323271,-0.313456 0.543079,-0.718181 0.63,-1.16 z M 62.53,8.22 C 62.55594,7.5605103 62.334852,6.9150747 61.91,6.41 61.547026,6.0098913 61.030188,5.7842297 60.49,5.79 59.921858,5.7767314 59.376746,6.014532 59,6.44 58.589769,6.9388304 58.385839,7.575662 58.43,8.22 Z"
           id="🌈-e" />
        <path
           d="M 69.54,7.12 67.05,6.67 c 0.204477,-0.8888462 0.71401,-1.6779154 1.44,-2.23 0.906929,-0.5310583 1.950834,-0.7815954 3,-0.72 0.929994,-0.047945 1.859771,0.098504 2.73,0.43 0.530631,0.2254835 0.975521,0.6143241 1.27,1.11 0.30277,0.7793161 0.429131,1.6160295 0.37,2.45 v 3.21 c -0.01835,0.669248 0.02517,1.338759 0.13,2 0.1048,0.485137 0.26939,0.955396 0.49,1.4 h -2.71 c -0.06667,-0.186667 -0.156667,-0.456667 -0.27,-0.81 0,-0.17 -0.08,-0.27 -0.09,-0.33 -0.436676,0.424448 -0.948791,0.763597 -1.51,1 -0.540379,0.230287 -1.122629,0.346056 -1.71,0.34 -0.921728,0.0527 -1.827108,-0.259868 -2.52,-0.87 -1.003466,-0.993229 -1.209027,-2.539046 -0.5,-3.76 0.280252,-0.4582447 0.686399,-0.8262069 1.17,-1.06 0.697949,-0.3011566 1.430019,-0.5160763 2.18,-0.64 0.909127,-0.1386858 1.803105,-0.3630174 2.67,-0.67 V 7.24 C 73.230961,6.8274882 73.088319,6.4178517 72.8,6.12 72.362477,5.8438633 71.844339,5.7240219 71.33,5.78 70.926163,5.7581705 70.525195,5.859284 70.18,6.07 69.861694,6.3441052 69.637773,6.7114748 69.54,7.12 Z m 3.67,2.23 c -0.35,0.11 -0.91,0.25 -1.67,0.42 -0.517715,0.079826 -1.020184,0.238323 -1.49,0.47 -0.342144,0.216288 -0.5468,0.595282 -0.54,1 -0.0034,0.378909 0.152677,0.741786 0.43,1 0.291656,0.281533 0.684841,0.433035 1.09,0.42 0.513327,-0.0086 1.010626,-0.180177 1.42,-0.49 0.312533,-0.22191 0.541447,-0.54239 0.65,-0.91 0.09194,-0.4404 0.128884,-0.890503 0.11,-1.34 z"
           id="🌈-a" />
        <path
           d="M 87.92,14.33 H 85.18 V 9 C 85.219179,8.2718436 85.158619,7.5417492 85,6.83 84.900624,6.5172367 84.700114,6.2463729 84.43,6.06 84.134587,5.864334 83.783749,5.7696076 83.43,5.79 82.973377,5.78526 82.526401,5.9214479 82.15,6.18 c -0.363114,0.2358583 -0.634776,0.5886667 -0.77,1 -0.176412,0.7803264 -0.247046,1.580839 -0.21,2.38 v 4.7 H 78.42 V 4 H 81 v 1.53 c 0.784061,-1.1101021 2.060946,-1.7672125 3.42,-1.76 0.570262,-0.00665 1.13564,0.105746 1.66,0.33 0.444371,0.1752717 0.836725,0.4609331 1.14,0.83 0.251972,0.343928 0.432212,0.7350133 0.53,1.15 0.115825,0.6095536 0.166111,1.2297488 0.15,1.85 z"
           id="path272999" />
      </g>
    </g>
  </g>
</svg>
