<?xml version="1.0" encoding="UTF-8" standalone="no"?>
<!-- Created with Inkscape (http://www.inkscape.org/) -->

<svg
   width="87.3125mm"
   height="23.283333mm"
   viewBox="0 0 87.312498 23.283333"
   version="1.1"
   id="svg271304"
   inkscape:version="1.1.2 (0a00cf5339, 2022-02-04)"
   sodipodi:docname="osha_logo.svg"
   xmlns:inkscape="http://www.inkscape.org/namespaces/inkscape"
   xmlns:sodipodi="http://sodipodi.sourceforge.net/DTD/sodipodi-0.dtd"
   xmlns="http://www.w3.org/2000/svg"
   xmlns:svg="http://www.w3.org/2000/svg">
  <sodipodi:namedview
     id="namedview271306"
     pagecolor="#ffffff"
     bordercolor="#111111"
     borderopacity="1"
     inkscape:pageshadow="0"
     inkscape:pageopacity="0"
     inkscape:pagecheckerboard="1"
     inkscape:document-units="mm"
     showgrid="false"
     inkscape:zoom="2.8222223"
     inkscape:cx="199.13386"
     inkscape:cy="9.566929"
     inkscape:window-width="1920"
     inkscape:window-height="1012"
     inkscape:window-x="0"
     inkscape:window-y="0"
     inkscape:window-maximized="1"
     inkscape:current-layer="layer1" />
  <defs
     id="defs271301">
    <style
       id="style271625">.cls-1{fill:#122e50;}.cls-2{fill:#fff;}.cls-3{fill:#231f20;}.cls-4,.cls-8{fill:#0075bf;}.cls-5{fill:#f7b16e;}.cls-6{fill:#f15d2f;}.cls-7{fill:#f0514e;}.cls-8{fill-rule:evenodd;}.cls-9{fill:#005aaa;}</style>
  </defs>
  <g
     inkscape:label="Layer 1"
     inkscape:groupmode="layer"
     id="layer1"
     transform="translate(-85.889159,-97.116848)">
    <g
       id="g271908"
       transform="matrix(4.5570199,0,0,1.2152053,83.97521,96.606462)">
      <circle
         class="cls-1"
         cx="10"
         cy="10"
         r="9.5799999"
         id="circle271631" />
      <path
         class="cls-2"
         d="M 1.13,10 A 8.87,8.87 0 1 1 10,18.87 8.87,8.87 0 0 1 1.13,10"
         id="path271633" />
      <path
         class="cls-3"
         d="m 10,19 a 9,9 0 1 1 9,-9 9,9 0 0 1 -9,9 z M 10,1.27 A 8.73,8.73 0 1 0 18.73,10 8.73,8.73 0 0 0 10,1.27 Z"
         id="path271635" />
      <path
         class="cls-4"
         d="M 3.11,10 A 6.85,6.85 0 1 1 10,16.84 6.85,6.85 0 0 1 3.11,10"
         id="path271637" />
      <path
         class="cls-3"
         d="m 10,17 a 7,7 0 1 1 7,-7 7,7 0 0 1 -7,7 z M 10,3.3 A 6.72,6.72 0 1 0 16.68,10 6.72,6.72 0 0 0 10,3.28 Z"
         id="path271639" />
      <path
         class="cls-5"
         d="m 7.05,10.07 h 5.86 l -0.31,0.37 v 4.38 l -0.28,0.55 -1.35,0.27 -0.6,0.14 -0.29,0.3 v 0.11 L 9.88,15.88 9.48,15.71 8.88,15.6 8.24,15.51 7.6,15.3 7.38,15 7.29,14.29 V 11.56 10.5 c 0,0 -0.41,-0.41 -0.25,-0.41"
         id="path271641" />
      <path
         class="cls-5"
         d="M 10,16.23 9.78,15.9 9.39,15.73 8.79,15.62 8.15,15.53 7.61,15.32 7.36,15 7.27,14.29 v -2.74 -1 C 7.2,10.4 7,10.16 7,10.08 c 0,-0.08 0,0 0,0 h 6 l -0.33,0.4 v 4.38 l -0.29,0.56 -1.36,0.27 -0.59,0.14 -0.28,0.3 z m -2.36,-1 0.53,0.21 0.63,0.09 0.61,0.1 0.4,0.19 0.19,0.27 v -0.07 l 0.3,-0.31 v 0 l 0.59,-0.14 1.34,-0.27 0.28,-0.54 0.05,-4.38 0.28,-0.34 H 7 c 0,0 0.11,0.2 0.28,0.37 v 0 1.07 2.73 l 0.1,0.71 z"
         id="path271643" />
      <rect
         class="cls-6"
         x="7.3299999"
         y="11.87"
         width="5.2199998"
         height="1.84"
         id="rect271645" />
      <path
         class="cls-7"
         d="M 12.57,13.74 H 7.3 v -1.89 h 5.27 z M 7.35,13.69 h 5.18 v -1.8 H 7.35 Z"
         id="path271647" />
      <path
         class="cls-3"
         d="M 10.56,13.33 H 9 l 1.06,-0.73 v 0 l 0.46,-0.31 0.08,0.11 -0.46,0.31 0.33,0.48 h 0.1 z M 9.84,13.19 h 0.46 l -0.24,-0.34 z m -0.41,0 h 0.26 l 0.19,-0.31 z m 1.7,-1.62 H 9 V 11.5 c 0,-0.25 0,-0.25 0,-0.27 0,-0.02 0,0 0.1,0 0.25,0 0.31,0 0.32,0 a 0.15,0.15 0 0 0 0,-0.19 0.66,0.66 0 0 0 -0.37,-0.07 H 9 a 0.58,0.58 0 0 1 -0.58,-0.4 v -0.08 h 3 v 0.34 h -0.07 c -0.32,0 -0.46,0.07 -0.46,0.23 0,0.16 0.09,0.23 0.23,0.26 h 0.05 v 0.3 z m -2,-0.13 H 11 v 0 0 a 0.33,0.33 0 0 1 -0.29,-0.38 c 0,-0.32 0.35,-0.36 0.54,-0.36 V 10.63 H 8.58 a 0.55,0.55 0 0 0 0.43,0.2 h 0.06 a 0.69,0.69 0 0 1 0.46,0.11 0.27,0.27 0 0 1 0,0.36 c 0,0.07 -0.19,0.08 -0.4,0.08 z"
         id="path271649" />
      <path
         class="cls-3"
         d="M 12.61,13.82 H 7.38 v -0.18 h 5.23 z m 0,-1.87 H 7.36 v -0.17 h 5.23 z"
         id="path271651" />
      <path
         class="cls-3"
         d="M 10,16.4 9.91,16.2 C 9.7,15.77 9.37,15.75 8.84,15.71 L 8.27,15.66 c -1,-0.14 -1,-0.54 -1,-1.14 v -4 c 0,-0.06 -0.08,-0.18 -0.31,-0.34 L 6.6,10 h 6.74 L 13,10.21 c -0.3,0.18 -0.3,0.29 -0.3,0.34 v 4 a 1,1 0 0 1 -0.76,1.1 5.63,5.63 0 0 1 -0.61,0.08 c -0.54,0.05 -1.05,0.09 -1.26,0.51 z M 7.27,10.2 a 0.47,0.47 0 0 1 0.16,0.32 v 4 c 0,0.5 0,0.8 0.83,0.92 l 0.55,0.05 c 0.49,0 0.89,0.06 1.16,0.45 a 1.87,1.87 0 0 1 1.34,-0.46 4.78,4.78 0 0 0 0.58,-0.08 c 0.39,-0.08 0.59,-0.38 0.59,-0.88 v -4 a 0.46,0.46 0 0 1 0.14,-0.33 z"
         id="path271653" />
      <path
         class="cls-3"
         d="M 8.18,12.69 A 0.13,0.13 0 0 1 8.31,12.55 0.14,0.14 0 0 1 8.45,12.69 0.14,0.14 0 0 1 8.31,12.83 0.14,0.14 0 0 1 8.18,12.69"
         id="path271655" />
      <path
         class="cls-3"
         d="m 8.31,12.85 a 0.16,0.16 0 0 1 0,-0.32 0.16,0.16 0 0 1 0,0.32 z m 0,-0.27 a 0.11,0.11 0 0 0 0,0.22 0.11,0.11 0 1 0 0,-0.22 z"
         id="path271657" />
      <path
         class="cls-3"
         d="M 8.31,13.28 A 0.59,0.59 0 1 1 8.9,12.69 0.58,0.58 0 0 1 8.31,13.28 Z M 8,13 a 0.53,0.53 0 0 0 0.21,0.11 c 0.16,-0.07 0.08,-0.32 0.08,-0.32 l 0.12,-0.05 a 0.44,0.44 0 0 1 0,0.37 0.45,0.45 0 0 0 0.28,-0.2 c 0,-0.16 -0.25,-0.17 -0.26,-0.17 v -0.13 0 l -0.1,-0.1 A 0.47,0.47 0 0 1 8.64,12.37 0.47,0.47 0 0 0 8.32,12.21 c -0.13,0.1 0,0.28 0,0.29 l -0.11,0.07 a 0.44,0.44 0 0 1 -0.05,-0.33 0.46,0.46 0 0 0 -0.2,0.14 c 0,0.17 0.26,0.2 0.26,0.2 v 0.14 a 0.44,0.44 0 0 1 -0.32,-0.18 0.5,0.5 0 0 0 0,0.12 0.58,0.58 0 0 0 0,0.19 c 0.16,0.08 0.28,-0.11 0.28,-0.12 L 8.3,12.8 A 0.46,0.46 0 0 1 8,13 Z m 0.44,-0.39 a 0.42,0.42 0 0 1 0.31,0.14 0.28,0.28 0 0 0 0,-0.09 0.59,0.59 0 0 0 0,-0.13 c -0.14,-0.05 -0.29,0.09 -0.3,0.11 z"
         id="path271659" />
      <path
         class="cls-3"
         d="m 7.75,13.28 a 0.11,0.11 0 0 1 0.1,-0.11 0.11,0.11 0 0 1 0.11,0.11 0.11,0.11 0 0 1 -0.11,0.1 0.11,0.11 0 0 1 -0.1,-0.1"
         id="path271661" />
      <path
         class="cls-3"
         d="m 8.66,13.28 a 0.11,0.11 0 0 1 0.11,-0.11 0.1,0.1 0 0 1 0.1,0.11 0.09,0.09 0 0 1 -0.1,0.1 0.1,0.1 0 0 1 -0.11,-0.1"
         id="path271663" />
      <path
         class="cls-3"
         d="m 11.54,12.78 a 0.1,0.1 0 0 1 0.11,-0.1 0.09,0.09 0 0 1 0.1,0.1 0.1,0.1 0 0 1 -0.1,0.11 0.11,0.11 0 0 1 -0.11,-0.11"
         id="path271665" />
      <path
         class="cls-3"
         d="m 10.82,12.47 a 0.11,0.11 0 0 1 0.11,-0.1 0.11,0.11 0 0 1 0.1,0.1 0.11,0.11 0 0 1 -0.1,0.11 0.11,0.11 0 0 1 -0.11,-0.11"
         id="path271667" />
      <path
         class="cls-3"
         d="m 10.75,13 a 0.1,0.1 0 0 1 0.11,-0.1 0.1,0.1 0 0 1 0.1,0.1 0.11,0.11 0 0 1 -0.1,0.11 A 0.11,0.11 0 0 1 10.75,13"
         id="path271669" />
      <path
         class="cls-3"
         d="M 10.08,15.38 A 0.13,0.13 0 0 1 9.99,15.33 0.89,0.89 0 0 0 9.73,15.16 1.47,1.47 0 0 0 9.4,15.06 C 9.28,15.06 9.16,15 9.17,14.86 v 0 L 9.09,14.73 C 8.96,14.52 8.75,14.16 8.56,14.14 A 0.76,0.76 0 0 0 8.1,14.27 L 8,14.11 A 0.87,0.87 0 0 1 8.59,14 c 0.17,0 0.32,0.2 0.45,0.38 a 1.94,1.94 0 0 1 0.52,-0.2 2.59,2.59 0 0 1 1,0 v 0 l 1.18,0.18 v 0.13 h -0.25 v 0.18 h -0.14 v -0.2 l -0.79,-0.12 h -0.11 v 0.19 h -0.14 v -0.21 h -0.23 v 0 A 0.4,0.4 0 0 0 9.7,14.66 c 0.07,0 0.11,0 0.13,0.08 a 1.37,1.37 0 0 0 0.49,0.49 l 0.14,0.08 -0.22,0.06 a 0.4,0.4 0 0 0 -0.15,0.07 z M 9.3,14.87 v 0 h 0.13 a 1.53,1.53 0 0 1 0.36,0.11 1,1 0 0 1 0.29,0.19 v 0 h 0.07 a 1.36,1.36 0 0 1 -0.42,-0.46 0.55,0.55 0 0 0 -0.29,0 0.38,0.38 0 0 0 -0.14,0.16 z M 9.12,14.45 c 0,0.06 0.07,0.11 0.1,0.16 l 0.06,0.1 a 1.38,1.38 0 0 1 0.3,-0.11 v 0 a 0.69,0.69 0 0 1 0.2,-0.36 0.63,0.63 0 0 0 -0.19,0 1.71,1.71 0 0 0 -0.47,0.21 z m 3,-1.12 H 11 v -0.74 l 1.12,0.62 z m -1,-0.13 h 0.7 l -0.7,-0.39 z"
         id="path271671" />
      <path
         class="cls-3"
         d="m 11.68,14.44 a 0.11,0.11 0 1 1 0.11,0.11 0.11,0.11 0 0 1 -0.11,-0.11"
         id="path271673" />
      <path
         class="cls-3"
         d="m 11.79,14.56 a 0.12,0.12 0 1 1 0.12,-0.12 0.12,0.12 0 0 1 -0.12,0.12 z m 0,-0.22 a 0.1,0.1 0 0 0 -0.1,0.1 0.09,0.09 0 0 0 0.1,0.1 0.1,0.1 0 0 0 0.1,-0.1 0.11,0.11 0 0 0 -0.1,-0.1 z"
         id="path271675" />
      <path
         class="cls-3"
         d="m 10.4,14.39 c 0.15,0.13 0.22,0.21 0.24,0.29 0.02,0.08 -0.34,0 -0.36,-0.14 -0.02,-0.14 0.09,-0.18 0.12,-0.15"
         id="path271677" />
      <path
         class="cls-3"
         d="M 10.59,14.74 H 10.5 c -0.09,0 -0.22,-0.11 -0.23,-0.17 a 0.22,0.22 0 0 1 0.09,-0.17 c 0,0 0,0 0.05,0 v 0 a 0.8,0.8 0 0 1 0.24,0.29 0.12,0.12 0 0 1 0,0.05 z m -0.2,-0.34 v 0 c 0,0 -0.09,0.1 -0.08,0.14 0.01,0.04 0.11,0.12 0.22,0.16 0.11,0.04 0.1,0 0.11,0 0,-0.07 -0.09,-0.15 -0.24,-0.28 z"
         id="path271679" />
      <path
         class="cls-3"
         d="m 11.31,14.75 a 0.14,0.14 0 0 1 0.14,-0.14 0.13,0.13 0 0 1 0.13,0.14 0.14,0.14 0 0 1 -0.13,0.14 0.14,0.14 0 0 1 -0.14,-0.14"
         id="path271681" />
      <path
         class="cls-3"
         d="m 11.45,14.9 a 0.15,0.15 0 1 1 0,-0.3 0.15,0.15 0 0 1 0,0.3 z m 0,-0.28 a 0.13,0.13 0 0 0 -0.13,0.13 0.12,0.12 0 0 0 0.13,0.12 0.12,0.12 0 0 0 0.12,-0.12 0.12,0.12 0 0 0 -0.12,-0.13 z"
         id="path271683" />
      <path
         class="cls-5"
         d="m 6.86,4.94 c 0,-0.24 2,0.68 2.22,1.09 0.22,0.41 0,0.32 0,0.57 A 0.3,0.3 0 0 0 9.35,6.92 0.32,0.32 0 0 0 9.68,6.73 C 9.74,6.55 9.63,6.22 9.42,6.32 9.21,6.42 9.48,6.02 9.66,6.14 c 0.18,0.12 0.1,-0.09 0.29,-0.1 0.19,-0.01 0.18,0.31 0.17,0.43 -0.01,0.12 0.09,0.52 0.34,0.42 0.25,-0.1 0,-0.42 0.16,-0.76 A 4.07,4.07 0 0 1 13,4.91 c 0.26,0 0.1,0.17 0,0.27 -0.1,0.1 0.06,0.29 -0.26,0.61 -0.06,0.06 0.16,0.25 -0.47,0.73 -0.08,0.07 0.13,0.43 -0.56,0.63 -0.15,0 0.09,0.21 -0.12,0.44 -0.21,0.23 0.16,0.36 -0.16,0.47 -0.1,0 0.11,0.32 -0.24,0.37 -0.09,0 -0.09,0.47 -0.51,0.14 -0.13,-0.1 0.08,0.3 0,0.27 a 0.26,0.26 0 0 1 -0.13,-0.07 0.51,0.51 0 0 0 0.12,0.41 c 0.1,0.08 0.08,0.46 -0.22,0.26 0,0 0,0.31 -0.25,0.14 0,0 -0.14,0.26 -0.33,0 0,0 -0.22,0.19 -0.25,-0.1 0,-0.05 -0.11,0.15 -0.24,0 C 9.25,9.33 9.44,9.17 9.47,9.13 9.5,9.09 9.47,8.9 9.47,8.81 9.47,8.72 9.4,8.95 9.31,8.81 9.22,8.67 9.45,8.46 9.31,8.51 8.92,8.71 8.97,8.43 8.91,8.42 8.56,8.42 8.77,8.11 8.67,8.11 8.24,8.11 8.51,7.67 8.42,7.63 8.11,7.51 8.42,7.24 8.31,7.21 7.62,6.93 7.94,6.72 7.78,6.63 7.13,6.25 7.47,6.05 7.38,5.95 7.29,5.85 6.9,5.57 7,5.26 6.93,5.12 6.79,5.17 6.85,4.94"
         id="path271685" />
      <path
         class="cls-3"
         d="m 9.94,9.78 v 0 A 0.28,0.28 0 0 1 9.77,9.67 0.2,0.2 0 0 1 9.57,9.67 0.24,0.24 0 0 1 9.49,9.58 0.22,0.22 0 0 1 9.24,9.51 C 9.13,9.39 9.15,9.24 9.31,9.06 v 0 c 0,0 0,-0.06 0,-0.13 v 0 c 0,0 -0.09,0 -0.11,0 A 0.18,0.18 0 0 1 9.2,8.72 0.34,0.34 0 0 1 9,8.72 0.24,0.24 0 0 1 8.86,8.58 0.27,0.27 0 0 1 8.61,8.26 0.36,0.36 0 0 1 8.39,8.15 0.43,0.43 0 0 1 8.34,7.81 v 0 A 0.3,0.3 0 0 1 8.21,7.39 v 0 C 7.78,7.2 7.74,7.03 7.74,6.87 c 0,-0.16 0,0 0,0 C 7.25,6.59 7.26,6.38 7.3,6.2 L 7.18,6 C 7.01,5.81 6.83,5.62 6.91,5.32 v 0 A 0.25,0.25 0 0 1 6.81,5.01 v 0 A 0.15,0.15 0 0 1 6.94,4.9 4.83,4.83 0 0 1 9.16,6 a 0.45,0.45 0 0 1 0.08,0.45 0.4,0.4 0 0 0 0,0.17 0.21,0.21 0 0 0 0.18,0.23 0.24,0.24 0 0 0 0.25,-0.13 0.32,0.32 0 0 0 -0.06,-0.29 0.06,0.06 0 0 0 -0.08,0 0.13,0.13 0 0 1 -0.15,0 c 0,-0.08 0,-0.18 0.07,-0.25 A 0.25,0.25 0 0 1 9.78,6.11 v 0 A 0.28,0.28 0 0 1 10,6 a 0.24,0.24 0 0 1 0.21,0.08 0.47,0.47 0 0 1 0.06,0.41 v 0 a 0.36,0.36 0 0 0 0.09,0.32 0.11,0.11 0 0 0 0.13,0 c 0.11,0 0.11,-0.1 0.08,-0.27 A 0.75,0.75 0 0 1 10.57,6.1 4.17,4.17 0 0 1 13,4.82 c 0.12,0 0.2,0 0.23,0.09 0.03,0.09 -0.1,0.26 -0.18,0.33 v 0 A 0.77,0.77 0 0 1 12.8,5.79 v 0 c 0,0.18 0,0.39 -0.49,0.73 v 0 c 0,0.15 0,0.44 -0.58,0.61 v 0 a 0.39,0.39 0 0 1 -0.09,0.4 c 0,0 0,0.06 0,0.13 a 0.27,0.27 0 0 1 -0.17,0.36 v 0 a 0.29,0.29 0 0 1 -0.26,0.35 v 0 A 0.35,0.35 0 0 1 11,8.59 a 0.36,0.36 0 0 1 -0.24,0 0.17,0.17 0 0 1 0,0.17 0.11,0.11 0 0 1 -0.11,0 v 0 a 0.28,0.28 0 0 0 0.09,0.19 0.33,0.33 0 0 1 0,0.39 0.2,0.2 0 0 1 -0.25,0.07 0.18,0.18 0 0 1 -0.1,0.13 0.21,0.21 0 0 1 -0.2,0 0.27,0.27 0 0 1 -0.25,0.24 z M 9.78,9.48 a 0.09,0.09 0 0 1 0.08,0 c 0,0.06 0.07,0.08 0.08,0.08 H 10 a 0.12,0.12 0 0 1 0.16,-0.05 0.19,0.19 0 0 0 0.09,0 c 0,0 0,0 0,-0.07 a 0.11,0.11 0 0 1 0.06,-0.11 v 0 h 0.05 c 0,0 0.1,0.05 0.11,0 a 0.14,0.14 0 0 0 0,-0.15 0.6,0.6 0 0 1 -0.16,-0.49 V 8.47 l 0.11,0.16 c 0,-0.1 0,-0.18 0,-0.22 0,-0.04 0.07,0 0.14,0 0.07,0 0.19,0.1 0.21,0.1 0.02,0 0.07,-0.07 0.1,-0.13 C 10.9,8.32 10.93,8.26 11,8.25 11.07,8.24 11.14,8.18 11.13,8.09 11.12,8 11.13,7.92 11.22,7.89 11.31,7.86 11.33,7.83 11.31,7.73 a 0.29,0.29 0 0 1 0,-0.29 0.23,0.23 0 0 0 0,-0.24 c 0,-0.06 0,-0.19 0.11,-0.23 0.45,-0.13 0.46,-0.32 0.46,-0.44 a 0.27,0.27 0 0 1 0.06,-0.17 c 0.45,-0.34 0.44,-0.51 0.43,-0.59 a 0.19,0.19 0 0 1 0,-0.14 0.65,0.65 0 0 0 0.21,-0.45 c 0,-0.06 0,-0.12 0.06,-0.16 L 13,5 v 0 a 4.11,4.11 0 0 0 -2.24,1.16 0.63,0.63 0 0 0 0,0.36 c 0,0.15 0,0.35 -0.2,0.45 a 0.29,0.29 0 0 1 -0.3,0 0.58,0.58 0 0 1 -0.16,-0.49 v 0 c 0,-0.07 0,-0.22 0,-0.27 0,-0.05 0,0 -0.07,0 -0.07,0 -0.06,0 -0.09,0 -0.03,0 -0.1,0.12 -0.24,0 H 9.58 9.69 A 0.49,0.49 0 0 1 9.81,6.7 0.42,0.42 0 0 1 9.39,7 0.4,0.4 0 0 1 9,6.6 0.68,0.68 0 0 1 9,6.37 C 9,6.3 9,6.25 8.94,6.07 A 5.11,5.11 0 0 0 6.94,5 c 0,0.06 0,0.07 0,0.1 A 0.26,0.26 0 0 1 7.06,5.23 V 5.3 c -0.07,0.21 0,0.34 0.22,0.54 l 0.09,0.09 a 0.22,0.22 0 0 1 0,0.19 c 0,0.1 0,0.24 0.36,0.47 a 0.21,0.21 0 0 1 0.09,0.2 c 0,0.09 0,0.21 0.42,0.38 0.11,0 0.07,0.16 0.05,0.21 -0.02,0.05 -0.06,0.16 0.07,0.21 0.13,0.05 0.07,0.14 0.06,0.22 -0.01,0.08 0,0.15 0,0.2 0,0.05 0.09,0 0.14,0.05 a 0.09,0.09 0 0 1 0.08,0 0.18,0.18 0 0 1 0,0.14 c 0,0.08 0,0.12 0.12,0.13 a 0.14,0.14 0 0 1 0.11,0.1 c 0,0 0,0 0,0.06 a 0.39,0.39 0 0 0 0.21,-0.06 0.11,0.11 0 0 1 0.13,0 c 0.05,0 0,0.12 0,0.19 v 0 0 c 0.05,-0.06 0.09,-0.07 0.14,0 0.05,0.07 0,0.1 0,0.18 0,0.08 0,0 0,0.07 a 0.31,0.31 0 0 1 0,0.27 v 0 C 9.24,9.26 9.24,9.31 9.28,9.35 c 0.04,0.04 0.05,0 0.09,0 a 0.11,0.11 0 0 1 0.12,0 v 0 0.06 a 0.12,0.12 0 0 0 0,0.08 c 0,0 0,0 0,0 A 0.19,0.19 0 0 1 9.78,9.48 Z M 8.85,8.54 Z M 11.4,8.15 Z"
         id="path271687" />
      <path
         class="cls-3"
         d="m 10,9.74 c -0.19,0 -0.19,-0.22 -0.19,-0.39 0,-0.17 0,-0.15 0,-0.22 A 0.54,0.54 0 0 1 9.59,9.57 L 9.51,9.41 C 9.61,9.36 9.63,9.18 9.64,9.1 a 0.56,0.56 0 0 1 0,-0.07 H 9.79 A 0.23,0.23 0 0 0 9.67,9 L 9.79,8.87 a 0.69,0.69 0 0 1 0.14,0.52 0.67,0.67 0 0 0 0,0.23 c 0,0 0,-0.19 0,-0.29 0,-0.1 0,-0.51 0.23,-0.51 V 9 c 0,0 0,0.05 0,0.11 h 0.15 c 0,0 0,0 0,0.07 0,0.07 0,0.26 0.13,0.31 l -0.08,0.16 a 0.52,0.52 0 0 1 -0.22,-0.41 0.53,0.53 0 0 1 0,0.14 c 0,0.13 -0.01,0.36 -0.14,0.36 z M 8.79,8.51 V 8.33 c 0,0 0.11,-0.07 0.2,-0.22 A 0.66,0.66 0 0 0 9.1,7.73 v 0 C 9.02,7.93 8.81,8.23 8.61,8.26 V 8.08 c 0,0 0.12,-0.07 0.22,-0.19 A 0.78,0.78 0 0 0 8.99,7.56 v 0 -0.07 L 8.86,7.6 A 0.72,0.72 0 0 1 8.38,7.74 L 8.43,7.57 A 0.46,0.46 0 0 0 8.75,7.45 0.38,0.38 0 0 0 8.91,7.3 L 8.75,7.12 A 0.66,0.66 0 0 1 8.27,7.35 V 7.13 A 0.54,0.54 0 0 0 8.63,6.94 0.6,0.6 0 0 1 8.54,6.79 1.62,1.62 0 0 1 7.72,6.7 L 7.79,6.54 A 1.64,1.64 0 0 0 8.46,6.63 0.86,0.86 0 0 1 8.39,6.42 1,1 0 0 1 7.92,6.34 0.87,0.87 0 0 1 7.7,6.17 0.53,0.53 0 0 0 7.27,6 V 5.8 A 0.72,0.72 0 0 1 7.74,6 0.94,0.94 0 0 0 7.9,6.14 0.94,0.94 0 0 0 8.27,6.21 1.62,1.62 0 0 1 8.27,6 0.76,0.76 0 0 1 7.75,5.83 1,1 0 0 1 7.57,5.65 C 7.43,5.47 7.23,5.23 7.04,5.27 V 5.1 C 7.34,5.02 7.57,5.32 7.75,5.53 A 1.4,1.4 0 0 0 7.89,5.69 0.5,0.5 0 0 0 8.37,5.8 v 0 L 8.46,5.86 V 6 A 1.33,1.33 0 0 0 8.8,7 2,2 0 0 1 9,6.07 l 0.16,0.08 a 1.22,1.22 0 0 0 0,1.45 v 0 L 9.24,7.67 A 1.14,1.14 0 0 0 10.6,7.61 C 10.95,7.28 10.92,6.76 10.53,6.15 l 0.15,-0.1 a 2.06,2.06 0 0 1 0.34,0.91 1.49,1.49 0 0 0 0.39,-1.06 0.1,0.1 0 0 1 0,-0.1 v 0 0 c 0,0 0.22,0 0.48,-0.17 l 0.14,-0.14 c 0.16,-0.19 0.41,-0.47 0.7,-0.4 v 0.17 c -0.19,0 -0.39,0.18 -0.53,0.35 l -0.16,0.17 a 0.92,0.92 0 0 1 -0.54,0.2 1.1,1.1 0 0 1 0,0.18 0.35,0.35 0 0 0 0.28,-0.07 c 0,0 0.51,-0.49 0.8,-0.4 l -0.05,0.17 c -0.12,0 -0.48,0.21 -0.62,0.35 a 0.56,0.56 0 0 1 -0.44,0.13 c 0,0.07 0,0.14 -0.07,0.22 a 1.19,1.19 0 0 0 0.68,-0.15 l 0.12,0.13 a 1.28,1.28 0 0 1 -0.87,0.18 1.27,1.27 0 0 1 -0.18,0.27 c 0.18,0 0.37,0.09 0.42,0.21 l -0.16,0.07 a 0.6,0.6 0 0 0 -0.4,-0.1 l -0.08,0.07 v 0 a 0.57,0.57 0 0 1 0.24,0.09 0.63,0.63 0 0 1 0.3,0.28 h -0.18 c 0,0 -0.08,-0.11 -0.2,-0.18 A 0.45,0.45 0 0 0 11,7.47 v 0.07 a 1.25,1.25 0 0 1 0.47,0.52 H 11.3 A 1.17,1.17 0 0 0 10.9,7.63 0.17,0.17 0 0 1 10.84,7.69 l -0.07,0.06 v 0 c 0,0.08 0.24,0.49 0.48,0.53 v 0.18 a 0.91,0.91 0 0 1 -0.49,-0.39 1.35,1.35 0 0 1 -0.12,-0.22 1.33,1.33 0 0 1 -1.31,0 c 0,0 0,0 0,0.06 C 9.17,8.15 9,8.49 8.79,8.51 Z m 1.92,-0.7 z M 10.07,8.4 H 9.79 V 8.22 h 0.28 z M 10,7.66 A 0.86,0.86 0 0 1 9.59,7.56 0.71,0.71 0 0 1 9.24,6.88 h 0.18 a 0.52,0.52 0 0 0 0.26,0.51 0.63,0.63 0 0 0 0.65,0 0.58,0.58 0 0 0 0.22,-0.58 h 0.18 A 0.76,0.76 0 0 1 10.43,7.56 0.82,0.82 0 0 1 10,7.66 Z M 10,7.29 A 0.55,0.55 0 0 1 9.5,6.93 L 9.66,6.85 C 9.79,7.14 10,7.13 10.11,7.09 a 0.29,0.29 0 0 0 0.21,-0.17 h 0.17 c 0,0.14 -0.12,0.31 -0.33,0.37 a 0.41,0.41 0 0 1 -0.22,0 z"
         id="path271689" />
      <path
         class="cls-3"
         d="M 10.35,9.1 A 0.31,0.31 0 0 1 10.19,9 0.38,0.38 0 0 1 10,8.81 V 8.76 a 1.28,1.28 0 0 1 0,-0.28 c 0,-0.35 0,-0.63 0.31,-0.65 v 0 a 0.34,0.34 0 0 1 0.33,0.34 v 0.59 a 0.33,0.33 0 0 1 -0.26,0.33 z m 0,-1.09 c -0.12,0 -0.14,0.08 -0.14,0.47 a 1,1 0 0 0 0,0.25 v 0 c 0,0 0.11,0.14 0.15,0.14 A 0.17,0.17 0 0 0 10.47,8.71 V 8.17 C 10.47,8.17 10.42,8 10.32,8 Z"
         id="path271691" />
      <path
         class="cls-3"
         d="m 9.5,9.12 a 0.21,0.21 0 0 1 -0.12,0 0.38,0.38 0 0 1 -0.13,-0.3 v 0 a 1,1 0 0 1 0,-0.26 c 0,-0.36 0,-0.63 0.3,-0.65 v 0 a 0.33,0.33 0 0 1 0.32,0.33 v 0.21 a 3.38,3.38 0 0 1 0,0.45 0.32,0.32 0 0 1 -0.24,0.27 z m 0,-1.1 c -0.12,0 -0.14,0.07 -0.14,0.47 a 0.53,0.53 0 0 0 0,0.2 0.2,0.2 0 0 1 0,0.09 0.19,0.19 0 0 0 0.05,0.15 h 0.06 c 0.08,0 0.11,0 0.12,-0.12 a 2.91,2.91 0 0 0 0,-0.42 1.62,1.62 0 0 1 0,-0.22 A 0.15,0.15 0 0 0 9.52,8 Z"
         id="path271693" />
      <polygon
         class="cls-3"
         points="9.41,6.32 9.61,6.32 9.61,6.41 9.27,6.41 9.39,6.16 9.47,6.2 "
         id="polygon271695" />
      <path
         class="cls-8"
         d="M 2.84,8.09 3,7.71 A 0.5,0.5 0 0 0 3,7.26 0.58,0.58 0 0 0 2.66,7 0.51,0.51 0 0 0 2.24,7 0.48,0.48 0 0 0 2,7.31 L 1.85,7.72 v 0 C 1.85,7.62 1.9,7.61 2,7.65 L 2.69,7.9 c 0.09,0 0.1,0 0.06,0.15 z M 2.06,7.51 C 2,7.49 2,7.48 2,7.44 v -0.1 a 0.31,0.31 0 0 1 0.19,-0.21 0.58,0.58 0 0 1 0.38,0 0.47,0.47 0 0 1 0.28,0.2 0.33,0.33 0 0 1 0,0.32 v 0.07 c 0,0 0,0 -0.1,0 z"
         id="path271697" />
      <path
         class="cls-4"
         d="M 3.59,6.36 3.4,6.2 v 0.06 c 0.13,0.11 0.13,0.13 0.09,0.2 L 3.4,6.64 c 0,0 0,0 -0.08,0 L 2.98,6.46 3,6.33 c 0,-0.06 0,-0.06 0.17,0 v 0 L 2.85,6.16 v 0 C 2.97,6.23 2.98,6.24 2.95,6.3 L 2.88,6.43 2.57,6.27 c 0,0 -0.06,0 0,-0.08 L 2.64,6.06 c 0,-0.08 0.05,-0.09 0.21,0 V 6 L 2.62,5.92 2.33,6.49 v 0 c 0,-0.09 0.07,-0.09 0.16,0 l 0.64,0.34 c 0.1,0.05 0.1,0.06 0.05,0.15 v 0 z"
         id="path271699" />
      <path
         class="cls-8"
         d="m 3.65,5.94 c 0.08,0.06 0.09,0.07 0,0.15 v 0 L 4,5.8 H 3.95 C 3.89,5.9 3.87,5.9 3.79,5.8 L 3.54,5.62 v 0 A 0.55,0.55 0 0 0 3.65,5.33 0.32,0.32 0 0 0 3.51,5.12 0.28,0.28 0 0 0 3.27,5.12 0.47,0.47 0 0 0 3.06,5.3 l -0.2,0.3 v 0 C 2.92,5.52 2.93,5.52 3.02,5.6 Z M 3.1,5.26 a 0.2,0.2 0 0 1 0.13,-0.1 0.25,0.25 0 0 1 0.18,0 0.27,0.27 0 0 1 0.12,0.16 0.28,0.28 0 0 1 0,0.17 V 5.55 L 3.22,5.33 c -0.06,0 -0.06,0 -0.05,-0.08 z"
         id="path271701" />
      <path
         class="cls-8"
         d="m 4.34,4.79 0.17,0.08 c 0.07,0 0.09,0 0,0.11 v 0 L 4.73,4.74 v 0 c 0,0 -0.06,0 -0.14,0 L 3.68,4.35 3.62,4.42 4.13,5.28 c 0,0.06 0,0.08 0,0.12 v 0 L 4.29,5.22 v 0 c -0.05,0.06 -0.07,0 -0.12,0 L 4.07,5.07 Z M 4.27,4.79 4.07,5 3.8,4.56 v 0 z"
         id="path271703" />
      <path
         class="cls-8"
         d="M 5,3.91 A 0.3,0.3 0 0 0 5.07,3.72 0.22,0.22 0 0 0 5,3.54 0.24,0.24 0 0 0 4.78,3.44 0.4,0.4 0 0 0 4.52,3.57 L 4.23,3.81 v 0 c 0.08,-0.07 0.1,-0.07 0.17,0 l 0.46,0.56 c 0.07,0.08 0.07,0.1 0,0.16 v 0 L 5.15,4.29 v 0 C 5.08,4.35 5.06,4.35 4.99,4.29 L 4.79,4.04 4.93,4 5.44,4.21 5.61,4.06 v 0 c 0,0 -0.07,0 -0.17,0 z M 4.55,3.76 c 0,-0.06 -0.06,-0.07 0,-0.09 v 0 a 0.21,0.21 0 0 1 0.31,0 A 0.27,0.27 0 0 1 5,3.82 0.28,0.28 0 0 1 4.87,4 H 4.81 Z"
         id="path271705" />
      <path
         class="cls-4"
         d="M 5.64,2.88 5.77,2.79 c 0.08,0 0.09,0 0.21,0.09 v 0 L 5.82,2.68 5.15,3.1 5.26,3.33 H 5.31 C 5.25,3.16 5.25,3.15 5.31,3.1 L 5.51,3 5.95,3.7 c 0,0.09 0,0.11 0,0.17 v 0 L 6.32,3.64 v 0 C 6.21,3.71 6.2,3.7 6.14,3.64 Z"
         id="path271707" />
      <path
         class="cls-4"
         d="M 7.05,2.12 7.1,3 V 3 L 6.51,2.32 6.26,2.43 v 0.05 c 0.09,0 0.1,0 0.14,0.06 l 0.27,0.68 c 0,0.1 0,0.11 -0.05,0.15 V 3.42 L 6.88,3.31 v 0 c -0.08,0 -0.1,0 -0.14,-0.07 L 6.47,2.57 v 0 L 7.1,3.29 v 0 -1 0 L 7.4,3 c 0,0.09 0,0.11 -0.05,0.14 V 3.19 L 7.71,3 V 3 C 7.62,3 7.6,3 7.57,2.94 L 7.29,2.26 c 0,-0.1 0,-0.11 0.06,-0.15 V 2.06 Z"
         id="path271709" />
      <path
         class="cls-4"
         d="M 8.6,2.78 V 2.54 H 8.52 c 0,0.17 0,0.19 -0.09,0.21 L 8.23,2.8 c 0,0 0,0 -0.06,-0.06 L 8.08,2.36 h 0.15 c 0.06,0 0.07,0 0.11,0.12 H 8.4 L 8.31,2.12 H 8.25 c 0,0.13 0,0.15 0,0.16 H 8.1 L 8,2 C 8,1.95 8,1.94 8,1.92 h 0.15 c 0.08,0 0.09,0 0.17,0.13 L 8.4,2 8.3,1.78 7.68,1.94 7.7,2 C 7.8,2 7.81,2 7.84,2.08 L 8,2.75 C 8,2.85 8,2.87 7.92,2.89 V 3 Z"
         id="path271711" />
      <path
         class="cls-8"
         d="M 9.05,1.64 H 8.78 v 0.05 c 0.11,0 0.12,0 0.13,0.11 L 9,2.55 C 9,2.66 9,2.67 8.9,2.68 v 0 H 9.2 V 2.65 c -0.1,0 -0.11,0 -0.12,-0.1 L 9,1.79 v 0 L 9.66,2.68 H 9.77 L 9.69,1.77 c 0,-0.11 0,-0.12 0.1,-0.13 v 0 h -0.3 v 0 c 0.11,0 0.12,0 0.13,0.11 l 0.06,0.7 v 0 z"
         id="path271713" />
      <path
         class="cls-4"
         d="m 10.65,1.69 h 0.16 c 0.08,0 0.1,0 0.12,0.19 H 11 V 1.62 h -0.78 v 0.25 h 0.06 c 0,-0.17 0.06,-0.18 0.14,-0.17 h 0.16 l -0.06,0.83 c 0,0.1 0,0.11 -0.14,0.1 v 0.06 h 0.43 V 2.64 c -0.13,0 -0.13,0 -0.12,-0.12 z"
         id="path271715" />
      <path
         class="cls-8"
         d="m 12.16,3 a 0.47,0.47 0 0 0 0.39,0 0.63,0.63 0 0 0 0.25,-0.36 0.59,0.59 0 0 0 0,-0.46 0.5,0.5 0 0 0 -0.31,-0.18 0.52,0.52 0 0 0 -0.37,0 0.57,0.57 0 0 0 -0.27,0.37 0.6,0.6 0 0 0 0,0.44 0.43,0.43 0 0 0 0.31,0.24 z m 0.31,-1 a 0.3,0.3 0 0 1 0.19,0.16 0.59,0.59 0 0 1 0,0.41 0.71,0.71 0 0 1 -0.21,0.34 0.27,0.27 0 0 1 -0.25,0 A 0.34,0.34 0 0 1 12,2.74 0.7,0.7 0 0 1 12,2.34 0.58,0.58 0 0 1 12.21,2 0.28,0.28 0 0 1 12.46,2 Z"
         id="path271717" />
      <path
         class="cls-4"
         d="M 13.7,2.82 H 13.64 C 13.58,2.93 13.56,2.94 13.5,2.91 L 13.37,2.85 13.52,2.53 c 0,0 0,-0.06 0.08,0 l 0.15,0.07 c 0.07,0 0.08,0 0.05,0.21 h 0.06 L 13.92,2.57 13.34,2.3 v 0 c 0.09,0.05 0.09,0.06 0,0.16 l -0.31,0.66 c 0,0.09 -0.06,0.1 -0.15,0 v 0.05 l 0.36,0.17 V 3.29 c -0.11,0 -0.11,-0.06 -0.07,-0.16 l 0.15,-0.3 0.13,0.06 c 0,0 0.06,0 0,0.17 h 0.06 z"
         id="path271719" />
      <path
         class="cls-4"
         d="m 14.84,4.12 h -0.06 c -0.13,0.12 -0.15,0.12 -0.22,0.07 l -0.13,-0.1 c 0,0 0,0 0,-0.08 L 14.88,3.4 c 0.06,-0.09 0.08,-0.1 0.16,0 V 3.35 L 14.73,3.13 v 0 c 0.08,0.06 0.09,0.08 0,0.16 l -0.42,0.59 c -0.07,0.09 -0.08,0.09 -0.16,0 v 0.05 l 0.51,0.37 z"
         id="path271721" />
      <path
         class="cls-8"
         d="m 15.48,4.62 -0.09,0.17 c 0,0.07 -0.05,0.09 -0.11,0 v 0 l 0.23,0.23 v 0 c 0,0 0,0 0,-0.14 L 15.94,4 H 15.88 L 15,4.42 c -0.07,0 -0.09,0 -0.12,0 v 0 l 0.17,0.17 v 0 C 14.99,4.53 15,4.52 15.05,4.47 l 0.16,-0.09 z m 0,-0.06 -0.21,-0.22 0.44,-0.24 v 0 z"
         id="path271723" />
      <path
         class="cls-8"
         d="m 16.43,4.63 c 0.06,0.08 0.06,0.1 0,0.16 l -0.58,0.44 c -0.08,0.06 -0.1,0.06 -0.16,0 v 0 l 0.24,0.32 c 0.09,0.12 0.16,0.17 0.24,0.18 a 0.27,0.27 0 0 0 0.22,-0.07 0.22,0.22 0 0 0 0.1,-0.18 0.4,0.4 0 0 0 -0.08,-0.23 v 0 a 0.37,0.37 0 0 0 0.2,0.11 0.24,0.24 0 0 0 0.18,0 0.23,0.23 0 0 0 0.09,-0.18 0.43,0.43 0 0 0 -0.12,-0.26 L 16.54,4.63 Z m 0.11,0.25 c 0,0 0.05,0 0.07,0 v 0.05 a 0.17,0.17 0 0 1 0,0.14 0.24,0.24 0 0 1 -0.25,0.17 0.24,0.24 0 0 1 -0.14,-0.09 V 5.09 Z M 16.2,5.14 16.26,5.22 A 0.21,0.21 0 0 1 16.32,5.39 0.19,0.19 0 0 1 16.23,5.54 0.32,0.32 0 0 1 16.05,5.61 0.17,0.17 0 0 1 15.92,5.53 L 15.87,5.46 c 0,0 0,0 0,-0.09 z"
         id="path271725" />
      <path
         class="cls-8"
         d="m 16.47,6.52 a 0.45,0.45 0 0 0 0.3,0.26 0.68,0.68 0 0 0 0.43,-0.09 0.59,0.59 0 0 0 0.3,-0.34 0.55,0.55 0 0 0 -0.33,-0.61 0.57,0.57 0 0 0 -0.46,0.08 0.59,0.59 0 0 0 -0.3,0.31 0.47,0.47 0 0 0 0.06,0.39 z M 17.39,6 a 0.33,0.33 0 0 1 0,0.26 0.58,0.58 0 0 1 -0.3,0.27 0.59,0.59 0 0 1 -0.38,0.1 0.31,0.31 0 0 1 -0.21,-0.15 0.34,0.34 0 0 1 0,-0.26 0.7,0.7 0 0 1 0.29,-0.22 0.56,0.56 0 0 1 0.39,-0.1 0.29,0.29 0 0 1 0.21,0.15 z"
         id="path271727" />
      <path
         class="cls-8"
         d="m 17.49,7.53 a 0.31,0.31 0 0 0 0.14,0.14 0.23,0.23 0 0 0 0.2,0 A 0.27,0.27 0 0 0 18,7.51 0.51,0.51 0 0 0 18,7.22 L 17.88,6.86 h -0.06 c 0,0.1 0,0.12 -0.07,0.15 L 17,7.26 c -0.1,0 -0.11,0 -0.15,-0.07 H 16.8 l 0.13,0.37 h 0.05 c 0,-0.1 0,-0.11 0.07,-0.14 l 0.3,-0.11 v 0.1 L 17,7.81 17.07,8.02 h 0.05 c 0,-0.06 0,-0.08 0.06,-0.16 z m 0.3,-0.37 c 0.07,0 0.08,0 0.09,0 v 0.07 a 0.24,0.24 0 0 1 0,0.17 0.21,0.21 0 0 1 -0.13,0.11 0.21,0.21 0 0 1 -0.19,0 0.24,0.24 0 0 1 -0.11,-0.16 V 7.27 Z"
         id="path271729" />
      <path
         class="cls-4"
         d="m 2.27,11.91 a 0.38,0.38 0 0 1 -0.24,0 0.24,0.24 0 0 1 -0.11,-0.16 0.2,0.2 0 0 1 0,-0.19 0.33,0.33 0 0 1 0.22,-0.11 l 0.52,-0.1 c 0.11,0 0.12,0 0.14,0.08 H 2.85 L 2.82,11 v 0 c 0,0.1 0,0.11 -0.1,0.13 l -0.52,0.1 c -0.15,0 -0.24,0.07 -0.29,0.16 a 0.45,0.45 0 0 0 0,0.29 0.32,0.32 0 0 0 0.43,0.26 l 0.54,-0.1 c 0.1,0 0.12,0 0.13,0.08 H 3 L 2.94,11.64 v 0 c 0,0.09 0,0.1 -0.09,0.12 z"
         id="path271731" />
      <path
         class="cls-4"
         d="M 3.14,12.36 3,12.11 v 0 c 0,0.1 0,0.11 -0.07,0.15 l -0.68,0.26 c -0.1,0 -0.11,0 -0.15,-0.06 v 0 l 0.11,0.28 h 0.05 c 0,-0.1 0,-0.11 0.07,-0.15 l 0.7,-0.27 H 3 L 2.33,13.2 v 0.1 L 3.2,13 c 0.09,0 0.11,0 0.14,0.06 H 3.39 L 3.28,12.78 v 0 c 0,0.1 0,0.11 -0.06,0.15 l -0.66,0.25 v 0 z"
         id="path271733" />
      <path
         class="cls-4"
         d="m 2.73,13.71 c -0.09,0 -0.11,0 -0.16,-0.05 v 0 l 0.19,0.35 v 0 c 0,-0.09 0,-0.11 0,-0.16 l 0.65,-0.34 c 0.09,-0.05 0.1,-0.05 0.15,0.05 v 0 L 3.38,13.21 H 3.33 c 0.05,0.1 0.05,0.11 0,0.16 z"
         id="path271735" />
      <path
         class="cls-4"
         d="M 3.91,14.1 4,14.23 c 0,0.08 0,0.09 -0.08,0.21 v 0.06 l 0.2,-0.17 -0.43,-0.66 -0.23,0.11 v 0.05 c 0.16,-0.07 0.18,-0.06 0.22,0 l 0.09,0.13 -0.7,0.46 c -0.09,0.05 -0.1,0.05 -0.17,0 v 0 l 0.23,0.35 v 0 c -0.07,-0.1 -0.06,-0.12 0,-0.17 z"
         id="path271737" />
      <path
         class="cls-4"
         d="M 3.86,15.67 4.08,15.55 V 15.5 c -0.15,0.07 -0.17,0.07 -0.23,0 L 3.72,15.35 c 0,0 0,0 0,-0.08 L 4,15 4.09,15.12 c 0.05,0 0.05,0.06 -0.06,0.15 v 0.06 l 0.28,-0.24 v 0 c -0.1,0.09 -0.12,0.09 -0.17,0 L 4.06,15 4.32,14.78 c 0,0 0.06,0 0.09,0 l 0.1,0.11 c 0,0.07 0.06,0.08 0,0.22 v 0.05 L 4.66,15 4.25,14.51 v 0 c 0.07,0.08 0.07,0.09 0,0.16 L 3.7,15.14 c -0.08,0.07 -0.1,0.07 -0.17,0 v 0 z"
         id="path271739" />
      <path
         class="cls-8"
         d="m 4.1,15.93 0.3,0.27 a 0.56,0.56 0 0 0 0.42,0.17 0.68,0.68 0 0 0 0.53,-0.6 0.53,0.53 0 0 0 -0.2,-0.35 L 4.82,15.13 v 0 c 0.09,0.07 0.09,0.09 0,0.17 l -0.49,0.54 c -0.07,0.08 -0.09,0.08 -0.17,0 z m 0.84,-0.51 c 0,-0.05 0,-0.05 0.08,0 l 0.08,0.07 a 0.32,0.32 0 0 1 0.12,0.26 0.62,0.62 0 0 1 -0.17,0.33 0.56,0.56 0 0 1 -0.3,0.19 0.33,0.33 0 0 1 -0.3,-0.1 H 4.39 c 0,0 0,-0.05 0,-0.1 z"
         id="path271741" />
      <path
         class="cls-4"
         d="m 6.42,16.62 a 2,2 0 0 1 0.09,-0.2 0.76,0.76 0 0 0 -0.16,-0.14 0.35,0.35 0 0 0 -0.23,-0.05 0.26,0.26 0 0 0 -0.17,0.12 0.28,0.28 0 0 0 0,0.15 0.87,0.87 0 0 0 0.08,0.25 1.43,1.43 0 0 1 0.06,0.21 0.27,0.27 0 0 1 0,0.12 0.28,0.28 0 0 1 -0.12,0.1 0.2,0.2 0 0 1 -0.13,0 C 5.74,17.12 5.72,17.05 5.77,16.88 H 5.7 a 0.8,0.8 0 0 1 -0.08,0.21 0.69,0.69 0 0 0 0.18,0.16 0.35,0.35 0 0 0 0.27,0.05 0.26,0.26 0 0 0 0.16,-0.13 0.36,0.36 0 0 0 0,-0.19 1,1 0 0 0 -0.08,-0.25 0.58,0.58 0 0 1 -0.06,-0.2 0.17,0.17 0 0 1 0,-0.1 0.13,0.13 0 0 1 0.08,-0.07 0.15,0.15 0 0 1 0.13,0 c 0.1,0.06 0.1,0.11 0.05,0.26 z"
         id="path271743" />
      <path
         class="cls-4"
         d="m 7.13,16.78 0.14,0.06 c 0.08,0 0.09,0.05 0.05,0.22 H 7.38 L 7.45,16.81 6.73,16.49 6.6,16.71 h 0.05 c 0.1,-0.15 0.12,-0.15 0.2,-0.12 l 0.14,0.07 -0.34,0.75 c 0,0.1 -0.05,0.11 -0.17,0.06 v 0 l 0.39,0.17 V 17.59 C 6.75,17.54 6.75,17.52 6.79,17.43 Z"
         id="path271745" />
      <path
         class="cls-8"
         d="m 7.82,17.73 v 0.19 c 0,0.08 0,0.1 -0.09,0.08 v 0.05 l 0.3,0.09 V 18.09 C 8.03,18.09 8,18.06 8,18 V 17 H 7.92 l -0.56,0.83 c 0,0.06 -0.07,0.06 -0.11,0 v 0.05 L 7.4,18 v -0.05 c -0.08,0 -0.08,0 0,-0.12 l 0.1,-0.15 z m 0,-0.07 -0.29,-0.09 0.27,-0.42 v 0 z"
         id="path271747" />
      <path
         class="cls-4"
         d="M 8.85,17.28 H 9 c 0.08,0 0.1,0 0.1,0.2 H 9.16 V 17.23 L 8.39,17.09 8.31,17.34 H 8.37 C 8.43,17.17 8.44,17.17 8.53,17.18 H 8.68 L 8.54,18 c 0,0.1 0,0.11 -0.15,0.09 v 0.05 l 0.42,0.07 v -0.05 c -0.12,0 -0.13,0 -0.11,-0.14 z"
         id="path271749" />
      <path
         class="cls-4"
         d="m 10,18.36 v -0.24 0 c -0.05,0.16 -0.06,0.17 -0.15,0.17 h -0.2 c 0,0 0,0 0,-0.06 v -0.39 h 0.16 c 0.06,0 0.07,0 0.07,0.15 H 9.94 V 17.62 H 9.83 c 0,0.13 0,0.15 -0.08,0.15 H 9.6 v -0.35 c 0,-0.05 0,-0.06 0.05,-0.06 h 0.16 c 0.08,0 0.1,0 0.13,0.18 H 10 V 17.3 H 9.36 v 0.05 c 0.1,0 0.11,0 0.11,0.12 v 0.73 c 0,0.11 0,0.12 -0.12,0.12 v 0.05 z"
         id="path271751" />
      <path
         class="cls-4"
         d="m 10.78,17.49 c 0,-0.08 0,-0.16 0,-0.22 a 0.44,0.44 0 0 0 -0.21,0 0.29,0.29 0 0 0 -0.21,0.09 0.23,0.23 0 0 0 -0.07,0.19 0.24,0.24 0 0 0 0,0.14 0.8,0.8 0 0 0 0.21,0.17 l 0.17,0.13 a 0.28,0.28 0 0 1 0,0.12 0.19,0.19 0 0 1 0,0.15 0.23,0.23 0 0 1 -0.12,0.06 c -0.11,0 -0.17,0 -0.23,-0.21 h -0.06 a 1.14,1.14 0 0 1 0.05,0.23 0.63,0.63 0 0 0 0.24,0 0.33,0.33 0 0 0 0.25,-0.11 0.36,0.36 0 0 0 0.06,-0.2 0.33,0.33 0 0 0 -0.07,-0.18 1,1 0 0 0 -0.22,-0.16 0.72,0.72 0 0 1 -0.15,-0.13 0.17,0.17 0 0 1 0,-0.21 0.13,0.13 0 0 1 0.11,-0.05 c 0.12,0 0.15,0 0.19,0.18 z"
         id="path271753" />
      <path
         class="cls-8"
         d="m 12.22,18.08 a 0.46,0.46 0 0 0 0.32,-0.23 0.61,0.61 0 0 0 0,-0.43 0.58,0.58 0 0 0 -0.24,-0.42 0.47,0.47 0 0 0 -0.37,0 0.49,0.49 0 0 0 -0.31,0.21 0.63,0.63 0 0 0 0,0.46 0.64,0.64 0 0 0 0.23,0.37 0.53,0.53 0 0 0 0.4,0 z m -0.28,-1 a 0.34,0.34 0 0 1 0.26,0 0.85,0.85 0 0 1 0.2,0.75 0.32,0.32 0 0 1 -0.46,0.12 0.64,0.64 0 0 1 -0.19,-0.35 0.61,0.61 0 0 1 0,-0.4 0.29,0.29 0 0 1 0.2,-0.16 z"
         id="path271755" />
      <path
         class="cls-4"
         d="m 13.24,16.92 h -0.06 c 0.05,0.11 0,0.14 0,0.16 l -0.13,0.06 -0.14,-0.33 c 0,-0.06 0,-0.07 0,-0.09 l 0.15,-0.06 c 0.07,0 0.09,0 0.19,0.11 h 0.06 l -0.13,-0.2 -0.59,0.25 v 0.05 c 0.09,0 0.11,0 0.15,0.06 l 0.28,0.67 c 0.05,0.1 0,0.11 0,0.15 v 0.05 l 0.37,-0.15 v 0 c -0.12,0 -0.13,0 -0.17,-0.06 l -0.13,-0.31 0.13,-0.06 c 0.06,0 0.07,0 0.13,0.11 h 0.06 z"
         id="path271757" />
      <path
         class="cls-8"
         d="m 14.48,16.65 0.15,0.12 c 0.06,0.05 0.07,0.07 0,0.12 v 0 l 0.27,-0.17 v -0.05 c -0.05,0 -0.07,0 -0.14,0 l -0.76,-0.6 -0.08,0.05 0.28,1 c 0,0.07 0,0.09 0,0.12 v 0.05 l 0.2,-0.14 v 0 c -0.07,0 -0.08,0 -0.11,-0.06 l -0.06,-0.17 z m -0.06,0 -0.25,0.16 L 14,16.29 v 0 z"
         id="path271759" />
      <path
         class="cls-4"
         d="m 15.08,15.2 0.37,0.81 v 0 l -0.79,-0.42 -0.2,0.18 v 0 c 0.08,-0.07 0.09,-0.06 0.16,0 l 0.5,0.54 c 0.07,0.07 0.08,0.09 0,0.16 v 0 l 0.21,-0.2 v 0 c -0.07,0.07 -0.08,0.06 -0.15,0 l -0.5,-0.53 v 0 l 0.85,0.45 v 0 l -0.39,-0.87 v 0 l 0.5,0.53 c 0.07,0.08 0.07,0.09 0,0.16 v 0 l 0.27,-0.26 v 0 c -0.07,0.07 -0.09,0.07 -0.16,0 l -0.49,-0.53 c -0.08,-0.08 -0.08,-0.09 0,-0.16 v 0 z"
         id="path271761" />
      <path
         class="cls-4"
         d="m 16.65,15 -0.16,-0.19 v 0.05 c 0.1,0.13 0.1,0.15 0.05,0.22 l -0.13,0.15 c 0,0 0,0 -0.08,0 L 16,15 16.09,14.88 c 0.05,-0.05 0.06,-0.05 0.17,0 v 0 L 16,14.66 v 0.05 c 0.1,0.08 0.1,0.1 0.06,0.15 l -0.09,0.12 -0.27,-0.22 c -0.05,0 -0.05,0 0,-0.08 l 0.1,-0.13 c 0.05,-0.06 0.06,-0.07 0.21,0 v -0.06 l -0.21,-0.11 -0.4,0.49 v 0 c 0.07,-0.08 0.09,-0.08 0.17,0 l 0.56,0.46 c 0.09,0.07 0.09,0.08 0,0.16 h 0.05 z"
         id="path271763" />
      <path
         class="cls-8"
         d="m 16.69,14.06 a 0.35,0.35 0 0 0 0,-0.2 0.29,0.29 0 0 0 -0.12,-0.16 0.24,0.24 0 0 0 -0.23,0 0.54,0.54 0 0 0 -0.22,0.21 l -0.2,0.32 h 0.05 c 0.06,-0.09 0.07,-0.09 0.16,0 l 0.62,0.38 c 0.09,0.06 0.09,0.07 0,0.16 v 0 l 0.2,-0.32 v 0 c -0.06,0.09 -0.07,0.09 -0.16,0 l -0.27,-0.17 0.05,-0.09 h 0.56 L 17.3,14 h -0.05 c 0,0.05 -0.05,0.06 -0.16,0.06 z m -0.48,0 c -0.06,0 -0.07,-0.05 -0.06,-0.08 v -0.06 a 0.21,0.21 0 0 1 0.13,-0.11 0.17,0.17 0 0 1 0.17,0 0.22,0.22 0 0 1 0.12,0.15 0.25,0.25 0 0 1 -0.05,0.18 v 0.08 z"
         id="path271765" />
      <path
         class="cls-4"
         d="m 17.3,13.64 c 0.09,0 0.1,0.06 0.05,0.16 v 0 l 0.17,-0.36 h -0.05 c -0.05,0.1 -0.06,0.1 -0.16,0.06 l -0.66,-0.31 c -0.09,0 -0.1,-0.06 -0.05,-0.16 v 0 l -0.17,0.36 h 0.05 c 0.05,-0.1 0.06,-0.1 0.16,-0.06 z"
         id="path271767" />
      <path
         class="cls-4"
         d="m 17.68,12.39 a 0.36,0.36 0 0 1 0.12,0.16 0.21,0.21 0 0 1 0,0.19 0.26,0.26 0 0 1 -0.18,0.17 0.63,0.63 0 0 1 -0.4,0 0.6,0.6 0 0 1 -0.32,-0.24 0.29,0.29 0 0 1 0,-0.24 0.24,0.24 0 0 1 0.09,-0.13 0.33,0.33 0 0 1 0.23,0 v -0.07 h -0.25 a 0.36,0.36 0 0 0 -0.07,0.1 0.61,0.61 0 0 0 -0.07,0.14 0.5,0.5 0 0 0 0,0.38 0.56,0.56 0 0 0 0.34,0.27 0.62,0.62 0 0 0 0.46,0 0.42,0.42 0 0 0 0.23,-0.27 0.36,0.36 0 0 0 0,-0.27 0.53,0.53 0 0 0 -0.15,-0.19 z"
         id="path271769" />
      <path
         class="cls-8"
         d="m 17.84,11.48 h 0.19 c 0.08,0 0.1,0 0.08,0.08 h 0.05 l 0.07,-0.31 h -0.06 c 0,0 0,0.07 -0.12,0.08 l -1,0.14 v 0.09 l 0.88,0.47 c 0.06,0 0.07,0.05 0.06,0.1 h 0.06 V 11.89 H 18 c 0,0.08 0,0.09 -0.12,0 l -0.16,-0.08 z m -0.07,0 -0.06,0.3 -0.45,-0.23 v 0 z"
         id="path271771" />
      <path
         class="cls-4"
         d="M 2,9.5 A 0.13,0.13 0 1 1 2.26,9.5 0.13,0.13 0 1 1 2,9.5"
         id="path271773" />
      <path
         class="cls-9"
         d="M 2.11,9.66 A 0.16,0.16 0 0 1 2,9.5 0.15,0.15 0 0 1 2.15,9.35 0.16,0.16 0 0 1 2.31,9.5 0.16,0.16 0 0 1 2.11,9.66 Z m 0,-0.27 A 0.11,0.11 0 1 0 2.22,9.5 0.11,0.11 0 0 0 2.11,9.39 Z"
         id="path271775" />
      <path
         class="cls-4"
         d="m 17.71,9.44 a 0.13,0.13 0 0 1 0.26,0 0.13,0.13 0 1 1 -0.26,0"
         id="path271777" />
      <path
         class="cls-9"
         d="M 17.84,9.6 A 0.16,0.16 0 0 1 17.68,9.44 0.16,0.16 0 0 1 17.84,9.29 0.15,0.15 0 0 1 17.99,9.44 0.15,0.15 0 0 1 17.84,9.6 Z m 0,-0.27 a 0.11,0.11 0 0 0 -0.11,0.11 0.11,0.11 0 1 0 0.22,0 0.11,0.11 0 0 0 -0.11,-0.11 z"
         id="path271779" />
      <path
         class="cls-3"
         d="M 8.2,9.57 H 8 v 0 C 8,9.42 8,9.19 8.32,9.18 h 0.47 c 0.06,0 0.06,0 0.08,0 C 8.89,9.18 8.99,9 9.24,9 H 9.76 V 9.22 H 9.22 c -0.14,0 -0.15,0 -0.18,0.07 A 0.27,0.27 0 0 1 8.77,9.44 H 8.3 c -0.1,0 -0.1,0 -0.1,0.17 z m 3.73,0 H 11.7 v 0 C 11.7,9.4 11.7,9.4 11.6,9.4 H 11.13 A 0.27,0.27 0 0 1 10.86,9.25 c 0,0 0,-0.07 -0.17,-0.07 H 10.16 V 8.92 h 0.53 c 0.24,0 0.31,0.09 0.36,0.18 0.05,0.09 0,0 0.08,0 h 0.48 c 0.32,0 0.32,0.24 0.32,0.39 z"
         id="path271781" />
      <rect
         class="cls-5"
         x="10.21"
         y="8.5299997"
         width="0.22"
         height="0.38999999"
         id="rect271783" />
      <path
         class="cls-5"
         d="M 10.45,9 H 10.18 V 8.51 h 0.27 z m -0.22,0 h 0.18 V 8.56 h -0.18 z"
         id="path271785" />
      <rect
         class="cls-5"
         x="9.4099998"
         y="8.5299997"
         width="0.22"
         height="0.38999999"
         id="rect271787" />
      <path
         class="cls-5"
         d="M 9.65,8.94 H 9.38 V 8.51 h 0.27 z m -0.22,0 H 9.61 V 8.55 H 9.43 Z"
         id="path271789" />
      <path
         class="cls-3"
         d="M 9.67,9.09 H 9.58 V 8.61 h 0.09 z m 0.79,0 H 10.37 V 8.61 h 0.09 z m -0.2,0 H 10.17 V 8.61 h 0.09 z m -0.79,0 H 9.38 V 8.61 h 0.09 z"
         id="path271791" />
      <polygon
         class="cls-3"
         points="9.46,9.54 9.35,9.56 9.22,9.39 9.3,9.19 9.39,9.05 9.68,9.07 9.83,9.16 9.87,9.48 9.72,9.62 9.53,9.59 "
         id="polygon271793" />
      <path
         class="cls-3"
         d="M 9.72,9.64 H 9.52 9.45 9.34 L 9.19,9.45 9.28,9.24 9.38,9 H 9.69 L 9.85,9.09 9.9,9.44 Z M 9.54,9.57 H 9.71 L 9.85,9.45 V 9.14 L 9.71,9.06 H 9.45 L 9.36,9.19 9.28,9.38 9.39,9.52 H 9.5 Z"
         id="path271795" />
      <path
         class="cls-3"
         d="m 10.11,9.57 h 0.2 l 0.06,-0.13 h 0.18 L 10.69,9.28 10.6,9.08 10.41,9 h -0.13 -0.2 a 0.58,0.58 0 0 0 -0.05,0.11 c 0,0 0,0.29 0,0.29 z"
         id="path271797" />
      <path
         class="cls-3"
         d="M 10.32,9.64 10.09,9.59 10,9.41 c 0,0 0,-0.27 0,-0.29 A 0.31,0.31 0 0 1 10.06,9 v 0 h 0.22 0.14 l 0.2,0.13 v 0 l 0.09,0.22 -0.15,0.17 h -0.17 z m -0.2,-0.09 h 0.18 l 0.06,-0.13 h 0.18 L 10.66,9.29 10.58,9.1 10.4,8.98 h -0.12 -0.19 a 0.29,0.29 0 0 0 0,0.09 v 0.29 z"
         id="path271799" />
      <path
         class="cls-5"
         d="M 9.36,9.23 C 9.41,9.14 9.49,9.09 9.53,9.11 c 0.04,0.02 0,0.12 0,0.2 0,0.08 -0.13,0.15 -0.17,0.13 -0.04,-0.02 0,-0.12 0,-0.21"
         id="path271801" />
      <path
         class="cls-5"
         d="m 10.52,9.22 c 0,-0.09 -0.13,-0.15 -0.17,-0.12 -0.04,0.03 0,0.11 0,0.21 0,0.1 0.12,0.14 0.16,0.12 0.04,-0.02 0,-0.12 0,-0.21"
         id="path271803" />
      <path
         class="cls-5"
         d="m 9.63,9.37 c 0,-0.09 0.07,-0.16 0.1,-0.14 0.03,0.02 0,0.09 0,0.18 0,0.09 -0.07,0.15 -0.11,0.14 -0.04,-0.01 0,-0.09 0,-0.18"
         id="path271805" />
      <path
         class="cls-5"
         d="m 10.27,9.37 c 0,-0.09 -0.07,-0.16 -0.11,-0.14 -0.04,0.02 0,0.09 0,0.18 0,0.09 0.07,0.16 0.1,0.15 0.03,-0.01 0,-0.1 0,-0.19"
         id="path271807" />
      <rect
         class="cls-3"
         x="9.9099998"
         y="11.06"
         width="0.27000001"
         height="0.61000001"
         transform="rotate(-15.97,10.036258,11.366608)"
         id="rect271809" />
      <rect
         class="cls-3"
         x="10.05"
         y="11.1"
         width="1.34"
         height="0.14"
         transform="rotate(-17.14,10.705133,11.148143)"
         id="rect271811" />
    </g>
  </g>
</svg>
